  0
SECTION
  2
HEADER
  9
$ACADVER
  1
AC1024
  9
$ACADMAINTVER
 70
6
  9
$DWGCODEPAGE
  3
ANSI_1252
  9
$LASTSAVEDBY
  1
ezdxf
  9
$INSBASE
 10
0.0
 20
0.0
 30
0.0
  9
$EXTMIN
 10
1e+20
 20
1e+20
 30
1e+20
  9
$EXTMAX
 10
-1e+20
 20
-1e+20
 30
-1e+20
  9
$LIMMIN
 10
0.0
 20
0.0
  9
$LIMMAX
 10
420.0
 20
297.0
  9
$ORTHOMODE
 70
0
  9
$REGENMODE
 70
1
  9
$FILLMODE
 70
1
  9
$QTEXTMODE
 70
0
  9
$MIRRTEXT
 70
1
  9
$LTSCALE
 40
1.0
  9
$ATTMODE
 70
1
  9
$TEXTSIZE
 40
2.5
  9
$TRACEWID
 40
1.0
  9
$TEXTSTYLE
  7
Standard
  9
$CLAYER
  8
0
  9
$CELTYPE
  6
ByLayer
  9
$CECOLOR
 62
256
  9
$CELTSCALE
 40
1.0
  9
$DISPSILH
 70
0
  9
$DIMSCALE
 40
1.0
  9
$DIMASZ
 40
2.5
  9
$DIMEXO
 40
0.625
  9
$DIMDLI
 40
3.75
  9
$DIMRND
 40
0.0
  9
$DIMDLE
 40
0.0
  9
$DIMEXE
 40
1.25
  9
$DIMTP
 40
0.0
  9
$DIMTM
 40
0.0
  9
$DIMTXT
 40
2.5
  9
$DIMCEN
 40
2.5
  9
$DIMTSZ
 40
0.0
  9
$DIMTOL
 70
0
  9
$DIMLIM
 70
0
  9
$DIMTIH
 70
0
  9
$DIMTOH
 70
0
  9
$DIMSE1
 70
0
  9
$DIMSE2
 70
0
  9
$DIMTAD
 70
1
  9
$DIMZIN
 70
8
  9
$DIMBLK
  1

  9
$DIMASO
 70
1
  9
$DIMSHO
 70
1
  9
$DIMPOST
  1

  9
$DIMAPOST
  1

  9
$DIMALT
 70
0
  9
$DIMALTD
 70
3
  9
$DIMALTF
 40
0.03937007874
  9
$DIMLFAC
 40
1.0
  9
$DIMTOFL
 70
1
  9
$DIMTVP
 40
0.0
  9
$DIMTIX
 70
0
  9
$DIMSOXD
 70
0
  9
$DIMSAH
 70
0
  9
$DIMBLK1
  1

  9
$DIMBLK2
  1

  9
$DIMSTYLE
  2
ISO-25
  9
$DIMCLRD
 70
0
  9
$DIMCLRE
 70
0
  9
$DIMCLRT
 70
0
  9
$DIMTFAC
 40
1.0
  9
$DIMGAP
 40
0.625
  9
$DIMJUST
 70
0
  9
$DIMSD1
 70
0
  9
$DIMSD2
 70
0
  9
$DIMTOLJ
 70
0
  9
$DIMTZIN
 70
8
  9
$DIMALTZ
 70
0
  9
$DIMALTTZ
 70
0
  9
$DIMUPT
 70
0
  9
$DIMDEC
 70
2
  9
$DIMTDEC
 70
2
  9
$DIMALTU
 70
2
  9
$DIMALTTD
 70
3
  9
$DIMTXSTY
  7
Standard
  9
$DIMAUNIT
 70
0
  9
$DIMADEC
 70
0
  9
$DIMALTRND
 40
0.0
  9
$DIMAZIN
 70
0
  9
$DIMDSEP
 70
44
  9
$DIMATFIT
 70
3
  9
$DIMFRAC
 70
0
  9
$DIMLDRBLK
  1

  9
$DIMLUNIT
 70
2
  9
$DIMLWD
 70
-2
  9
$DIMLWE
 70
-2
  9
$DIMTMOVE
 70
0
  9
$DIMFXL
 40
1.0
  9
$DIMFXLON
 70
0
  9
$DIMJOGANG
 40
0.785398163397
  9
$DIMTFILL
 70
0
  9
$DIMTFILLCLR
 70
0
  9
$DIMARCSYM
 70
0
  9
$DIMLTYPE
  6

  9
$DIMLTEX1
  6

  9
$DIMLTEX2
  6

  9
$DIMTXTDIRECTION
 70
0
  9
$LUNITS
 70
2
  9
$LUPREC
 70
4
  9
$SKETCHINC
 40
1.0
  9
$FILLETRAD
 40
10.0
  9
$AUNITS
 70
0
  9
$AUPREC
 70
2
  9
$MENU
  1
.
  9
$ELEVATION
 40
0.0
  9
$PELEVATION
 40
0.0
  9
$THICKNESS
 40
0.0
  9
$LIMCHECK
 70
0
  9
$CHAMFERA
 40
0.0
  9
$CHAMFERB
 40
0.0
  9
$CHAMFERC
 40
0.0
  9
$CHAMFERD
 40
0.0
  9
$SKPOLY
 70
0
  9
$TDCREATE
 40
2460049.6308217593
  9
$TDUCREATE
 40
2458532.153996898
  9
$TDUPDATE
 40
2460049.6308217593
  9
$TDUUPDATE
 40
2458532.1544311
  9
$TDINDWG
 40
0.0
  9
$TDUSRTIMER
 40
0.0
  9
$USRTIMER
 70
1
  9
$ANGBASE
 50
0.0
  9
$ANGDIR
 70
0
  9
$PDMODE
 70
0
  9
$PDSIZE
 40
0.0
  9
$PLINEWID
 40
0.0
  9
$SPLFRAME
 70
0
  9
$SPLINETYPE
 70
6
  9
$SPLINESEGS
 70
8
  9
$HANDSEED
  5
182
  9
$SURFTAB1
 70
6
  9
$SURFTAB2
 70
6
  9
$SURFTYPE
 70
6
  9
$SURFU
 70
6
  9
$SURFV
 70
6
  9
$UCSBASE
  2

  9
$UCSNAME
  2

  9
$UCSORG
 10
0.0
 20
0.0
 30
0.0
  9
$UCSXDIR
 10
1.0
 20
0.0
 30
0.0
  9
$UCSYDIR
 10
0.0
 20
1.0
 30
0.0
  9
$UCSORTHOREF
  2

  9
$UCSORTHOVIEW
 70
0
  9
$UCSORGTOP
 10
0.0
 20
0.0
 30
0.0
  9
$UCSORGBOTTOM
 10
0.0
 20
0.0
 30
0.0
  9
$UCSORGLEFT
 10
0.0
 20
0.0
 30
0.0
  9
$UCSORGRIGHT
 10
0.0
 20
0.0
 30
0.0
  9
$UCSORGFRONT
 10
0.0
 20
0.0
 30
0.0
  9
$UCSORGBACK
 10
0.0
 20
0.0
 30
0.0
  9
$PUCSBASE
  2

  9
$PUCSNAME
  2

  9
$PUCSORG
 10
0.0
 20
0.0
 30
0.0
  9
$PUCSXDIR
 10
1.0
 20
0.0
 30
0.0
  9
$PUCSYDIR
 10
0.0
 20
1.0
 30
0.0
  9
$PUCSORTHOREF
  2

  9
$PUCSORTHOVIEW
 70
0
  9
$PUCSORGTOP
 10
0.0
 20
0.0
 30
0.0
  9
$PUCSORGBOTTOM
 10
0.0
 20
0.0
 30
0.0
  9
$PUCSORGLEFT
 10
0.0
 20
0.0
 30
0.0
  9
$PUCSORGRIGHT
 10
0.0
 20
0.0
 30
0.0
  9
$PUCSORGFRONT
 10
0.0
 20
0.0
 30
0.0
  9
$PUCSORGBACK
 10
0.0
 20
0.0
 30
0.0
  9
$USERI1
 70
0
  9
$USERI2
 70
0
  9
$USERI3
 70
0
  9
$USERI4
 70
0
  9
$USERI5
 70
0
  9
$USERR1
 40
0.0
  9
$USERR2
 40
0.0
  9
$USERR3
 40
0.0
  9
$USERR4
 40
0.0
  9
$USERR5
 40
0.0
  9
$WORLDVIEW
 70
1
  9
$SHADEDGE
 70
3
  9
$SHADEDIF
 70
70
  9
$TILEMODE
 70
1
  9
$MAXACTVP
 70
64
  9
$PINSBASE
 10
0.0
 20
0.0
 30
0.0
  9
$PLIMCHECK
 70
0
  9
$PEXTMIN
 10
1e+20
 20
1e+20
 30
1e+20
  9
$PEXTMAX
 10
-1e+20
 20
-1e+20
 30
-1e+20
  9
$PLIMMIN
 10
0.0
 20
0.0
  9
$PLIMMAX
 10
420.0
 20
297.0
  9
$UNITMODE
 70
0
  9
$VISRETAIN
 70
1
  9
$PLINEGEN
 70
0
  9
$PSLTSCALE
 70
1
  9
$TREEDEPTH
 70
3020
  9
$CMLSTYLE
  2
Standard
  9
$CMLJUST
 70
0
  9
$CMLSCALE
 40
20.0
  9
$PROXYGRAPHICS
 70
1
  9
$MEASUREMENT
 70
1
  9
$CELWEIGHT
370
-1
  9
$ENDCAPS
280
0
  9
$JOINSTYLE
280
0
  9
$LWDISPLAY
290
0
  9
$INSUNITS
 70
6
  9
$HYPERLINKBASE
  1

  9
$STYLESHEET
  1

  9
$XEDIT
290
1
  9
$CEPSNTYPE
380
0
  9
$PSTYLEMODE
290
1
  9
$FINGERPRINTGUID
  2
{C11DA483-26E7-4C72-B419-46A4BA75159D}
  9
$VERSIONGUID
  2
{6AB97EEE-1557-4F42-9A05-A456FC02AAB5}
  9
$EXTNAMES
290
1
  9
$PSVPSCALE
 40
0.0
  9
$OLESTARTUP
290
0
  9
$SORTENTS
280
127
  9
$INDEXCTL
280
0
  9
$HIDETEXT
280
1
  9
$XCLIPFRAME
280
0
  9
$HALOGAP
280
0
  9
$OBSCOLOR
 70
257
  9
$OBSLTYPE
280
0
  9
$INTERSECTIONDISPLAY
280
0
  9
$INTERSECTIONCOLOR
 70
257
  9
$DIMASSOC
280
2
  9
$PROJECTNAME
  1

  9
$CAMERADISPLAY
290
0
  9
$LENSLENGTH
 40
50.0
  9
$CAMERAHEIGHT
 40
0.0
  9
$STEPSPERSEC
 40
24.0
  9
$STEPSIZE
 40
100.0
  9
$3DDWFPREC
 40
2.0
  9
$PSOLWIDTH
 40
0.005
  9
$PSOLHEIGHT
 40
0.08
  9
$LOFTANG1
 40
1.570796326795
  9
$LOFTANG2
 40
1.570796326795
  9
$LOFTMAG1
 40
0.0
  9
$LOFTMAG2
 40
0.0
  9
$LOFTPARAM
 70
7
  9
$LOFTNORMALS
280
1
  9
$LATITUDE
 40
37.795
  9
$LONGITUDE
 40
-122.394
  9
$NORTHDIRECTION
 40
0.0
  9
$TIMEZONE
 70
-8000
  9
$LIGHTGLYPHDISPLAY
280
1
  9
$TILEMODELIGHTSYNCH
280
1
  9
$CMATERIAL
347
20
  9
$SOLIDHIST
280
0
  9
$SHOWHIST
280
1
  9
$DWFFRAME
280
2
  9
$DGNFRAME
280
2
  9
$REALWORLDSCALE
290
1
  9
$INTERFERECOLOR
 62
256
  9
$CSHADOW
280
0
  9
$SHADOWPLANELOCATION
 40
0.0
  0
ENDSEC
  0
SECTION
  2
CLASSES
  0
CLASS
  1
ACDBDICTIONARYWDFLT
  2
AcDbDictionaryWithDefault
  3
ObjectDBX Classes
 90
0
 91
0
280
0
281
0
  0
CLASS
  1
SUN
  2
AcDbSun
  3
SCENEOE
 90
1153
 91
0
280
0
281
0
  0
CLASS
  1
VISUALSTYLE
  2
AcDbVisualStyle
  3
ObjectDBX Classes
 90
4095
 91
0
280
0
281
0
  0
CLASS
  1
MATERIAL
  2
AcDbMaterial
  3
ObjectDBX Classes
 90
1153
 91
0
280
0
281
0
  0
CLASS
  1
SCALE
  2
AcDbScale
  3
ObjectDBX Classes
 90
1153
 91
0
280
0
281
0
  0
CLASS
  1
TABLESTYLE
  2
AcDbTableStyle
  3
ObjectDBX Classes
 90
4095
 91
0
280
0
281
0
  0
CLASS
  1
MLEADERSTYLE
  2
AcDbMLeaderStyle
  3
ACDB_MLEADERSTYLE_CLASS
 90
4095
 91
0
280
0
281
0
  0
CLASS
  1
DICTIONARYVAR
  2
AcDbDictionaryVar
  3
ObjectDBX Classes
 90
0
 91
0
280
0
281
0
  0
CLASS
  1
CELLSTYLEMAP
  2
AcDbCellStyleMap
  3
ObjectDBX Classes
 90
1152
 91
0
280
0
281
0
  0
CLASS
  1
MENTALRAYRENDERSETTINGS
  2
AcDbMentalRayRenderSettings
  3
SCENEOE
 90
1024
 91
0
280
0
281
0
  0
CLASS
  1
ACDBDETAILVIEWSTYLE
  2
AcDbDetailViewStyle
  3
ObjectDBX Classes
 90
1025
 91
0
280
0
281
0
  0
CLASS
  1
ACDBSECTIONVIEWSTYLE
  2
AcDbSectionViewStyle
  3
ObjectDBX Classes
 90
1025
 91
0
280
0
281
0
  0
CLASS
  1
RASTERVARIABLES
  2
AcDbRasterVariables
  3
ISM
 90
0
 91
0
280
0
281
0
  0
CLASS
  1
ACDBPLACEHOLDER
  2
AcDbPlaceHolder
  3
ObjectDBX Classes
 90
0
 91
0
280
0
281
0
  0
CLASS
  1
LAYOUT
  2
AcDbLayout
  3
ObjectDBX Classes
 90
0
 91
0
280
0
281
0
  0
ENDSEC
  0
SECTION
  2
TABLES
  0
TABLE
  2
VPORT
  5
8
330
0
100
AcDbSymbolTable
 70
1
  0
VPORT
  5
23
330
8
100
AcDbSymbolTableRecord
100
AcDbViewportTableRecord
  2
*Active
 70
0
 10
0.0
 20
0.0
 11
1.0
 21
1.0
 12
0.0
 22
0.0
 13
0.0
 23
0.0
 14
0.5
 24
0.5
 15
0.5
 25
0.5
 16
0.0
 26
0.0
 36
1.0
 17
0.0
 27
0.0
 37
0.0
 40
1000.0
 41
1.34
 42
50.0
 43
0.0
 44
0.0
 50
0.0
 51
0.0
 71
0
 72
1000
 73
1
 74
3
 75
0
 76
0
 77
0
 78
0
281
0
 65
0
146
0.0
  0
ENDTAB
  0
TABLE
  2
LTYPE
  5
2
330
0
100
AcDbSymbolTable
 70
3
  0
LTYPE
  5
24
330
2
100
AcDbSymbolTableRecord
100
AcDbLinetypeTableRecord
  2
ByBlock
 70
0
  3

 72
65
 73
0
 40
0.0
  0
LTYPE
  5
25
330
2
100
AcDbSymbolTableRecord
100
AcDbLinetypeTableRecord
  2
ByLayer
 70
0
  3

 72
65
 73
0
 40
0.0
  0
LTYPE
  5
26
330
2
100
AcDbSymbolTableRecord
100
AcDbLinetypeTableRecord
  2
Continuous
 70
0
  3

 72
65
 73
0
 40
0.0
  0
ENDTAB
  0
TABLE
  2
LAYER
  5
1
330
0
100
AcDbSymbolTable
 70
2
  0
LAYER
  5
27
330
1
100
AcDbSymbolTableRecord
100
AcDbLayerTableRecord
  2
0
 70
0
 62
7
  6
Continuous
370
-3
390
13
347
21
  0
LAYER
  5
28
330
1
100
AcDbSymbolTableRecord
100
AcDbLayerTableRecord
  2
Defpoints
 70
0
 62
7
  6
Continuous
290
0
370
-3
390
13
347
21
  0
ENDTAB
  0
TABLE
  2
STYLE
  5
5
330
0
100
AcDbSymbolTable
 70
1
  0
STYLE
  5
29
330
5
100
AcDbSymbolTableRecord
100
AcDbTextStyleTableRecord
  2
Standard
 70
0
 40
0.0
 41
1.0
 50
0.0
 71
0
 42
2.5
  3
txt
  4

  0
ENDTAB
  0
TABLE
  2
VIEW
  5
7
330
0
100
AcDbSymbolTable
 70
0
  0
ENDTAB
  0
TABLE
  2
UCS
  5
6
330
0
100
AcDbSymbolTable
 70
0
  0
ENDTAB
  0
TABLE
  2
APPID
  5
3
330
0
100
AcDbSymbolTable
 70
3
  0
APPID
  5
2A
330
3
100
AcDbSymbolTableRecord
100
AcDbRegAppTableRecord
  2
ACAD
 70
0
  0
APPID
  5
17F
330
3
100
AcDbSymbolTableRecord
100
AcDbRegAppTableRecord
  2
HATCHBACKGROUNDCOLOR
 70
0
  0
APPID
  5
180
330
3
100
AcDbSymbolTableRecord
100
AcDbRegAppTableRecord
  2
EZDXF
 70
0
  0
ENDTAB
  0
TABLE
  2
DIMSTYLE
  5
4
330
0
100
AcDbSymbolTable
 70
1
100
AcDbDimStyleTable
  0
DIMSTYLE
105
2B
330
4
100
AcDbSymbolTableRecord
100
AcDbDimStyleTableRecord
  2
Standard
 70
0
 40
1.0
 41
2.5
 42
0.625
 43
3.75
 44
1.25
 45
0.0
 46
0.0
 47
0.0
 48
0.0
 49
2.5
140
2.5
141
2.5
142
0.0
143
0.03937007874
144
1.0
145
0.0
146
1.0
147
0.625
148
0.0
 69
0
 70
0
 71
0
 72
0
 73
0
 74
0
 75
0
 76
0
 77
1
 78
8
 79
3
170
0
171
3
172
1
173
0
174
0
175
0
176
0
177
0
178
0
179
2
271
2
272
2
273
2
274
3
275
0
276
0
277
2
278
44
279
0
280
0
281
0
282
0
283
0
284
8
285
0
286
0
288
0
289
3
290
0
371
-2
372
-2
  0
ENDTAB
  0
TABLE
  2
BLOCK_RECORD
  5
9
330
0
100
AcDbSymbolTable
 70
2
  0
BLOCK_RECORD
  5
17
330
9
100
AcDbSymbolTableRecord
100
AcDbBlockTableRecord
  2
*Model_Space
340
1A
 70
0
280
1
281
0
  0
BLOCK_RECORD
  5
1B
330
9
100
AcDbSymbolTableRecord
100
AcDbBlockTableRecord
  2
*Paper_Space
340
1E
 70
0
280
1
281
0
  0
ENDTAB
  0
ENDSEC
  0
SECTION
  2
BLOCKS
  0
BLOCK
  5
18
330
17
100
AcDbEntity
  8
0
100
AcDbBlockBegin
  2
*Model_Space
 70
0
 10
0.0
 20
0.0
 30
0.0
  3
*Model_Space
  1

  0
ENDBLK
  5
19
330
17
100
AcDbEntity
  8
0
100
AcDbBlockEnd
  0
BLOCK
  5
1C
330
1B
100
AcDbEntity
  8
0
100
AcDbBlockBegin
  2
*Paper_Space
 70
0
 10
0.0
 20
0.0
 30
0.0
  3
*Paper_Space
  1

  0
ENDBLK
  5
1D
330
1B
100
AcDbEntity
  8
0
100
AcDbBlockEnd
  0
ENDSEC
  0
SECTION
  2
ENTITIES
  0
LINE
  5
2F
330
17
100
AcDbEntity
  8
0
100
AcDbLine
 10
8234.02932467943
 20
-12529.4615434792
 30
0.0
 11
17488.029324678
 21
27572.5384565112
 31
0.0
  0
LINE
  5
30
330
17
100
AcDbEntity
  8
0
100
AcDbLine
 10
17488.029324678
 20
27572.5384565112
 30
0.0
 11
-19402.9706752907
 21
23856.538456514
 31
0.0
  0
LINE
  5
31
330
17
100
AcDbEntity
  8
0
100
AcDbLine
 10
-19402.9706752907
 20
23856.538456514
 30
0.0
 11
-15381.9706753247
 21
-16347.4615434746
 31
0.0
  0
LINE
  5
32
330
17
100
AcDbEntity
  8
0
100
AcDbLine
 10
-15381.9706753247
 20
-16347.4615434746
 30
0.0
 11
8234.02932467943
 21
-12529.4615434792
 31
0.0
  0
LINE
  5
33
330
17
100
AcDbEntity
  8
0
100
AcDbLine
 10
-4717.357150420903
 20
-14623.312896877947
 30
0.0
 11
4723.110088382213
 21
26286.73867114134
 31
0.0
  0
LINE
  5
34
330
17
100
AcDbEntity
  8
0
100
AcDbLine
 10
10084.829324679144
 20
-4509.061543481121
 30
0.0
 11
-1753.0016365998617
 21
-1777.3452271955189
 31
0.0
  0
LINE
  5
35
330
17
100
AcDbEntity
  8
0
100
AcDbLine
 10
11935.629324678857
 20
3511.338456516958
 30
0.0
 11
97.79836339985195
 21
6243.0547728025595
 31
0.0
  0
LINE
  5
36
330
17
100
AcDbEntity
  8
0
100
AcDbLine
 10
13786.429324678571
 20
11531.738456515035
 30
0.0
 11
1948.5983633995656
 21
14263.454772800636
 31
0.0
  0
LINE
  5
37
330
17
100
AcDbEntity
  8
0
100
AcDbLine
 10
15637.229324678285
 20
19552.138456513116
 30
0.0
 11
3799.3983633992793
 21
22283.854772798717
 31
0.0
  0
LINE
  5
38
330
17
100
AcDbEntity
  8
0
100
AcDbLine
 10
-8599.129091629558
 20
-7185.558516436162
 30
0.0
 11
-4619.268696148447
 21
-6784.6704616366405
 31
0.0
  0
LINE
  5
39
330
17
100
AcDbEntity
  8
0
100
AcDbLine
 10
-7823.224744475531
 20
25022.956712427727
 30
0.0
 11
-4619.268696148447
 21
-6784.6704616366405
 31
0.0
  0
LINE
  5
3A
330
17
100
AcDbEntity
  8
0
100
AcDbLine
 10
-11803.085139956642
 20
24622.068657628206
 30
0.0
 11
-8599.129091629558
 21
-7185.558516436162
 31
0.0
  0
LINE
  5
3B
330
17
100
AcDbEntity
  8
0
100
AcDbLine
 10
-6609.198893889003
 20
-6985.114489036401
 30
0.0
 11
-5821.823356721816
 21
-14801.872008313037
 31
0.0
  0
LINE
  5
3C
330
17
100
AcDbEntity
  8
0
100
AcDbLine
 10
2540.5295297533003
 20
16828.575113530656
 30
0.0
 11
-6902.004036886261
 21
15877.436496154176
 31
0.0
  0
LINE
  5
3D
330
17
100
AcDbEntity
  8
0
100
AcDbLine
 10
2496.0314505027227
 20
16635.74369207977
 30
0.0
 11
-6883.222346610723
 21
15690.979193690548
 31
0.0
  0
LINE
  5
3E
330
17
100
AcDbEntity
  8
0
100
AcDbLine
 10
-18073.732558072374
 20
10566.140728316463
 30
0.0
 11
-10458.148940431944
 21
11343.043898703636
 31
0.0
  0
LINE
  5
3F
330
17
100
AcDbEntity
  8
0
100
AcDbLine
 10
-16440.70705153778
 20
-5761.677591816144
 30
0.0
 11
-8819.879157216157
 21
-4994.037884155684
 31
0.0
  0
LINE
  5
40
330
17
100
AcDbEntity
  8
0
100
AcDbLine
 10
8234.02932467943
 20
67470.5384565208
 30
0.0
 11
17488.029324678
 21
107572.5384565112
 31
0.0
  0
LINE
  5
41
330
17
100
AcDbEntity
  8
0
100
AcDbLine
 10
17488.029324678
 20
107572.5384565112
 30
0.0
 11
-19402.9706752907
 21
103856.538456514
 31
0.0
  0
LINE
  5
42
330
17
100
AcDbEntity
  8
0
100
AcDbLine
 10
-19402.9706752907
 20
103856.538456514
 30
0.0
 11
-15381.9706753247
 21
63652.5384565254
 31
0.0
  0
LINE
  5
43
330
17
100
AcDbEntity
  8
0
100
AcDbLine
 10
-15381.9706753247
 20
63652.5384565254
 30
0.0
 11
8234.02932467943
 21
67470.5384565208
 31
0.0
  0
LINE
  5
44
330
17
100
AcDbEntity
  8
0
100
AcDbLine
 10
-4717.357150420903
 20
65376.68710312205
 30
0.0
 11
4723.110088382213
 21
106286.73867114134
 31
0.0
  0
LINE
  5
45
330
17
100
AcDbEntity
  8
0
100
AcDbLine
 10
10084.829324679144
 20
75490.93845651888
 30
0.0
 11
-1753.0016365998617
 21
78222.65477280448
 31
0.0
  0
LINE
  5
46
330
17
100
AcDbEntity
  8
0
100
AcDbLine
 10
11935.629324678857
 20
83511.33845651695
 30
0.0
 11
97.79836339985195
 21
86243.05477280256
 31
0.0
  0
LINE
  5
47
330
17
100
AcDbEntity
  8
0
100
AcDbLine
 10
13786.429324678571
 20
91531.73845651504
 30
0.0
 11
1948.5983633995656
 21
94263.45477280064
 31
0.0
  0
LINE
  5
48
330
17
100
AcDbEntity
  8
0
100
AcDbLine
 10
15637.229324678285
 20
99552.13845651312
 30
0.0
 11
3799.3983633992793
 21
102283.85477279872
 31
0.0
  0
LINE
  5
49
330
17
100
AcDbEntity
  8
0
100
AcDbLine
 10
-12056.430793732372
 20
64559.31595201678
 30
0.0
 11
-8076.570398251261
 21
64960.204006816304
 31
0.0
  0
LINE
  5
4A
330
17
100
AcDbEntity
  8
0
100
AcDbLine
 10
-12068.979447788708
 20
104595.2853433265
 30
0.0
 11
-8076.570398251261
 21
64960.204006816304
 31
0.0
  0
LINE
  5
4B
330
17
100
AcDbEntity
  8
0
100
AcDbLine
 10
-16048.83984326982
 20
104194.39728852698
 30
0.0
 11
-12056.430793732372
 21
64559.31595201678
 31
0.0
  0
LINE
  5
4C
330
17
100
AcDbEntity
  8
0
100
AcDbLine
 10
-10066.50059599182
 20
64759.75997941654
 30
0.0
 11
-10041.933017578329
 21
64515.862634085
 31
0.0
  0
LINE
  5
4D
330
17
100
AcDbEntity
  8
0
100
AcDbLine
 10
2918.5003048318304
 20
98466.50293092831
 30
0.0
 11
-11307.292143669612
 21
97033.5505919124
 31
0.0
  0
LINE
  5
4E
330
17
100
AcDbEntity
  8
0
100
AcDbLine
 10
-840.9970836030266
 20
82174.80590574982
 30
0.0
 11
-9720.48847190521
 21
81280.38206256491
 31
0.0
  0
LINE
  5
4F
330
17
100
AcDbEntity
  8
0
100
AcDbLine
 10
-16395.671741096474
 20
73788.0365039319
 30
0.0
 11
-12997.704938452029
 21
74133.80819638135
 31
0.0
  0
LINE
  5
50
330
17
100
AcDbEntity
  8
0
100
AcDbLine
 10
-17874.40622641049
 20
88573.17483968183
 30
0.0
 11
-14509.46887967991
 21
88912.12220300763
 31
0.0
  0
LINE
  5
51
330
17
100
AcDbEntity
  8
0
100
AcDbLine
 10
8234.02932467943
 20
147470.5384565208
 30
0.0
 11
17488.029324678
 21
187572.5384565112
 31
0.0
  0
LINE
  5
52
330
17
100
AcDbEntity
  8
0
100
AcDbLine
 10
17488.029324678
 20
187572.5384565112
 30
0.0
 11
-19402.9706752907
 21
183856.538456514
 31
0.0
  0
LINE
  5
53
330
17
100
AcDbEntity
  8
0
100
AcDbLine
 10
-19402.9706752907
 20
183856.538456514
 30
0.0
 11
-15381.9706753247
 21
143652.5384565254
 31
0.0
  0
LINE
  5
54
330
17
100
AcDbEntity
  8
0
100
AcDbLine
 10
-15381.9706753247
 20
143652.5384565254
 30
0.0
 11
8234.02932467943
 21
147470.5384565208
 31
0.0
  0
LINE
  5
55
330
17
100
AcDbEntity
  8
0
100
AcDbLine
 10
-4717.357150420903
 20
145376.68710312207
 30
0.0
 11
4723.110088382213
 21
186286.73867114133
 31
0.0
  0
LINE
  5
56
330
17
100
AcDbEntity
  8
0
100
AcDbLine
 10
10084.829324679144
 20
155490.93845651887
 30
0.0
 11
-1753.0016365998617
 21
158222.65477280447
 31
0.0
  0
LINE
  5
57
330
17
100
AcDbEntity
  8
0
100
AcDbLine
 10
11935.629324678857
 20
163511.33845651697
 30
0.0
 11
97.79836339985195
 21
166243.05477280257
 31
0.0
  0
LINE
  5
58
330
17
100
AcDbEntity
  8
0
100
AcDbLine
 10
13786.429324678571
 20
171531.73845651504
 30
0.0
 11
1948.5983633995656
 21
174263.45477280064
 31
0.0
  0
LINE
  5
59
330
17
100
AcDbEntity
  8
0
100
AcDbLine
 10
15637.229324678285
 20
179552.13845651312
 30
0.0
 11
3799.3983633992793
 21
182283.85477279872
 31
0.0
  0
LINE
  5
5A
330
17
100
AcDbEntity
  8
0
100
AcDbLine
 10
-11652.825029352069
 20
147359.2943640537
 30
0.0
 11
-7672.964633870956
 21
147760.18241885322
 31
0.0
  0
LINE
  5
5B
330
17
100
AcDbEntity
  8
0
100
AcDbLine
 10
-11390.221098687787
 20
184663.65611194918
 30
0.0
 11
-7672.964633870956
 21
147760.18241885322
 31
0.0
  0
LINE
  5
5C
330
17
100
AcDbEntity
  8
0
100
AcDbLine
 10
-15370.081494168899
 20
184262.76805714966
 30
0.0
 11
-11652.825029352069
 21
147359.2943640537
 31
0.0
  0
LINE
  5
5D
330
17
100
AcDbEntity
  8
0
100
AcDbLine
 10
-9662.894831611511
 20
147559.73839145346
 30
0.0
 11
-9367.274478263149
 21
144624.9347167028
 31
0.0
  0
LINE
  5
5E
330
17
100
AcDbEntity
  8
0
100
AcDbLine
 10
2918.5003048318313
 20
178466.5029309283
 30
0.0
 11
-10628.533794568693
 21
177101.92136053508
 31
0.0
  0
LINE
  5
5F
330
17
100
AcDbEntity
  8
0
100
AcDbLine
 10
-331.0651265324914
 20
164384.58452498916
 30
0.0
 11
-9256.96152695919
 21
163485.4863432107
 31
0.0
  0
LINE
  5
60
330
17
100
AcDbEntity
  8
0
100
AcDbLine
 10
-16900.989604418675
 20
158840.46111899574
 30
0.0
 11
-12831.754973745234
 21
159254.8533729477
 31
0.0
  0
LINE
  5
61
330
17
100
AcDbEntity
  8
0
100
AcDbLine
 10
-17461.023813741635
 20
164439.96754819353
 30
0.0
 11
-13414.40562214851
 21
164847.5800607294
 31
0.0
  0
LINE
  5
62
330
17
100
AcDbEntity
  8
0
100
AcDbLine
 10
8234.02932467943
 20
227470.5384565208
 30
0.0
 11
17488.029324678
 21
267572.5384565112
 31
0.0
  0
LINE
  5
63
330
17
100
AcDbEntity
  8
0
100
AcDbLine
 10
17488.029324678
 20
267572.5384565112
 30
0.0
 11
-19402.9706752907
 21
263856.538456514
 31
0.0
  0
LINE
  5
64
330
17
100
AcDbEntity
  8
0
100
AcDbLine
 10
-19402.9706752907
 20
263856.538456514
 30
0.0
 11
-15381.9706753247
 21
223652.5384565254
 31
0.0
  0
LINE
  5
65
330
17
100
AcDbEntity
  8
0
100
AcDbLine
 10
-15381.9706753247
 20
223652.5384565254
 30
0.0
 11
8234.02932467943
 21
227470.5384565208
 31
0.0
  0
LINE
  5
66
330
17
100
AcDbEntity
  8
0
100
AcDbLine
 10
-4717.357150420903
 20
225376.68710312207
 30
0.0
 11
4723.110088382213
 21
266286.7386711413
 31
0.0
  0
LINE
  5
67
330
17
100
AcDbEntity
  8
0
100
AcDbLine
 10
10084.829324679144
 20
235490.93845651887
 30
0.0
 11
-1753.0016365998617
 21
238222.65477280447
 31
0.0
  0
LINE
  5
68
330
17
100
AcDbEntity
  8
0
100
AcDbLine
 10
11935.629324678857
 20
243511.33845651697
 30
0.0
 11
97.79836339985195
 21
246243.05477280257
 31
0.0
  0
LINE
  5
69
330
17
100
AcDbEntity
  8
0
100
AcDbLine
 10
13786.429324678571
 20
251531.73845651504
 30
0.0
 11
1948.5983633995656
 21
254263.45477280064
 31
0.0
  0
LINE
  5
6A
330
17
100
AcDbEntity
  8
0
100
AcDbLine
 10
15637.229324678285
 20
259552.13845651312
 30
0.0
 11
3799.3983633992793
 21
262283.8547727987
 31
0.0
  0
LINE
  5
6B
330
17
100
AcDbEntity
  8
0
100
AcDbLine
 10
-11792.640432745317
 20
237226.27391129188
 30
0.0
 11
-7812.780037264205
 21
237627.1619660914
 31
0.0
  0
LINE
  5
6C
330
17
100
AcDbEntity
  8
0
100
AcDbLine
 10
-10544.722529733528
 20
264748.82248537993
 30
0.0
 11
-7812.780037264205
 21
237627.1619660914
 31
0.0
  0
LINE
  5
6D
330
17
100
AcDbEntity
  8
0
100
AcDbLine
 10
-14524.58292521464
 20
264347.9344305804
 30
0.0
 11
-11792.640432745317
 21
237226.27391129188
 31
0.0
  0
LINE
  5
6E
330
17
100
AcDbEntity
  8
0
100
AcDbLine
 10
-9802.71023500476
 20
237426.71793869164
 30
0.0
 11
-8526.88285688666
 21
224760.80087568023
 31
0.0
  0
LINE
  5
6F
330
17
100
AcDbEntity
  8
0
100
AcDbLine
 10
2918.5003048318313
 20
258466.5029309283
 30
0.0
 11
-9783.035225614432
 21
257187.08773396583
 31
0.0
  0
LINE
  5
70
330
17
100
AcDbEntity
  8
0
100
AcDbLine
 10
-577.2240818599621
 20
243317.86025153537
 30
0.0
 11
-8307.56451260292
 21
242539.18943641396
 31
0.0
  0
LINE
  5
71
330
17
100
AcDbEntity
  8
0
100
AcDbLine
 10
-17333.780253959863
 20
243167.7218188953
 30
0.0
 11
-12421.881549699674
 21
243669.91631221346
 31
0.0
  0
LINE
  5
72
330
17
100
AcDbEntity
  8
0
100
AcDbLine
 10
-16839.544429023164
 20
238226.10105144506
 30
0.0
 11
-11943.033986470638
 21
238719.32250937592
 31
0.0
  0
LINE
  5
73
330
17
100
AcDbEntity
  8
0
100
AcDbLine
 10
108234.02932467943
 20
-12529.4615434792
 30
0.0
 11
117488.029324678
 21
27572.5384565112
 31
0.0
  0
LINE
  5
74
330
17
100
AcDbEntity
  8
0
100
AcDbLine
 10
117488.029324678
 20
27572.5384565112
 30
0.0
 11
80597.02932470929
 21
23856.538456514
 31
0.0
  0
LINE
  5
75
330
17
100
AcDbEntity
  8
0
100
AcDbLine
 10
80597.02932470929
 20
23856.538456514
 30
0.0
 11
84618.0293246753
 21
-16347.4615434746
 31
0.0
  0
LINE
  5
76
330
17
100
AcDbEntity
  8
0
100
AcDbLine
 10
84618.0293246753
 20
-16347.4615434746
 30
0.0
 11
108234.02932467943
 21
-12529.4615434792
 31
0.0
  0
LINE
  5
77
330
17
100
AcDbEntity
  8
0
100
AcDbLine
 10
95282.6428495791
 20
-14623.312896877947
 30
0.0
 11
104723.11008838221
 21
26286.73867114134
 31
0.0
  0
LINE
  5
78
330
17
100
AcDbEntity
  8
0
100
AcDbLine
 10
110084.82932467914
 20
-4509.061543481121
 30
0.0
 11
98246.99836340014
 21
-1777.3452271955189
 31
0.0
  0
LINE
  5
79
330
17
100
AcDbEntity
  8
0
100
AcDbLine
 10
111935.62932467886
 20
3511.338456516958
 30
0.0
 11
100097.79836339985
 21
6243.0547728025595
 31
0.0
  0
LINE
  5
7A
330
17
100
AcDbEntity
  8
0
100
AcDbLine
 10
113786.42932467857
 20
11531.738456515035
 30
0.0
 11
101948.59836339956
 21
14263.454772800636
 31
0.0
  0
LINE
  5
7B
330
17
100
AcDbEntity
  8
0
100
AcDbLine
 10
115637.22932467828
 20
19552.138456513116
 30
0.0
 11
103799.39836339928
 21
22283.854772798717
 31
0.0
  0
LINE
  5
7C
330
17
100
AcDbEntity
  8
0
100
AcDbLine
 10
88615.62315291734
 20
-11802.349091390712
 30
0.0
 11
92595.48354839845
 21
-11401.46103659119
 31
0.0
  0
LINE
  5
7D
330
17
100
AcDbEntity
  8
0
100
AcDbLine
 10
88959.12940842555
 20
24698.845900364602
 30
0.0
 11
92595.48354839845
 21
-11401.46103659119
 31
0.0
  0
LINE
  5
7E
330
17
100
AcDbEntity
  8
0
100
AcDbLine
 10
84979.26901294444
 20
24297.95784556508
 30
0.0
 11
88615.62315291734
 21
-11802.349091390712
 31
0.0
  0
LINE
  5
7F
330
17
100
AcDbEntity
  8
0
100
AcDbLine
 10
90605.5533506579
 20
-11601.905063990951
 30
0.0
 11
90979.96589550212
 21
-15318.926913250036
 31
0.0
  0
LINE
  5
80
330
17
100
AcDbEntity
  8
0
100
AcDbLine
 10
102918.50030483183
 20
18466.50293092832
 30
0.0
 11
89720.81671254463
 21
17137.111148950495
 31
0.0
  0
LINE
  5
81
330
17
100
AcDbEntity
  8
0
100
AcDbLine
 10
99985.74543338256
 20
5757.475931268878
 30
0.0
 11
90958.66999918784
 21
4848.186068877752
 31
0.0
  0
LINE
  5
82
330
17
100
AcDbEntity
  8
0
100
AcDbLine
 10
82899.88075402797
 20
831.4604000394211
 30
0.0
 11
87315.20914708544
 21
1281.207151784436
 31
0.0
  0
LINE
  5
83
330
17
100
AcDbEntity
  8
0
100
AcDbLine
 10
82701.84010683809
 20
2811.5713624087766
 30
0.0
 11
87098.96020701453
 21
3254.489643080409
 31
0.0
  0
LINE
  5
84
330
17
100
AcDbEntity
  8
0
100
AcDbLine
 10
108234.02932467943
 20
67470.5384565208
 30
0.0
 11
117488.029324678
 21
107572.5384565112
 31
0.0
  0
LINE
  5
85
330
17
100
AcDbEntity
  8
0
100
AcDbLine
 10
117488.029324678
 20
107572.5384565112
 30
0.0
 11
80597.02932470929
 21
103856.538456514
 31
0.0
  0
LINE
  5
86
330
17
100
AcDbEntity
  8
0
100
AcDbLine
 10
80597.02932470929
 20
103856.538456514
 30
0.0
 11
84618.0293246753
 21
63652.5384565254
 31
0.0
  0
LINE
  5
87
330
17
100
AcDbEntity
  8
0
100
AcDbLine
 10
84618.0293246753
 20
63652.5384565254
 30
0.0
 11
108234.02932467943
 21
67470.5384565208
 31
0.0
  0
LINE
  5
88
330
17
100
AcDbEntity
  8
0
100
AcDbLine
 10
95282.6428495791
 20
65376.68710312205
 30
0.0
 11
104723.11008838221
 21
106286.73867114134
 31
0.0
  0
LINE
  5
89
330
17
100
AcDbEntity
  8
0
100
AcDbLine
 10
110084.82932467914
 20
75490.93845651888
 30
0.0
 11
98246.99836340014
 21
78222.65477280448
 31
0.0
  0
LINE
  5
8A
330
17
100
AcDbEntity
  8
0
100
AcDbLine
 10
111935.62932467886
 20
83511.33845651695
 30
0.0
 11
100097.79836339985
 21
86243.05477280256
 31
0.0
  0
LINE
  5
8B
330
17
100
AcDbEntity
  8
0
100
AcDbLine
 10
113786.42932467857
 20
91531.73845651504
 30
0.0
 11
101948.59836339956
 21
94263.45477280064
 31
0.0
  0
LINE
  5
8C
330
17
100
AcDbEntity
  8
0
100
AcDbLine
 10
115637.22932467828
 20
99552.13845651312
 30
0.0
 11
103799.39836339928
 21
102283.85477279872
 31
0.0
  0
LINE
  5
8D
330
17
100
AcDbEntity
  8
0
100
AcDbLine
 10
88141.8105867797
 20
75879.88921488202
 30
0.0
 11
92121.67098226081
 21
76280.77726968154
 31
0.0
  0
LINE
  5
8E
330
17
100
AcDbEntity
  8
0
100
AcDbLine
 10
89256.12890428722
 20
104728.76241459903
 30
0.0
 11
92121.67098226081
 21
76280.77726968154
 31
0.0
  0
LINE
  5
8F
330
17
100
AcDbEntity
  8
0
100
AcDbLine
 10
85276.26850880611
 20
104327.8743597995
 30
0.0
 11
88141.8105867797
 21
75879.88921488202
 31
0.0
  0
LINE
  5
90
330
17
100
AcDbEntity
  8
0
100
AcDbLine
 10
90131.74078452025
 20
76080.33324228178
 30
0.0
 11
91275.17146655815
 21
64728.79898742283
 31
0.0
  0
LINE
  5
91
330
17
100
AcDbEntity
  8
0
100
AcDbLine
 10
102918.50030483183
 20
98466.50293092831
 30
0.0
 11
90017.81620840632
 21
97167.02766318491
 31
0.0
  0
LINE
  5
92
330
17
100
AcDbEntity
  8
0
100
AcDbLine
 10
99296.01016252264
 20
82768.52371255025
 30
0.0
 11
91546.79204342868
 21
81987.95136345274
 31
0.0
  0
LINE
  5
93
330
17
100
AcDbEntity
  8
0
100
AcDbLine
 10
82754.08989337049
 20
82289.15146244213
 30
0.0
 11
87467.84975115566
 21
82770.75129341733
 31
0.0
  0
LINE
  5
94
330
17
100
AcDbEntity
  8
0
100
AcDbLine
 10
83118.24474030716
 20
78648.14637257354
 30
0.0
 11
87815.30819834606
 21
79121.27770027066
 31
0.0
  0
LINE
  5
95
330
17
100
AcDbEntity
  8
0
100
AcDbLine
 10
108234.02932467943
 20
147470.5384565208
 30
0.0
 11
117488.029324678
 21
187572.5384565112
 31
0.0
  0
LINE
  5
96
330
17
100
AcDbEntity
  8
0
100
AcDbLine
 10
117488.029324678
 20
187572.5384565112
 30
0.0
 11
80597.02932470929
 21
183856.538456514
 31
0.0
  0
LINE
  5
97
330
17
100
AcDbEntity
  8
0
100
AcDbLine
 10
80597.02932470929
 20
183856.538456514
 30
0.0
 11
84618.0293246753
 21
143652.5384565254
 31
0.0
  0
LINE
  5
98
330
17
100
AcDbEntity
  8
0
100
AcDbLine
 10
84618.0293246753
 20
143652.5384565254
 30
0.0
 11
108234.02932467943
 21
147470.5384565208
 31
0.0
  0
LINE
  5
99
330
17
100
AcDbEntity
  8
0
100
AcDbLine
 10
95282.6428495791
 20
145376.68710312207
 30
0.0
 11
104723.11008838221
 21
186286.73867114133
 31
0.0
  0
LINE
  5
9A
330
17
100
AcDbEntity
  8
0
100
AcDbLine
 10
110084.82932467914
 20
155490.93845651887
 30
0.0
 11
98246.99836340014
 21
158222.65477280447
 31
0.0
  0
LINE
  5
9B
330
17
100
AcDbEntity
  8
0
100
AcDbLine
 10
111935.62932467886
 20
163511.33845651697
 30
0.0
 11
100097.79836339985
 21
166243.05477280257
 31
0.0
  0
LINE
  5
9C
330
17
100
AcDbEntity
  8
0
100
AcDbLine
 10
113786.42932467857
 20
171531.73845651504
 30
0.0
 11
101948.59836339956
 21
174263.45477280064
 31
0.0
  0
LINE
  5
9D
330
17
100
AcDbEntity
  8
0
100
AcDbLine
 10
115637.22932467828
 20
179552.13845651312
 30
0.0
 11
103799.39836339928
 21
182283.85477279872
 31
0.0
  0
LINE
  5
9E
330
17
100
AcDbEntity
  8
0
100
AcDbLine
 10
88376.49227840772
 20
153217.098652533
 30
0.0
 11
92356.35267388883
 21
153617.98670733251
 31
0.0
  0
LINE
  5
9F
330
17
100
AcDbEntity
  8
0
100
AcDbLine
 10
89222.9267799354
 20
184725.41799200024
 30
0.0
 11
92356.35267388883
 21
153617.98670733251
 31
0.0
  0
LINE
  5
A0
330
17
100
AcDbEntity
  8
0
100
AcDbLine
 10
85243.06638445429
 20
184324.5299372007
 30
0.0
 11
88376.49227840772
 21
153217.098652533
 31
0.0
  0
LINE
  5
A1
330
17
100
AcDbEntity
  8
0
100
AcDbLine
 10
90366.42247614828
 20
153417.54267993275
 30
0.0
 11
91242.1698883867
 21
144723.46362049115
 31
0.0
  0
LINE
  5
A2
330
17
100
AcDbEntity
  8
0
100
AcDbLine
 10
102918.50030483183
 20
178466.5029309283
 30
0.0
 11
89984.61408405448
 21
177163.68324058614
 31
0.0
  0
LINE
  5
A3
330
17
100
AcDbEntity
  8
0
100
AcDbLine
 10
99275.60208026746
 20
162680.0857490104
 30
0.0
 11
91522.20373536937
 21
161899.09232921578
 31
0.0
  0
LINE
  5
A4
330
17
100
AcDbEntity
  8
0
100
AcDbLine
 10
82769.41997911592
 20
162135.87348002126
 30
0.0
 11
87448.62215144328
 21
162613.35911362237
 31
0.0
  0
LINE
  5
A5
330
17
100
AcDbEntity
  8
0
100
AcDbLine
 10
83110.9576184233
 20
158721.00671781634
 30
0.0
 11
87774.76743423691
 21
159190.78843356177
 31
0.0
  0
LINE
  5
A6
330
17
100
AcDbEntity
  8
0
100
AcDbLine
 10
108234.02932467943
 20
227470.5384565208
 30
0.0
 11
117488.029324678
 21
267572.5384565112
 31
0.0
  0
LINE
  5
A7
330
17
100
AcDbEntity
  8
0
100
AcDbLine
 10
117488.029324678
 20
267572.5384565112
 30
0.0
 11
80597.02932470929
 21
263856.538456514
 31
0.0
  0
LINE
  5
A8
330
17
100
AcDbEntity
  8
0
100
AcDbLine
 10
80597.02932470929
 20
263856.538456514
 30
0.0
 11
84618.0293246753
 21
223652.5384565254
 31
0.0
  0
LINE
  5
A9
330
17
100
AcDbEntity
  8
0
100
AcDbLine
 10
84618.0293246753
 20
223652.5384565254
 30
0.0
 11
108234.02932467943
 21
227470.5384565208
 31
0.0
  0
LINE
  5
AA
330
17
100
AcDbEntity
  8
0
100
AcDbLine
 10
95282.6428495791
 20
225376.68710312207
 30
0.0
 11
104723.11008838221
 21
266286.7386711413
 31
0.0
  0
LINE
  5
AB
330
17
100
AcDbEntity
  8
0
100
AcDbLine
 10
110084.82932467914
 20
235490.93845651887
 30
0.0
 11
98246.99836340014
 21
238222.65477280447
 31
0.0
  0
LINE
  5
AC
330
17
100
AcDbEntity
  8
0
100
AcDbLine
 10
111935.62932467886
 20
243511.33845651697
 30
0.0
 11
100097.79836339985
 21
246243.05477280257
 31
0.0
  0
LINE
  5
AD
330
17
100
AcDbEntity
  8
0
100
AcDbLine
 10
113786.42932467857
 20
251531.73845651504
 30
0.0
 11
101948.59836339956
 21
254263.45477280064
 31
0.0
  0
LINE
  5
AE
330
17
100
AcDbEntity
  8
0
100
AcDbLine
 10
115637.22932467828
 20
259552.13845651312
 30
0.0
 11
103799.39836339928
 21
262283.8547727987
 31
0.0
  0
LINE
  5
AF
330
17
100
AcDbEntity
  8
0
100
AcDbLine
 10
89144.32526740628
 20
233030.674856544
 30
0.0
 11
93124.1856628874
 21
233431.56291134353
 31
0.0
  0
LINE
  5
B0
330
17
100
AcDbEntity
  8
0
100
AcDbLine
 10
89964.45760999907
 20
264800.1117808517
 30
0.0
 11
93124.1856628874
 21
233431.56291134353
 31
0.0
  0
LINE
  5
B1
330
17
100
AcDbEntity
  8
0
100
AcDbLine
 10
85984.59721451795
 20
264399.22372605215
 30
0.0
 11
89144.32526740628
 21
233030.674856544
 31
0.0
  0
LINE
  5
B2
330
17
100
AcDbEntity
  8
0
100
AcDbLine
 10
91134.25546514684
 20
233231.11888394377
 30
0.0
 11
91979.22175276613
 21
224842.62283535383
 31
0.0
  0
LINE
  5
B3
330
17
100
AcDbEntity
  8
0
100
AcDbLine
 10
102918.50030483183
 20
258466.5029309283
 30
0.0
 11
90726.14491411817
 21
257238.37702943754
 31
0.0
  0
LINE
  5
B4
330
17
100
AcDbEntity
  8
0
100
AcDbLine
 10
99785.08390257195
 20
244887.9137194073
 30
0.0
 11
92048.69315356322
 21
244108.63346071768
 31
0.0
  0
LINE
  5
B5
330
17
100
AcDbEntity
  8
0
100
AcDbLine
 10
82470.88793055738
 20
245120.7485062201
 30
0.0
 11
87885.41115910248
 21
245673.20937953613
 31
0.0
  0
LINE
  5
B6
330
17
100
AcDbEntity
  8
0
100
AcDbLine
 10
83257.87976549233
 20
237252.0044793653
 30
0.0
 11
88664.25910904746
 21
237796.58461112247
 31
0.0
  0
LINE
  5
B7
330
17
100
AcDbEntity
  8
0
100
AcDbLine
 10
208234.02932467943
 20
-12529.4615434792
 30
0.0
 11
217488.029324678
 21
27572.5384565112
 31
0.0
  0
LINE
  5
B8
330
17
100
AcDbEntity
  8
0
100
AcDbLine
 10
217488.029324678
 20
27572.5384565112
 30
0.0
 11
180597.0293247093
 21
23856.538456514
 31
0.0
  0
LINE
  5
B9
330
17
100
AcDbEntity
  8
0
100
AcDbLine
 10
180597.0293247093
 20
23856.538456514
 30
0.0
 11
184618.0293246753
 21
-16347.4615434746
 31
0.0
  0
LINE
  5
BA
330
17
100
AcDbEntity
  8
0
100
AcDbLine
 10
184618.0293246753
 20
-16347.4615434746
 30
0.0
 11
208234.02932467943
 21
-12529.4615434792
 31
0.0
  0
LINE
  5
BB
330
17
100
AcDbEntity
  8
0
100
AcDbLine
 10
195282.6428495791
 20
-14623.312896877947
 30
0.0
 11
204723.1100883822
 21
26286.73867114134
 31
0.0
  0
LINE
  5
BC
330
17
100
AcDbEntity
  8
0
100
AcDbLine
 10
210084.82932467916
 20
-4509.061543481121
 30
0.0
 11
198246.99836340014
 21
-1777.3452271955189
 31
0.0
  0
LINE
  5
BD
330
17
100
AcDbEntity
  8
0
100
AcDbLine
 10
211935.62932467886
 20
3511.338456516958
 30
0.0
 11
200097.79836339987
 21
6243.0547728025595
 31
0.0
  0
LINE
  5
BE
330
17
100
AcDbEntity
  8
0
100
AcDbLine
 10
213786.42932467858
 20
11531.738456515035
 30
0.0
 11
201948.59836339956
 21
14263.454772800636
 31
0.0
  0
LINE
  5
BF
330
17
100
AcDbEntity
  8
0
100
AcDbLine
 10
215637.22932467828
 20
19552.138456513116
 30
0.0
 11
203799.3983633993
 21
22283.854772798717
 31
0.0
  0
LINE
  5
C0
330
17
100
AcDbEntity
  8
0
100
AcDbLine
 10
192060.455158672
 20
-7727.564187462718
 30
0.0
 11
196040.31555415312
 21
-7326.676132663197
 31
0.0
  0
LINE
  5
C1
330
17
100
AcDbEntity
  8
0
100
AcDbLine
 10
192775.68694403674
 20
25083.284592791824
 30
0.0
 11
196040.31555415312
 21
-7326.676132663197
 31
0.0
  0
LINE
  5
C2
330
17
100
AcDbEntity
  8
0
100
AcDbLine
 10
188795.82654855563
 20
24682.396537992303
 30
0.0
 11
192060.455158672
 21
-7727.564187462718
 31
0.0
  0
LINE
  5
C3
330
17
100
AcDbEntity
  8
0
100
AcDbLine
 10
194050.38535641256
 20
-7527.120160062957
 30
0.0
 11
194773.47080869906
 21
-14705.63076832431
 31
0.0
  0
LINE
  5
C4
330
17
100
AcDbEntity
  8
0
100
AcDbLine
 10
202401.18879391995
 20
16224.745181783519
 30
0.0
 11
193755.72040460914
 21
15353.894282250243
 31
0.0
  0
LINE
  5
C5
330
17
100
AcDbEntity
  8
0
100
AcDbLine
 10
181829.3587216548
 20
11535.083327142795
 30
0.0
 11
190041.764725223
 21
12372.672590443093
 31
0.0
  0
LINE
  5
C6
330
17
100
AcDbEntity
  8
0
100
AcDbLine
 10
183573.7576090898
 20
-5906.302614416694
 30
0.0
 11
191793.59945294907
 21
-5078.3247257234025
 31
0.0
  0
LINE
  5
C7
330
17
100
AcDbEntity
  8
0
100
AcDbLine
 10
208234.02932467943
 20
67470.5384565208
 30
0.0
 11
217488.029324678
 21
107572.5384565112
 31
0.0
  0
LINE
  5
C8
330
17
100
AcDbEntity
  8
0
100
AcDbLine
 10
217488.029324678
 20
107572.5384565112
 30
0.0
 11
180597.0293247093
 21
103856.538456514
 31
0.0
  0
LINE
  5
C9
330
17
100
AcDbEntity
  8
0
100
AcDbLine
 10
180597.0293247093
 20
103856.538456514
 30
0.0
 11
184618.0293246753
 21
63652.5384565254
 31
0.0
  0
LINE
  5
CA
330
17
100
AcDbEntity
  8
0
100
AcDbLine
 10
184618.0293246753
 20
63652.5384565254
 30
0.0
 11
208234.02932467943
 21
67470.5384565208
 31
0.0
  0
LINE
  5
CB
330
17
100
AcDbEntity
  8
0
100
AcDbLine
 10
195282.6428495791
 20
65376.68710312205
 30
0.0
 11
204723.1100883822
 21
106286.73867114134
 31
0.0
  0
LINE
  5
CC
330
17
100
AcDbEntity
  8
0
100
AcDbLine
 10
210084.82932467916
 20
75490.93845651888
 30
0.0
 11
198246.99836340014
 21
78222.65477280448
 31
0.0
  0
LINE
  5
CD
330
17
100
AcDbEntity
  8
0
100
AcDbLine
 10
211935.62932467886
 20
83511.33845651695
 30
0.0
 11
200097.79836339987
 21
86243.05477280256
 31
0.0
  0
LINE
  5
CE
330
17
100
AcDbEntity
  8
0
100
AcDbLine
 10
213786.42932467858
 20
91531.73845651504
 30
0.0
 11
201948.59836339956
 21
94263.45477280064
 31
0.0
  0
LINE
  5
CF
330
17
100
AcDbEntity
  8
0
100
AcDbLine
 10
215637.22932467828
 20
99552.13845651312
 30
0.0
 11
203799.3983633993
 21
102283.85477279872
 31
0.0
  0
LINE
  5
D0
330
17
100
AcDbEntity
  8
0
100
AcDbLine
 10
191970.72239645044
 20
71302.99933889057
 30
0.0
 11
195950.58279193155
 21
71703.88739369009
 31
0.0
  0
LINE
  5
D1
330
17
100
AcDbEntity
  8
0
100
AcDbLine
 10
192590.1858080301
 20
105064.59921637479
 30
0.0
 11
195950.58279193155
 21
71703.88739369009
 31
0.0
  0
LINE
  5
D2
330
17
100
AcDbEntity
  8
0
100
AcDbLine
 10
188610.325412549
 20
104663.71116157527
 30
0.0
 11
191970.72239645044
 21
71302.99933889057
 31
0.0
  0
LINE
  5
D3
330
17
100
AcDbEntity
  8
0
100
AcDbLine
 10
193960.652594191
 20
71503.44336629033
 30
0.0
 11
194589.09012944062
 21
65264.56039726649
 31
0.0
  0
LINE
  5
D4
330
17
100
AcDbEntity
  8
0
100
AcDbLine
 10
202446.21187563578
 20
96419.85168956037
 30
0.0
 11
193551.2159859827
 21
95523.86609074348
 31
0.0
  0
LINE
  5
D5
330
17
100
AcDbEntity
  8
0
100
AcDbLine
 10
181857.79133205468
 20
91250.79964931984
 30
0.0
 11
189885.12395577342
 21
92069.22102582616
 31
0.0
  0
LINE
  5
D6
330
17
100
AcDbEntity
  8
0
100
AcDbLine
 10
183550.77819309203
 20
74323.45725645678
 30
0.0
 11
191584.95644302721
 21
75132.733404481
 31
0.0
  0
LINE
  5
D7
330
17
100
AcDbEntity
  8
0
100
AcDbLine
 10
208234.02932467943
 20
147470.5384565208
 30
0.0
 11
217488.029324678
 21
187572.5384565112
 31
0.0
  0
LINE
  5
D8
330
17
100
AcDbEntity
  8
0
100
AcDbLine
 10
217488.029324678
 20
187572.5384565112
 30
0.0
 11
180597.0293247093
 21
183856.538456514
 31
0.0
  0
LINE
  5
D9
330
17
100
AcDbEntity
  8
0
100
AcDbLine
 10
180597.0293247093
 20
183856.538456514
 30
0.0
 11
184618.0293246753
 21
143652.5384565254
 31
0.0
  0
LINE
  5
DA
330
17
100
AcDbEntity
  8
0
100
AcDbLine
 10
184618.0293246753
 20
143652.5384565254
 30
0.0
 11
208234.02932467943
 21
147470.5384565208
 31
0.0
  0
LINE
  5
DB
330
17
100
AcDbEntity
  8
0
100
AcDbLine
 10
195282.6428495791
 20
145376.68710312207
 30
0.0
 11
204723.1100883822
 21
186286.73867114133
 31
0.0
  0
LINE
  5
DC
330
17
100
AcDbEntity
  8
0
100
AcDbLine
 10
210084.82932467916
 20
155490.93845651887
 30
0.0
 11
198246.99836340014
 21
158222.65477280447
 31
0.0
  0
LINE
  5
DD
330
17
100
AcDbEntity
  8
0
100
AcDbLine
 10
211935.62932467886
 20
163511.33845651697
 30
0.0
 11
200097.79836339987
 21
166243.05477280257
 31
0.0
  0
LINE
  5
DE
330
17
100
AcDbEntity
  8
0
100
AcDbLine
 10
213786.42932467858
 20
171531.73845651504
 30
0.0
 11
201948.59836339956
 21
174263.45477280064
 31
0.0
  0
LINE
  5
DF
330
17
100
AcDbEntity
  8
0
100
AcDbLine
 10
215637.22932467828
 20
179552.13845651312
 30
0.0
 11
203799.3983633993
 21
182283.85477279872
 31
0.0
  0
LINE
  5
E0
330
17
100
AcDbEntity
  8
0
100
AcDbLine
 10
191648.04878858128
 20
150098.0328661663
 30
0.0
 11
195627.9091840624
 21
150498.92092096581
 31
0.0
  0
LINE
  5
E1
330
17
100
AcDbEntity
  8
0
100
AcDbLine
 10
192150.5971490368
 20
185020.31981335455
 30
0.0
 11
195627.9091840624
 21
150498.92092096581
 31
0.0
  0
LINE
  5
E2
330
17
100
AcDbEntity
  8
0
100
AcDbLine
 10
188170.73675355568
 20
184619.43175855503
 30
0.0
 11
191648.04878858128
 21
150098.0328661663
 31
0.0
  0
LINE
  5
E3
330
17
100
AcDbEntity
  8
0
100
AcDbLine
 10
193637.97898632183
 20
150298.47689356605
 30
0.0
 11
194152.15665677135
 21
145193.9213390581
 31
0.0
  0
LINE
  5
E4
330
17
100
AcDbEntity
  8
0
100
AcDbLine
 10
202546.23956310944
 20
176853.31941411932
 30
0.0
 11
193069.40777331992
 21
175898.72596501626
 31
0.0
  0
LINE
  5
E5
330
17
100
AcDbEntity
  8
0
100
AcDbLine
 10
181930.7751308028
 20
170521.07056578496
 30
0.0
 11
189519.76832071936
 21
171294.4850518293
 31
0.0
  0
LINE
  5
E6
330
17
100
AcDbEntity
  8
0
100
AcDbLine
 10
183491.73377191968
 20
154913.8133641
 30
0.0
 11
191085.90593564324
 21
155678.76806200462
 31
0.0
  0
LINE
  5
E7
330
17
100
AcDbEntity
  8
0
100
AcDbLine
 10
208234.02932467943
 20
227470.5384565208
 30
0.0
 11
217488.029324678
 21
267572.5384565112
 31
0.0
  0
LINE
  5
E8
330
17
100
AcDbEntity
  8
0
100
AcDbLine
 10
217488.029324678
 20
267572.5384565112
 30
0.0
 11
180597.0293247093
 21
263856.538456514
 31
0.0
  0
LINE
  5
E9
330
17
100
AcDbEntity
  8
0
100
AcDbLine
 10
180597.0293247093
 20
263856.538456514
 30
0.0
 11
184618.0293246753
 21
223652.5384565254
 31
0.0
  0
LINE
  5
EA
330
17
100
AcDbEntity
  8
0
100
AcDbLine
 10
184618.0293246753
 20
223652.5384565254
 30
0.0
 11
208234.02932467943
 21
227470.5384565208
 31
0.0
  0
LINE
  5
EB
330
17
100
AcDbEntity
  8
0
100
AcDbLine
 10
195282.6428495791
 20
225376.68710312207
 30
0.0
 11
204723.1100883822
 21
266286.7386711413
 31
0.0
  0
LINE
  5
EC
330
17
100
AcDbEntity
  8
0
100
AcDbLine
 10
210084.82932467916
 20
235490.93845651887
 30
0.0
 11
198246.99836340014
 21
238222.65477280447
 31
0.0
  0
LINE
  5
ED
330
17
100
AcDbEntity
  8
0
100
AcDbLine
 10
211935.62932467886
 20
243511.33845651697
 30
0.0
 11
200097.79836339987
 21
246243.05477280257
 31
0.0
  0
LINE
  5
EE
330
17
100
AcDbEntity
  8
0
100
AcDbLine
 10
213786.42932467858
 20
251531.73845651504
 30
0.0
 11
201948.59836339956
 21
254263.45477280064
 31
0.0
  0
LINE
  5
EF
330
17
100
AcDbEntity
  8
0
100
AcDbLine
 10
215637.22932467828
 20
259552.13845651312
 30
0.0
 11
203799.3983633993
 21
262283.8547727987
 31
0.0
  0
LINE
  5
F0
330
17
100
AcDbEntity
  8
0
100
AcDbLine
 10
191944.75772983528
 20
228364.66545541518
 30
0.0
 11
195924.6181253164
 21
228765.5535102147
 31
0.0
  0
LINE
  5
F1
330
17
100
AcDbEntity
  8
0
100
AcDbLine
 10
192271.47891011732
 20
265032.4961334374
 30
0.0
 11
195924.6181253164
 21
228765.5535102147
 31
0.0
  0
LINE
  5
F2
330
17
100
AcDbEntity
  8
0
100
AcDbLine
 10
188291.6185146362
 20
264631.60807863786
 30
0.0
 11
191944.75772983528
 21
228364.66545541518
 31
0.0
  0
LINE
  5
F3
330
17
100
AcDbEntity
  8
0
100
AcDbLine
 10
193934.68792757584
 20
228565.10948281494
 30
0.0
 11
194272.30827253926
 21
225213.34625729156
 31
0.0
  0
LINE
  5
F4
330
17
100
AcDbEntity
  8
0
100
AcDbLine
 10
202519.6199324194
 20
256737.96384572383
 30
0.0
 11
193201.52511281843
 21
255799.3598406917
 31
0.0
  0
LINE
  5
F5
330
17
100
AcDbEntity
  8
0
100
AcDbLine
 10
181909.82069994457
 20
250730.58360687716
 30
0.0
 11
189619.0158786155
 21
251515.80416050955
 31
0.0
  0
LINE
  5
F6
330
17
100
AcDbEntity
  8
0
100
AcDbLine
 10
183508.65577714838
 20
234744.61856225465
 30
0.0
 11
191223.8293357033
 21
235521.76163085114
 31
0.0
  0
LINE
  5
F7
330
17
100
AcDbEntity
  8
0
100
AcDbLine
 10
308234.0293246794
 20
-12529.4615434792
 30
0.0
 11
317488.029324678
 21
27572.5384565112
 31
0.0
  0
LINE
  5
F8
330
17
100
AcDbEntity
  8
0
100
AcDbLine
 10
317488.029324678
 20
27572.5384565112
 30
0.0
 11
280597.0293247093
 21
23856.538456514
 31
0.0
  0
LINE
  5
F9
330
17
100
AcDbEntity
  8
0
100
AcDbLine
 10
280597.0293247093
 20
23856.538456514
 30
0.0
 11
284618.0293246753
 21
-16347.4615434746
 31
0.0
  0
LINE
  5
FA
330
17
100
AcDbEntity
  8
0
100
AcDbLine
 10
284618.0293246753
 20
-16347.4615434746
 30
0.0
 11
308234.0293246794
 21
-12529.4615434792
 31
0.0
  0
LINE
  5
FB
330
17
100
AcDbEntity
  8
0
100
AcDbLine
 10
295282.6428495791
 20
-14623.312896877947
 30
0.0
 11
304723.1100883822
 21
26286.73867114134
 31
0.0
  0
LINE
  5
FC
330
17
100
AcDbEntity
  8
0
100
AcDbLine
 10
310084.82932467916
 20
-4509.061543481121
 30
0.0
 11
298246.9983634001
 21
-1777.3452271955189
 31
0.0
  0
LINE
  5
FD
330
17
100
AcDbEntity
  8
0
100
AcDbLine
 10
311935.62932467886
 20
3511.338456516958
 30
0.0
 11
300097.79836339987
 21
6243.0547728025595
 31
0.0
  0
LINE
  5
FE
330
17
100
AcDbEntity
  8
0
100
AcDbLine
 10
313786.42932467855
 20
11531.738456515035
 30
0.0
 11
301948.59836339956
 21
14263.454772800636
 31
0.0
  0
LINE
  5
FF
330
17
100
AcDbEntity
  8
0
100
AcDbLine
 10
315637.2293246783
 20
19552.138456513116
 30
0.0
 11
303799.39836339926
 21
22283.854772798717
 31
0.0
  0
LINE
  5
100
330
17
100
AcDbEntity
  8
0
100
AcDbLine
 10
291256.85575414036
 20
-1815.9951169285778
 30
0.0
 11
295236.71614962147
 21
-1415.1070621290564
 31
0.0
  0
LINE
  5
101
330
17
100
AcDbEntity
  8
0
100
AcDbLine
 10
292569.64558691846
 20
25062.53021684507
 30
0.0
 11
295236.71614962147
 21
-1415.1070621290564
 31
0.0
  0
LINE
  5
102
330
17
100
AcDbEntity
  8
0
100
AcDbLine
 10
288589.78519143735
 20
24661.642162045548
 30
0.0
 11
291256.85575414036
 21
-1815.9951169285778
 31
0.0
  0
LINE
  5
103
330
17
100
AcDbEntity
  8
0
100
AcDbLine
 10
293246.7859518809
 20
-1615.551089528817
 30
0.0
 11
294568.6739745738
 21
-14738.740283597393
 31
0.0
  0
LINE
  5
104
330
17
100
AcDbEntity
  8
0
100
AcDbLine
 10
302451.09006235347
 20
16440.991201528617
 30
0.0
 11
293528.61678629083
 21
15542.237828243748
 31
0.0
  0
LINE
  5
105
330
17
100
AcDbEntity
  8
0
100
AcDbLine
 10
301710.0146853314
 20
13229.557792263653
 30
0.0
 11
293841.40889859025
 21
12436.959621882457
 31
0.0
  0
LINE
  5
106
330
17
100
AcDbEntity
  8
0
100
AcDbLine
 10
281861.2805285337
 20
11215.912890990214
 30
0.0
 11
289869.50219621725
 21
12034.975577288504
 31
0.0
  0
LINE
  5
107
330
17
100
AcDbEntity
  8
0
100
AcDbLine
 10
283598.565617221
 20
-6154.345678060879
 30
0.0
 11
293602.4716872448
 21
-5146.660471473575
 31
0.0
  0
LINE
  5
108
330
17
100
AcDbEntity
  8
0
100
AcDbLine
 10
308234.0293246794
 20
67470.5384565208
 30
0.0
 11
317488.029324678
 21
107572.5384565112
 31
0.0
  0
LINE
  5
109
330
17
100
AcDbEntity
  8
0
100
AcDbLine
 10
317488.029324678
 20
107572.5384565112
 30
0.0
 11
280597.0293247093
 21
103856.538456514
 31
0.0
  0
LINE
  5
10A
330
17
100
AcDbEntity
  8
0
100
AcDbLine
 10
280597.0293247093
 20
103856.538456514
 30
0.0
 11
284618.0293246753
 21
63652.5384565254
 31
0.0
  0
LINE
  5
10B
330
17
100
AcDbEntity
  8
0
100
AcDbLine
 10
284618.0293246753
 20
63652.5384565254
 30
0.0
 11
308234.0293246794
 21
67470.5384565208
 31
0.0
  0
LINE
  5
10C
330
17
100
AcDbEntity
  8
0
100
AcDbLine
 10
295282.6428495791
 20
65376.68710312205
 30
0.0
 11
304723.1100883822
 21
106286.73867114134
 31
0.0
  0
LINE
  5
10D
330
17
100
AcDbEntity
  8
0
100
AcDbLine
 10
310084.82932467916
 20
75490.93845651888
 30
0.0
 11
298246.9983634001
 21
78222.65477280448
 31
0.0
  0
LINE
  5
10E
330
17
100
AcDbEntity
  8
0
100
AcDbLine
 10
311935.62932467886
 20
83511.33845651695
 30
0.0
 11
300097.79836339987
 21
86243.05477280256
 31
0.0
  0
LINE
  5
10F
330
17
100
AcDbEntity
  8
0
100
AcDbLine
 10
313786.42932467855
 20
91531.73845651504
 30
0.0
 11
301948.59836339956
 21
94263.45477280064
 31
0.0
  0
LINE
  5
110
330
17
100
AcDbEntity
  8
0
100
AcDbLine
 10
315637.2293246783
 20
99552.13845651312
 30
0.0
 11
303799.39836339926
 21
102283.85477279872
 31
0.0
  0
LINE
  5
111
330
17
100
AcDbEntity
  8
0
100
AcDbLine
 10
289910.8038497171
 20
80850.34002624221
 30
0.0
 11
293890.6642451982
 21
81251.22808104173
 31
0.0
  0
LINE
  5
112
330
17
100
AcDbEntity
  8
0
100
AcDbLine
 10
291502.9940596692
 20
104955.08728834601
 30
0.0
 11
293890.6642451982
 21
81251.22808104173
 31
0.0
  0
LINE
  5
113
330
17
100
AcDbEntity
  8
0
100
AcDbLine
 10
287523.1336641881
 20
104554.19923354649
 30
0.0
 11
289910.8038497171
 21
80850.34002624221
 31
0.0
  0
LINE
  5
114
330
17
100
AcDbEntity
  8
0
100
AcDbLine
 10
291900.73404745763
 20
81050.78405364197
 30
0.0
 11
293508.46519440116
 21
65089.85570544844
 31
0.0
  0
LINE
  5
115
330
17
100
AcDbEntity
  8
0
100
AcDbLine
 10
302678.5628253238
 20
97426.73928242704
 30
0.0
 11
292365.9538569275
 21
96387.95868752411
 31
0.0
  0
LINE
  5
116
330
17
100
AcDbEntity
  8
0
100
AcDbLine
 10
301383.6708492209
 20
91815.35414889848
 30
0.0
 11
292912.5001448806
 21
90962.06011140069
 31
0.0
  0
LINE
  5
117
330
17
100
AcDbEntity
  8
0
100
AcDbLine
 10
282055.6055670129
 20
89272.95247142247
 30
0.0
 11
289002.8426197404
 21
89984.78061874509
 31
0.0
  0
LINE
  5
118
330
17
100
AcDbEntity
  8
0
100
AcDbLine
 10
283483.67296694237
 20
74994.40938581375
 30
0.0
 11
292420.1152514466
 21
75894.56984579643
 31
0.0
  0
LINE
  5
119
330
17
100
AcDbEntity
  8
0
100
AcDbLine
 10
308234.0293246794
 20
147470.5384565208
 30
0.0
 11
317488.029324678
 21
187572.5384565112
 31
0.0
  0
LINE
  5
11A
330
17
100
AcDbEntity
  8
0
100
AcDbLine
 10
317488.029324678
 20
187572.5384565112
 30
0.0
 11
280597.0293247093
 21
183856.538456514
 31
0.0
  0
LINE
  5
11B
330
17
100
AcDbEntity
  8
0
100
AcDbLine
 10
280597.0293247093
 20
183856.538456514
 30
0.0
 11
284618.0293246753
 21
143652.5384565254
 31
0.0
  0
LINE
  5
11C
330
17
100
AcDbEntity
  8
0
100
AcDbLine
 10
284618.0293246753
 20
143652.5384565254
 30
0.0
 11
308234.0293246794
 21
147470.5384565208
 31
0.0
  0
LINE
  5
11D
330
17
100
AcDbEntity
  8
0
100
AcDbLine
 10
295282.6428495791
 20
145376.68710312207
 30
0.0
 11
304723.1100883822
 21
186286.73867114133
 31
0.0
  0
LINE
  5
11E
330
17
100
AcDbEntity
  8
0
100
AcDbLine
 10
310084.82932467916
 20
155490.93845651887
 30
0.0
 11
298246.9983634001
 21
158222.65477280447
 31
0.0
  0
LINE
  5
11F
330
17
100
AcDbEntity
  8
0
100
AcDbLine
 10
311935.62932467886
 20
163511.33845651697
 30
0.0
 11
300097.79836339987
 21
166243.05477280257
 31
0.0
  0
LINE
  5
120
330
17
100
AcDbEntity
  8
0
100
AcDbLine
 10
313786.42932467855
 20
171531.73845651504
 30
0.0
 11
301948.59836339956
 21
174263.45477280064
 31
0.0
  0
LINE
  5
121
330
17
100
AcDbEntity
  8
0
100
AcDbLine
 10
315637.2293246783
 20
179552.13845651312
 30
0.0
 11
303799.39836339926
 21
182283.85477279872
 31
0.0
  0
LINE
  5
122
330
17
100
AcDbEntity
  8
0
100
AcDbLine
 10
289726.90206665656
 20
164580.54388583198
 30
0.0
 11
293706.7624621377
 21
164981.4319406315
 31
0.0
  0
LINE
  5
123
330
17
100
AcDbEntity
  8
0
100
AcDbLine
 10
291692.905721118
 20
184974.21693335276
 30
0.0
 11
293706.7624621377
 21
164981.4319406315
 31
0.0
  0
LINE
  5
124
330
17
100
AcDbEntity
  8
0
100
AcDbLine
 10
287713.04532563686
 20
184573.32887855323
 30
0.0
 11
289726.90206665656
 21
164580.54388583198
 31
0.0
  0
LINE
  5
125
330
17
100
AcDbEntity
  8
0
100
AcDbLine
 10
291716.8322643971
 20
164780.98791323174
 30
0.0
 11
293697.2297588174
 21
145120.37328280872
 31
0.0
  0
LINE
  5
126
330
17
100
AcDbEntity
  8
0
100
AcDbLine
 10
302641.45590557926
 20
177265.93728376762
 30
0.0
 11
292571.5275578499
 21
176251.6017076063
 31
0.0
  0
LINE
  5
127
330
17
100
AcDbEntity
  8
0
100
AcDbLine
 10
301661.3611113824
 20
173018.71862838813
 30
0.0
 11
292985.2046687565
 21
172144.77654655787
 31
0.0
  0
LINE
  5
128
330
17
100
AcDbEntity
  8
0
100
AcDbLine
 10
282017.0045906613
 20
169658.90463587214
 30
0.0
 11
289155.0977302099
 21
170392.63128994015
 31
0.0
  0
LINE
  5
129
330
17
100
AcDbEntity
  8
0
100
AcDbLine
 10
283506.14956807595
 20
154769.6769132989
 30
0.0
 11
292632.6624171887
 21
155688.98302447252
 31
0.0
  0
LINE
  5
12A
330
17
100
AcDbEntity
  8
0
100
AcDbLine
 10
308234.0293246794
 20
227470.5384565208
 30
0.0
 11
317488.029324678
 21
267572.5384565112
 31
0.0
  0
LINE
  5
12B
330
17
100
AcDbEntity
  8
0
100
AcDbLine
 10
317488.029324678
 20
267572.5384565112
 30
0.0
 11
280597.0293247093
 21
263856.538456514
 31
0.0
  0
LINE
  5
12C
330
17
100
AcDbEntity
  8
0
100
AcDbLine
 10
280597.0293247093
 20
263856.538456514
 30
0.0
 11
284618.0293246753
 21
223652.5384565254
 31
0.0
  0
LINE
  5
12D
330
17
100
AcDbEntity
  8
0
100
AcDbLine
 10
284618.0293246753
 20
223652.5384565254
 30
0.0
 11
308234.0293246794
 21
227470.5384565208
 31
0.0
  0
LINE
  5
12E
330
17
100
AcDbEntity
  8
0
100
AcDbLine
 10
295282.6428495791
 20
225376.68710312207
 30
0.0
 11
304723.1100883822
 21
266286.7386711413
 31
0.0
  0
LINE
  5
12F
330
17
100
AcDbEntity
  8
0
100
AcDbLine
 10
310084.82932467916
 20
235490.93845651887
 30
0.0
 11
298246.9983634001
 21
238222.65477280447
 31
0.0
  0
LINE
  5
130
330
17
100
AcDbEntity
  8
0
100
AcDbLine
 10
311935.62932467886
 20
243511.33845651697
 30
0.0
 11
300097.79836339987
 21
246243.05477280257
 31
0.0
  0
LINE
  5
131
330
17
100
AcDbEntity
  8
0
100
AcDbLine
 10
313786.42932467855
 20
251531.73845651504
 30
0.0
 11
301948.59836339956
 21
254263.45477280064
 31
0.0
  0
LINE
  5
132
330
17
100
AcDbEntity
  8
0
100
AcDbLine
 10
315637.2293246783
 20
259552.13845651312
 30
0.0
 11
303799.39836339926
 21
262283.8547727987
 31
0.0
  0
LINE
  5
133
330
17
100
AcDbEntity
  8
0
100
AcDbLine
 10
289477.9140658374
 20
244479.25149303128
 30
0.0
 11
293457.7744613185
 21
244880.1395478308
 31
0.0
  0
LINE
  5
134
330
17
100
AcDbEntity
  8
0
100
AcDbLine
 10
291436.31805369473
 20
264948.37106926274
 30
0.0
 11
293457.7744613185
 21
244880.1395478308
 31
0.0
  0
LINE
  5
135
330
17
100
AcDbEntity
  8
0
100
AcDbLine
 10
287456.4576582136
 20
264547.4830144632
 30
0.0
 11
289477.9140658374
 21
244479.25149303128
 31
0.0
  0
LINE
  5
136
330
17
100
AcDbEntity
  8
0
100
AcDbLine
 10
291467.84426357795
 20
244679.69552043104
 30
0.0
 11
293442.1919222452
 21
225079.14130194695
 31
0.0
  0
LINE
  5
137
330
17
100
AcDbEntity
  8
0
100
AcDbLine
 10
302691.27886559995
 20
257481.8439557742
 30
0.0
 11
292293.91068153764
 21
256434.52563499194
 31
0.0
  0
LINE
  5
138
330
17
100
AcDbEntity
  8
0
100
AcDbLine
 10
301291.7441327125
 20
251416.9917990583
 30
0.0
 11
292884.6244454943
 21
250570.14956768192
 31
0.0
  0
LINE
  5
139
330
17
100
AcDbEntity
  8
0
100
AcDbLine
 10
282069.9676620945
 20
249129.35295123706
 30
0.0
 11
288952.93086185714
 21
249836.80030360594
 31
0.0
  0
LINE
  5
13A
330
17
100
AcDbEntity
  8
0
100
AcDbLine
 10
283475.54750284064
 20
235075.65190228925
 30
0.0
 11
292345.2563366566
 21
235969.09035683
 31
0.0
  0
LINE
  5
13B
330
17
100
AcDbEntity
  8
0
100
AcDbLine
 10
408234.0293246794
 20
-12529.4615434792
 30
0.0
 11
417488.029324678
 21
27572.5384565112
 31
0.0
  0
LINE
  5
13C
330
17
100
AcDbEntity
  8
0
100
AcDbLine
 10
417488.029324678
 20
27572.5384565112
 30
0.0
 11
380597.0293247093
 21
23856.538456514
 31
0.0
  0
LINE
  5
13D
330
17
100
AcDbEntity
  8
0
100
AcDbLine
 10
380597.0293247093
 20
23856.538456514
 30
0.0
 11
384618.0293246753
 21
-16347.4615434746
 31
0.0
  0
LINE
  5
13E
330
17
100
AcDbEntity
  8
0
100
AcDbLine
 10
384618.0293246753
 20
-16347.4615434746
 30
0.0
 11
408234.0293246794
 21
-12529.4615434792
 31
0.0
  0
LINE
  5
13F
330
17
100
AcDbEntity
  8
0
100
AcDbLine
 10
395282.6428495791
 20
-14623.312896877947
 30
0.0
 11
404723.1100883822
 21
26286.73867114134
 31
0.0
  0
LINE
  5
140
330
17
100
AcDbEntity
  8
0
100
AcDbLine
 10
410084.82932467916
 20
-4509.061543481121
 30
0.0
 11
398246.9983634001
 21
-1777.3452271955189
 31
0.0
  0
LINE
  5
141
330
17
100
AcDbEntity
  8
0
100
AcDbLine
 10
411935.62932467886
 20
3511.338456516958
 30
0.0
 11
400097.79836339987
 21
6243.0547728025595
 31
0.0
  0
LINE
  5
142
330
17
100
AcDbEntity
  8
0
100
AcDbLine
 10
413786.42932467855
 20
11531.738456515035
 30
0.0
 11
401948.59836339956
 21
14263.454772800636
 31
0.0
  0
LINE
  5
143
330
17
100
AcDbEntity
  8
0
100
AcDbLine
 10
415637.2293246783
 20
19552.138456513116
 30
0.0
 11
403799.39836339926
 21
22283.854772798717
 31
0.0
  0
LINE
  5
144
330
17
100
AcDbEntity
  8
0
100
AcDbLine
 10
387753.3470351731
 20
1126.7236334678455
 30
0.0
 11
391733.2074306542
 21
1527.6116882673668
 31
0.0
  0
LINE
  5
145
330
17
100
AcDbEntity
  8
0
100
AcDbLine
 10
389394.76797291567
 20
24742.72741362381
 30
0.0
 11
391733.2074306542
 21
1527.6116882673668
 31
0.0
  0
LINE
  5
146
330
17
100
AcDbEntity
  8
0
100
AcDbLine
 10
385414.90757743455
 20
24341.839358824287
 30
0.0
 11
387753.3470351731
 21
1126.7236334678455
 31
0.0
  0
LINE
  5
147
330
17
100
AcDbEntity
  8
0
100
AcDbLine
 10
389743.27723291365
 20
1327.1676608676064
 30
0.0
 11
391412.97313287546
 21
-15248.922609714762
 31
0.0
  0
LINE
  5
148
330
17
100
AcDbEntity
  8
0
100
AcDbLine
 10
402918.50030483183
 20
18466.502930928313
 30
0.0
 11
390156.4552770348
 21
17180.9926622097
 31
0.0
  0
LINE
  5
149
330
17
100
AcDbEntity
  8
0
100
AcDbLine
 10
399383.4485911258
 20
3147.436168120037
 30
0.0
 11
391648.5252160755
 21
2368.303716798857
 31
0.0
  0
LINE
  5
14A
330
17
100
AcDbEntity
  8
0
100
AcDbLine
 10
382692.28480017494
 20
2907.110170936063
 30
0.0
 11
387547.555467729
 21
3404.7713966834326
 31
0.0
  0
LINE
  5
14B
330
17
100
AcDbEntity
  8
0
100
AcDbLine
 10
383147.9912365002
 20
-1649.2742026456472
 30
0.0
 11
389973.8342601526
 21
-961.7126652545618
 31
0.0
  0
LINE
  5
14C
330
17
100
AcDbEntity
  8
0
100
AcDbLine
 10
408234.0293246794
 20
67470.5384565208
 30
0.0
 11
417488.029324678
 21
107572.5384565112
 31
0.0
  0
LINE
  5
14D
330
17
100
AcDbEntity
  8
0
100
AcDbLine
 10
417488.029324678
 20
107572.5384565112
 30
0.0
 11
380597.0293247093
 21
103856.538456514
 31
0.0
  0
LINE
  5
14E
330
17
100
AcDbEntity
  8
0
100
AcDbLine
 10
380597.0293247093
 20
103856.538456514
 30
0.0
 11
384618.0293246753
 21
63652.5384565254
 31
0.0
  0
LINE
  5
14F
330
17
100
AcDbEntity
  8
0
100
AcDbLine
 10
384618.0293246753
 20
63652.5384565254
 30
0.0
 11
408234.0293246794
 21
67470.5384565208
 31
0.0
  0
LINE
  5
150
330
17
100
AcDbEntity
  8
0
100
AcDbLine
 10
395282.6428495791
 20
65376.68710312205
 30
0.0
 11
404723.1100883822
 21
106286.73867114134
 31
0.0
  0
LINE
  5
151
330
17
100
AcDbEntity
  8
0
100
AcDbLine
 10
410084.82932467916
 20
75490.93845651888
 30
0.0
 11
398246.9983634001
 21
78222.65477280448
 31
0.0
  0
LINE
  5
152
330
17
100
AcDbEntity
  8
0
100
AcDbLine
 10
411935.62932467886
 20
83511.33845651695
 30
0.0
 11
400097.79836339987
 21
86243.05477280256
 31
0.0
  0
LINE
  5
153
330
17
100
AcDbEntity
  8
0
100
AcDbLine
 10
413786.42932467855
 20
91531.73845651504
 30
0.0
 11
401948.59836339956
 21
94263.45477280064
 31
0.0
  0
LINE
  5
154
330
17
100
AcDbEntity
  8
0
100
AcDbLine
 10
415637.2293246783
 20
99552.13845651312
 30
0.0
 11
403799.39836339926
 21
102283.85477279872
 31
0.0
  0
LINE
  5
155
330
17
100
AcDbEntity
  8
0
100
AcDbLine
 10
392231.12868873874
 20
81012.47865779816
 30
0.0
 11
396210.98908421985
 21
81413.36671259768
 31
0.0
  0
LINE
  5
156
330
17
100
AcDbEntity
  8
0
100
AcDbLine
 10
393816.18055086496
 20
105188.09265554354
 30
0.0
 11
396210.98908421985
 21
81413.36671259768
 31
0.0
  0
LINE
  5
157
330
17
100
AcDbEntity
  8
0
100
AcDbLine
 10
389836.32015538384
 20
104787.20460074402
 30
0.0
 11
392231.12868873874
 21
81012.47865779816
 31
0.0
  0
LINE
  5
158
330
17
100
AcDbEntity
  8
0
100
AcDbLine
 10
394221.0588864793
 20
81212.92268519792
 30
0.0
 11
395654.09022815287
 21
66986.34592909602
 31
0.0
  0
LINE
  5
159
330
17
100
AcDbEntity
  8
0
100
AcDbLine
 10
402111.5291935272
 20
94969.5118453937
 30
0.0
 11
394918.4731514168
 21
94244.96124355357
 31
0.0
  0
LINE
  5
15A
330
17
100
AcDbEntity
  8
0
100
AcDbLine
 10
381691.3307567488
 20
92915.1570155604
 30
0.0
 11
390942.51496620174
 21
93863.00370614053
 31
0.0
  0
LINE
  5
15B
330
17
100
AcDbEntity
  8
0
100
AcDbLine
 10
383628.1491795716
 20
73549.86284201994
 30
0.0
 11
394878.7993608905
 21
74683.13155454563
 31
0.0
  0
LINE
  5
15C
330
17
100
AcDbEntity
  8
0
100
AcDbLine
 10
382659.73996816017
 20
83232.50992879017
 30
0.0
 11
391915.0242590271
 21
84164.78708107298
 31
0.0
  0
LINE
  5
15D
330
17
100
AcDbEntity
  8
0
100
AcDbLine
 10
408234.0293246794
 20
147470.5384565208
 30
0.0
 11
417488.029324678
 21
187572.5384565112
 31
0.0
  0
LINE
  5
15E
330
17
100
AcDbEntity
  8
0
100
AcDbLine
 10
417488.029324678
 20
187572.5384565112
 30
0.0
 11
380597.0293247093
 21
183856.538456514
 31
0.0
  0
LINE
  5
15F
330
17
100
AcDbEntity
  8
0
100
AcDbLine
 10
380597.0293247093
 20
183856.538456514
 30
0.0
 11
384618.0293246753
 21
143652.5384565254
 31
0.0
  0
LINE
  5
160
330
17
100
AcDbEntity
  8
0
100
AcDbLine
 10
384618.0293246753
 20
143652.5384565254
 30
0.0
 11
408234.0293246794
 21
147470.5384565208
 31
0.0
  0
LINE
  5
161
330
17
100
AcDbEntity
  8
0
100
AcDbLine
 10
395282.6428495791
 20
145376.68710312207
 30
0.0
 11
404723.1100883822
 21
186286.73867114133
 31
0.0
  0
LINE
  5
162
330
17
100
AcDbEntity
  8
0
100
AcDbLine
 10
410084.82932467916
 20
155490.93845651887
 30
0.0
 11
398246.9983634001
 21
158222.65477280447
 31
0.0
  0
LINE
  5
163
330
17
100
AcDbEntity
  8
0
100
AcDbLine
 10
411935.62932467886
 20
163511.33845651697
 30
0.0
 11
400097.79836339987
 21
166243.05477280257
 31
0.0
  0
LINE
  5
164
330
17
100
AcDbEntity
  8
0
100
AcDbLine
 10
413786.42932467855
 20
171531.73845651504
 30
0.0
 11
401948.59836339956
 21
174263.45477280064
 31
0.0
  0
LINE
  5
165
330
17
100
AcDbEntity
  8
0
100
AcDbLine
 10
415637.2293246783
 20
179552.13845651312
 30
0.0
 11
403799.39836339926
 21
182283.85477279872
 31
0.0
  0
LINE
  5
166
330
17
100
AcDbEntity
  8
0
100
AcDbLine
 10
391943.8510769234
 20
165577.1784566796
 30
0.0
 11
395923.71147240454
 21
165978.06651147912
 31
0.0
  0
LINE
  5
167
330
17
100
AcDbEntity
  8
0
100
AcDbLine
 10
393986.96850730357
 20
185205.29598551904
 30
0.0
 11
395923.71147240454
 21
165978.06651147912
 31
0.0
  0
LINE
  5
168
330
17
100
AcDbEntity
  8
0
100
AcDbLine
 10
390007.10811182245
 20
184804.40793071952
 30
0.0
 11
391943.8510769234
 21
165577.1784566796
 31
0.0
  0
LINE
  5
169
330
17
100
AcDbEntity
  8
0
100
AcDbLine
 10
393933.781274664
 20
165777.62248407936
 30
0.0
 11
395774.18763175537
 21
147506.7853152282
 31
0.0
  0
LINE
  5
16A
330
17
100
AcDbEntity
  8
0
100
AcDbLine
 10
401980.93365520646
 20
174403.5790295588
 30
0.0
 11
395144.38269947056
 21
173714.9388910015
 31
0.0
  0
LINE
  5
16B
330
17
100
AcDbEntity
  8
0
100
AcDbLine
 10
381671.9281429162
 20
173109.15420196482
 30
0.0
 11
391094.3096432283
 21
174078.4732363353
 31
0.0
  0
LINE
  5
16C
330
17
100
AcDbEntity
  8
0
100
AcDbLine
 10
383591.32254369144
 20
153918.07424936592
 30
0.0
 11
395012.50032763625
 21
155068.52006664232
 31
0.0
  0
LINE
  5
16D
330
17
100
AcDbEntity
  8
0
100
AcDbLine
 10
382631.62534330384
 20
163513.61422566537
 30
0.0
 11
394046.01834174583
 21
164663.37661709456
 31
0.0
  0
LINE
  5
16E
330
17
100
AcDbEntity
  8
0
100
AcDbLine
 10
408234.0293246794
 20
227470.5384565208
 30
0.0
 11
417488.029324678
 21
267572.5384565112
 31
0.0
  0
LINE
  5
16F
330
17
100
AcDbEntity
  8
0
100
AcDbLine
 10
417488.029324678
 20
267572.5384565112
 30
0.0
 11
380597.0293247093
 21
263856.538456514
 31
0.0
  0
LINE
  5
170
330
17
100
AcDbEntity
  8
0
100
AcDbLine
 10
380597.0293247093
 20
263856.538456514
 30
0.0
 11
384618.0293246753
 21
223652.5384565254
 31
0.0
  0
LINE
  5
171
330
17
100
AcDbEntity
  8
0
100
AcDbLine
 10
384618.0293246753
 20
223652.5384565254
 30
0.0
 11
408234.0293246794
 21
227470.5384565208
 31
0.0
  0
LINE
  5
172
330
17
100
AcDbEntity
  8
0
100
AcDbLine
 10
395282.6428495791
 20
225376.68710312207
 30
0.0
 11
404723.1100883822
 21
266286.7386711413
 31
0.0
  0
LINE
  5
173
330
17
100
AcDbEntity
  8
0
100
AcDbLine
 10
410084.82932467916
 20
235490.93845651887
 30
0.0
 11
398246.9983634001
 21
238222.65477280447
 31
0.0
  0
LINE
  5
174
330
17
100
AcDbEntity
  8
0
100
AcDbLine
 10
411935.62932467886
 20
243511.33845651697
 30
0.0
 11
400097.79836339987
 21
246243.05477280257
 31
0.0
  0
LINE
  5
175
330
17
100
AcDbEntity
  8
0
100
AcDbLine
 10
413786.42932467855
 20
251531.73845651504
 30
0.0
 11
401948.59836339956
 21
254263.45477280064
 31
0.0
  0
LINE
  5
176
330
17
100
AcDbEntity
  8
0
100
AcDbLine
 10
415637.2293246783
 20
259552.13845651312
 30
0.0
 11
403799.39836339926
 21
262283.8547727987
 31
0.0
  0
LINE
  5
177
330
17
100
AcDbEntity
  8
0
100
AcDbLine
 10
392637.29946474894
 20
241187.2277664372
 30
0.0
 11
396617.15986023005
 21
241588.11582123672
 31
0.0
  0
LINE
  5
178
330
17
100
AcDbEntity
  8
0
100
AcDbLine
 10
394235.69709177356
 20
265230.35021066584
 30
0.0
 11
396617.15986023005
 21
241588.11582123672
 31
0.0
  0
LINE
  5
179
330
17
100
AcDbEntity
  8
0
100
AcDbLine
 10
390255.83669629245
 20
264829.4621558663
 30
0.0
 11
392637.29946474894
 21
241187.2277664372
 31
0.0
  0
LINE
  5
17A
330
17
100
AcDbEntity
  8
0
100
AcDbLine
 10
394627.2296624895
 20
241387.67179383695
 30
0.0
 11
395949.0925713042
 21
228264.731920565
 31
0.0
  0
LINE
  5
17B
330
17
100
AcDbEntity
  8
0
100
AcDbLine
 10
401876.6097291478
 20
253951.49365212163
 30
0.0
 11
395437.1441882942
 21
253302.85159986457
 31
0.0
  0
LINE
  5
17C
330
17
100
AcDbEntity
  8
0
100
AcDbLine
 10
381643.97736007744
 20
253388.62032314326
 30
0.0
 11
391313.47899293277
 21
254379.42170773703
 31
0.0
  0
LINE
  5
17D
330
17
100
AcDbEntity
  8
0
100
AcDbLine
 10
383518.0171470182
 20
234651.01883227448
 30
0.0
 11
395187.40526718507
 21
235826.4666719791
 31
0.0
  0
LINE
  5
17E
330
17
100
AcDbEntity
  8
0
100
AcDbLine
 10
382580.99725354783
 20
244019.81957770887
 30
0.0
 11
392255.2643855801
 21
244994.30052597905
 31
0.0
  0
ENDSEC
  0
SECTION
  2
OBJECTS
  0
DICTIONARY
  5
A
330
0
100
AcDbDictionary
281
1
  3
ACAD_COLOR
350
B
  3
ACAD_GROUP
350
C
  3
ACAD_LAYOUT
350
D
  3
ACAD_MATERIAL
350
E
  3
ACAD_MLEADERSTYLE
350
F
  3
ACAD_MLINESTYLE
350
10
  3
ACAD_PLOTSETTINGS
350
11
  3
ACAD_PLOTSTYLENAME
350
12
  3
ACAD_SCALELIST
350
14
  3
ACAD_TABLESTYLE
350
15
  3
ACAD_VISUALSTYLE
350
16
  3
EZDXF_META
350
2D
  0
DICTIONARY
  5
B
330
A
100
AcDbDictionary
281
1
  0
DICTIONARY
  5
C
330
A
100
AcDbDictionary
281
1
  0
DICTIONARY
  5
D
330
A
100
AcDbDictionary
281
1
  3
Model
350
1A
  3
Layout1
350
1E
  0
DICTIONARY
  5
E
330
A
100
AcDbDictionary
281
1
  3
ByBlock
350
1F
  3
ByLayer
350
20
  3
Global
350
21
  0
DICTIONARY
  5
F
330
A
100
AcDbDictionary
281
1
  3
Standard
350
2C
  0
DICTIONARY
  5
10
330
A
100
AcDbDictionary
281
1
  3
Standard
350
22
  0
DICTIONARY
  5
11
330
A
100
AcDbDictionary
281
1
  0
ACDBDICTIONARYWDFLT
  5
12
330
A
100
AcDbDictionary
281
1
  3
Normal
350
13
100
AcDbDictionaryWithDefault
340
13
  0
ACDBPLACEHOLDER
  5
13
330
12
  0
DICTIONARY
  5
14
330
A
100
AcDbDictionary
281
1
  0
DICTIONARY
  5
15
330
A
100
AcDbDictionary
281
1
  0
DICTIONARY
  5
16
330
A
100
AcDbDictionary
281
1
  0
LAYOUT
  5
1A
330
D
100
AcDbPlotSettings
  1

  2
Adobe PDF
  4
A3
  6

 40
7.5
 41
20.0
 42
7.5
 43
20.0
 44
420.0
 45
297.0
 46
0.0
 47
0.0
 48
0.0
 49
0.0
140
0.0
141
0.0
142
1.0
143
1.0
 70
1024
 72
1
 73
1
 74
5
  7

 75
16
 76
0
 77
2
 78
300
147
1.0
148
0.0
149
0.0
100
AcDbLayout
  1
Model
 70
1
 71
0
 10
0.0
 20
0.0
 11
420.0
 21
297.0
 12
0.0
 22
0.0
 32
0.0
 14
1e+20
 24
1e+20
 34
1e+20
 15
-1e+20
 25
-1e+20
 35
-1e+20
146
0.0
 13
0.0
 23
0.0
 33
0.0
 16
1.0
 26
0.0
 36
0.0
 17
0.0
 27
1.0
 37
0.0
 76
1
330
17
  0
LAYOUT
  5
1E
330
D
100
AcDbPlotSettings
  1

  2
Adobe PDF
  4
A3
  6

 40
7.5
 41
20.0
 42
7.5
 43
20.0
 44
420.0
 45
297.0
 46
0.0
 47
0.0
 48
0.0
 49
0.0
140
0.0
141
0.0
142
1.0
143
1.0
 70
0
 72
1
 73
1
 74
5
  7

 75
16
 76
0
 77
2
 78
300
147
1.0
148
0.0
149
0.0
100
AcDbLayout
  1
Layout1
 70
1
 71
1
 10
0.0
 20
0.0
 11
420.0
 21
297.0
 12
0.0
 22
0.0
 32
0.0
 14
1e+20
 24
1e+20
 34
1e+20
 15
-1e+20
 25
-1e+20
 35
-1e+20
146
0.0
 13
0.0
 23
0.0
 33
0.0
 16
1.0
 26
0.0
 36
0.0
 17
0.0
 27
1.0
 37
0.0
 76
1
330
1B
  0
MATERIAL
  5
1F
102
{ACAD_REACTORS
330
E
102
}
330
E
100
AcDbMaterial
  1
ByBlock
  2

 70
0
 40
1.0
 71
1
 41
1.0
 91
-1023410177
 42
1.0
 72
1
  3

 73
1
 74
1
 75
1
 44
0.5
 73
0
 45
1.0
 46
1.0
 77
1
  4

 78
1
 79
1
170
1
 48
1.0
171
1
  6

172
1
173
1
174
1
140
1.0
141
1.0
175
1
  7

176
1
177
1
178
1
143
1.0
179
1
  8

270
1
271
1
272
1
145
1.0
146
1.0
273
1
  9

274
1
275
1
276
1
 42
1.0
 72
1
  3

 73
1
 74
1
 75
1
 94
63
  0
MATERIAL
  5
20
102
{ACAD_REACTORS
330
E
102
}
330
E
100
AcDbMaterial
  1
ByLayer
  2

 70
0
 40
1.0
 71
1
 41
1.0
 91
-1023410177
 42
1.0
 72
1
  3

 73
1
 74
1
 75
1
 44
0.5
 73
0
 45
1.0
 46
1.0
 77
1
  4

 78
1
 79
1
170
1
 48
1.0
171
1
  6

172
1
173
1
174
1
140
1.0
141
1.0
175
1
  7

176
1
177
1
178
1
143
1.0
179
1
  8

270
1
271
1
272
1
145
1.0
146
1.0
273
1
  9

274
1
275
1
276
1
 42
1.0
 72
1
  3

 73
1
 74
1
 75
1
 94
63
  0
MATERIAL
  5
21
102
{ACAD_REACTORS
330
E
102
}
330
E
100
AcDbMaterial
  1
Global
  2

 70
0
 40
1.0
 71
1
 41
1.0
 91
-1023410177
 42
1.0
 72
1
  3

 73
1
 74
1
 75
1
 44
0.5
 73
0
 45
1.0
 46
1.0
 77
1
  4

 78
1
 79
1
170
1
 48
1.0
171
1
  6

172
1
173
1
174
1
140
1.0
141
1.0
175
1
  7

176
1
177
1
178
1
143
1.0
179
1
  8

270
1
271
1
272
1
145
1.0
146
1.0
273
1
  9

274
1
275
1
276
1
 42
1.0
 72
1
  3

 73
1
 74
1
 75
1
 94
63
  0
MLINESTYLE
  5
22
102
{ACAD_REACTORS
330
10
102
}
330
10
100
AcDbMlineStyle
  2
Standard
 70
0
  3

 62
256
 51
90.0
 52
90.0
 71
2
 49
0.5
 62
256
  6
BYLAYER
 49
-0.5
 62
256
  6
BYLAYER
  0
MLEADERSTYLE
  5
2C
102
{ACAD_REACTORS
330
F
102
}
330
F
100
AcDbMLeaderStyle
179
2
170
2
171
1
172
0
 90
2
 40
0.0
 41
0.0
173
1
 91
-1056964608
 92
-2
290
1
 42
2.0
291
1
 43
8.0
  3
Standard
 44
4.0
300

342
29
174
1
175
1
176
0
178
1
 93
-1056964608
 45
4.0
292
0
297
0
 46
4.0
 94
-1056964608
 47
1.0
 49
1.0
140
1.0
294
1
141
0.0
177
0
142
1.0
295
0
296
0
143
3.75
271
0
272
9
273
9
  0
DICTIONARY
  5
2D
330
A
100
AcDbDictionary
280
1
281
1
  3
CREATED_BY_EZDXF
350
2E
  3
WRITTEN_BY_EZDXF
350
181
  0
DICTIONARYVAR
  5
2E
330
2D
100
DictionaryVariables
280
0
  1
0.17.2 @ 2023-04-14T06:08:23.456045+00:00
  0
DICTIONARYVAR
  5
181
330
2D
100
DictionaryVariables
280
0
  1
0.17.2 @ 2023-04-14T06:08:23.941238+00:00
  0
ENDSEC
  0
EOF
