  0
SECTION
  2
HEADER
  9
$ACADVER
  1
AC1024
  9
$ACADMAINTVER
 70
6
  9
$DWGCODEPAGE
  3
ANSI_1252
  9
$LASTSAVEDBY
  1
ezdxf
  9
$INSBASE
 10
0.0
 20
0.0
 30
0.0
  9
$EXTMIN
 10
1e+20
 20
1e+20
 30
1e+20
  9
$EXTMAX
 10
-1e+20
 20
-1e+20
 30
-1e+20
  9
$LIMMIN
 10
0.0
 20
0.0
  9
$LIMMAX
 10
420.0
 20
297.0
  9
$ORTHOMODE
 70
0
  9
$REGENMODE
 70
1
  9
$FILLMODE
 70
1
  9
$QTEXTMODE
 70
0
  9
$MIRRTEXT
 70
1
  9
$LTSCALE
 40
1.0
  9
$ATTMODE
 70
1
  9
$TEXTSIZE
 40
2.5
  9
$TRACEWID
 40
1.0
  9
$TEXTSTYLE
  7
Standard
  9
$CLAYER
  8
0
  9
$CELTYPE
  6
ByLayer
  9
$CECOLOR
 62
256
  9
$CELTSCALE
 40
1.0
  9
$DISPSILH
 70
0
  9
$DIMSCALE
 40
1.0
  9
$DIMASZ
 40
2.5
  9
$DIMEXO
 40
0.625
  9
$DIMDLI
 40
3.75
  9
$DIMRND
 40
0.0
  9
$DIMDLE
 40
0.0
  9
$DIMEXE
 40
1.25
  9
$DIMTP
 40
0.0
  9
$DIMTM
 40
0.0
  9
$DIMTXT
 40
2.5
  9
$DIMCEN
 40
2.5
  9
$DIMTSZ
 40
0.0
  9
$DIMTOL
 70
0
  9
$DIMLIM
 70
0
  9
$DIMTIH
 70
0
  9
$DIMTOH
 70
0
  9
$DIMSE1
 70
0
  9
$DIMSE2
 70
0
  9
$DIMTAD
 70
1
  9
$DIMZIN
 70
8
  9
$DIMBLK
  1

  9
$DIMASO
 70
1
  9
$DIMSHO
 70
1
  9
$DIMPOST
  1

  9
$DIMAPOST
  1

  9
$DIMALT
 70
0
  9
$DIMALTD
 70
3
  9
$DIMALTF
 40
0.03937007874
  9
$DIMLFAC
 40
1.0
  9
$DIMTOFL
 70
1
  9
$DIMTVP
 40
0.0
  9
$DIMTIX
 70
0
  9
$DIMSOXD
 70
0
  9
$DIMSAH
 70
0
  9
$DIMBLK1
  1

  9
$DIMBLK2
  1

  9
$DIMSTYLE
  2
ISO-25
  9
$DIMCLRD
 70
0
  9
$DIMCLRE
 70
0
  9
$DIMCLRT
 70
0
  9
$DIMTFAC
 40
1.0
  9
$DIMGAP
 40
0.625
  9
$DIMJUST
 70
0
  9
$DIMSD1
 70
0
  9
$DIMSD2
 70
0
  9
$DIMTOLJ
 70
0
  9
$DIMTZIN
 70
8
  9
$DIMALTZ
 70
0
  9
$DIMALTTZ
 70
0
  9
$DIMUPT
 70
0
  9
$DIMDEC
 70
2
  9
$DIMTDEC
 70
2
  9
$DIMALTU
 70
2
  9
$DIMALTTD
 70
3
  9
$DIMTXSTY
  7
Standard
  9
$DIMAUNIT
 70
0
  9
$DIMADEC
 70
0
  9
$DIMALTRND
 40
0.0
  9
$DIMAZIN
 70
0
  9
$DIMDSEP
 70
44
  9
$DIMATFIT
 70
3
  9
$DIMFRAC
 70
0
  9
$DIMLDRBLK
  1

  9
$DIMLUNIT
 70
2
  9
$DIMLWD
 70
-2
  9
$DIMLWE
 70
-2
  9
$DIMTMOVE
 70
0
  9
$DIMFXL
 40
1.0
  9
$DIMFXLON
 70
0
  9
$DIMJOGANG
 40
0.785398163397
  9
$DIMTFILL
 70
0
  9
$DIMTFILLCLR
 70
0
  9
$DIMARCSYM
 70
0
  9
$DIMLTYPE
  6

  9
$DIMLTEX1
  6

  9
$DIMLTEX2
  6

  9
$DIMTXTDIRECTION
 70
0
  9
$LUNITS
 70
2
  9
$LUPREC
 70
4
  9
$SKETCHINC
 40
1.0
  9
$FILLETRAD
 40
10.0
  9
$AUNITS
 70
0
  9
$AUPREC
 70
2
  9
$MENU
  1
.
  9
$ELEVATION
 40
0.0
  9
$PELEVATION
 40
0.0
  9
$THICKNESS
 40
0.0
  9
$LIMCHECK
 70
0
  9
$CHAMFERA
 40
0.0
  9
$CHAMFERB
 40
0.0
  9
$CHAMFERC
 40
0.0
  9
$CHAMFERD
 40
0.0
  9
$SKPOLY
 70
0
  9
$TDCREATE
 40
2460060.3952314816
  9
$TDUCREATE
 40
2458532.153996898
  9
$TDUPDATE
 40
2460060.3952314816
  9
$TDUUPDATE
 40
2458532.1544311
  9
$TDINDWG
 40
0.0
  9
$TDUSRTIMER
 40
0.0
  9
$USRTIMER
 70
1
  9
$ANGBASE
 50
0.0
  9
$ANGDIR
 70
0
  9
$PDMODE
 70
0
  9
$PDSIZE
 40
0.0
  9
$PLINEWID
 40
0.0
  9
$SPLFRAME
 70
0
  9
$SPLINETYPE
 70
6
  9
$SPLINESEGS
 70
8
  9
$HANDSEED
  5
2D6
  9
$SURFTAB1
 70
6
  9
$SURFTAB2
 70
6
  9
$SURFTYPE
 70
6
  9
$SURFU
 70
6
  9
$SURFV
 70
6
  9
$UCSBASE
  2

  9
$UCSNAME
  2

  9
$UCSORG
 10
0.0
 20
0.0
 30
0.0
  9
$UCSXDIR
 10
1.0
 20
0.0
 30
0.0
  9
$UCSYDIR
 10
0.0
 20
1.0
 30
0.0
  9
$UCSORTHOREF
  2

  9
$UCSORTHOVIEW
 70
0
  9
$UCSORGTOP
 10
0.0
 20
0.0
 30
0.0
  9
$UCSORGBOTTOM
 10
0.0
 20
0.0
 30
0.0
  9
$UCSORGLEFT
 10
0.0
 20
0.0
 30
0.0
  9
$UCSORGRIGHT
 10
0.0
 20
0.0
 30
0.0
  9
$UCSORGFRONT
 10
0.0
 20
0.0
 30
0.0
  9
$UCSORGBACK
 10
0.0
 20
0.0
 30
0.0
  9
$PUCSBASE
  2

  9
$PUCSNAME
  2

  9
$PUCSORG
 10
0.0
 20
0.0
 30
0.0
  9
$PUCSXDIR
 10
1.0
 20
0.0
 30
0.0
  9
$PUCSYDIR
 10
0.0
 20
1.0
 30
0.0
  9
$PUCSORTHOREF
  2

  9
$PUCSORTHOVIEW
 70
0
  9
$PUCSORGTOP
 10
0.0
 20
0.0
 30
0.0
  9
$PUCSORGBOTTOM
 10
0.0
 20
0.0
 30
0.0
  9
$PUCSORGLEFT
 10
0.0
 20
0.0
 30
0.0
  9
$PUCSORGRIGHT
 10
0.0
 20
0.0
 30
0.0
  9
$PUCSORGFRONT
 10
0.0
 20
0.0
 30
0.0
  9
$PUCSORGBACK
 10
0.0
 20
0.0
 30
0.0
  9
$USERI1
 70
0
  9
$USERI2
 70
0
  9
$USERI3
 70
0
  9
$USERI4
 70
0
  9
$USERI5
 70
0
  9
$USERR1
 40
0.0
  9
$USERR2
 40
0.0
  9
$USERR3
 40
0.0
  9
$USERR4
 40
0.0
  9
$USERR5
 40
0.0
  9
$WORLDVIEW
 70
1
  9
$SHADEDGE
 70
3
  9
$SHADEDIF
 70
70
  9
$TILEMODE
 70
1
  9
$MAXACTVP
 70
64
  9
$PINSBASE
 10
0.0
 20
0.0
 30
0.0
  9
$PLIMCHECK
 70
0
  9
$PEXTMIN
 10
1e+20
 20
1e+20
 30
1e+20
  9
$PEXTMAX
 10
-1e+20
 20
-1e+20
 30
-1e+20
  9
$PLIMMIN
 10
0.0
 20
0.0
  9
$PLIMMAX
 10
420.0
 20
297.0
  9
$UNITMODE
 70
0
  9
$VISRETAIN
 70
1
  9
$PLINEGEN
 70
0
  9
$PSLTSCALE
 70
1
  9
$TREEDEPTH
 70
3020
  9
$CMLSTYLE
  2
Standard
  9
$CMLJUST
 70
0
  9
$CMLSCALE
 40
20.0
  9
$PROXYGRAPHICS
 70
1
  9
$MEASUREMENT
 70
1
  9
$CELWEIGHT
370
-1
  9
$ENDCAPS
280
0
  9
$JOINSTYLE
280
0
  9
$LWDISPLAY
290
0
  9
$INSUNITS
 70
6
  9
$HYPERLINKBASE
  1

  9
$STYLESHEET
  1

  9
$XEDIT
290
1
  9
$CEPSNTYPE
380
0
  9
$PSTYLEMODE
290
1
  9
$FINGERPRINTGUID
  2
{849FB70E-5637-4C5A-B97E-70B17731F3E4}
  9
$VERSIONGUID
  2
{8C7A907A-A390-4237-87EA-3296D25119FA}
  9
$EXTNAMES
290
1
  9
$PSVPSCALE
 40
0.0
  9
$OLESTARTUP
290
0
  9
$SORTENTS
280
127
  9
$INDEXCTL
280
0
  9
$HIDETEXT
280
1
  9
$XCLIPFRAME
280
0
  9
$HALOGAP
280
0
  9
$OBSCOLOR
 70
257
  9
$OBSLTYPE
280
0
  9
$INTERSECTIONDISPLAY
280
0
  9
$INTERSECTIONCOLOR
 70
257
  9
$DIMASSOC
280
2
  9
$PROJECTNAME
  1

  9
$CAMERADISPLAY
290
0
  9
$LENSLENGTH
 40
50.0
  9
$CAMERAHEIGHT
 40
0.0
  9
$STEPSPERSEC
 40
24.0
  9
$STEPSIZE
 40
100.0
  9
$3DDWFPREC
 40
2.0
  9
$PSOLWIDTH
 40
0.005
  9
$PSOLHEIGHT
 40
0.08
  9
$LOFTANG1
 40
1.570796326795
  9
$LOFTANG2
 40
1.570796326795
  9
$LOFTMAG1
 40
0.0
  9
$LOFTMAG2
 40
0.0
  9
$LOFTPARAM
 70
7
  9
$LOFTNORMALS
280
1
  9
$LATITUDE
 40
37.795
  9
$LONGITUDE
 40
-122.394
  9
$NORTHDIRECTION
 40
0.0
  9
$TIMEZONE
 70
-8000
  9
$LIGHTGLYPHDISPLAY
280
1
  9
$TILEMODELIGHTSYNCH
280
1
  9
$CMATERIAL
347
20
  9
$SOLIDHIST
280
0
  9
$SHOWHIST
280
1
  9
$DWFFRAME
280
2
  9
$DGNFRAME
280
2
  9
$REALWORLDSCALE
290
1
  9
$INTERFERECOLOR
 62
256
  9
$CSHADOW
280
0
  9
$SHADOWPLANELOCATION
 40
0.0
  0
ENDSEC
  0
SECTION
  2
CLASSES
  0
CLASS
  1
ACDBDICTIONARYWDFLT
  2
AcDbDictionaryWithDefault
  3
ObjectDBX Classes
 90
0
 91
0
280
0
281
0
  0
CLASS
  1
SUN
  2
AcDbSun
  3
SCENEOE
 90
1153
 91
0
280
0
281
0
  0
CLASS
  1
VISUALSTYLE
  2
AcDbVisualStyle
  3
ObjectDBX Classes
 90
4095
 91
0
280
0
281
0
  0
CLASS
  1
MATERIAL
  2
AcDbMaterial
  3
ObjectDBX Classes
 90
1153
 91
0
280
0
281
0
  0
CLASS
  1
SCALE
  2
AcDbScale
  3
ObjectDBX Classes
 90
1153
 91
0
280
0
281
0
  0
CLASS
  1
TABLESTYLE
  2
AcDbTableStyle
  3
ObjectDBX Classes
 90
4095
 91
0
280
0
281
0
  0
CLASS
  1
MLEADERSTYLE
  2
AcDbMLeaderStyle
  3
ACDB_MLEADERSTYLE_CLASS
 90
4095
 91
0
280
0
281
0
  0
CLASS
  1
DICTIONARYVAR
  2
AcDbDictionaryVar
  3
ObjectDBX Classes
 90
0
 91
0
280
0
281
0
  0
CLASS
  1
CELLSTYLEMAP
  2
AcDbCellStyleMap
  3
ObjectDBX Classes
 90
1152
 91
0
280
0
281
0
  0
CLASS
  1
MENTALRAYRENDERSETTINGS
  2
AcDbMentalRayRenderSettings
  3
SCENEOE
 90
1024
 91
0
280
0
281
0
  0
CLASS
  1
ACDBDETAILVIEWSTYLE
  2
AcDbDetailViewStyle
  3
ObjectDBX Classes
 90
1025
 91
0
280
0
281
0
  0
CLASS
  1
ACDBSECTIONVIEWSTYLE
  2
AcDbSectionViewStyle
  3
ObjectDBX Classes
 90
1025
 91
0
280
0
281
0
  0
CLASS
  1
RASTERVARIABLES
  2
AcDbRasterVariables
  3
ISM
 90
0
 91
0
280
0
281
0
  0
CLASS
  1
LAYOUT
  2
AcDbLayout
  3
ObjectDBX Classes
 90
0
 91
0
280
0
281
0
  0
CLASS
  1
ACDBPLACEHOLDER
  2
AcDbPlaceHolder
  3
ObjectDBX Classes
 90
0
 91
0
280
0
281
0
  0
ENDSEC
  0
SECTION
  2
TABLES
  0
TABLE
  2
VPORT
  5
8
330
0
100
AcDbSymbolTable
 70
1
  0
VPORT
  5
23
330
8
100
AcDbSymbolTableRecord
100
AcDbViewportTableRecord
  2
*Active
 70
0
 10
0.0
 20
0.0
 11
1.0
 21
1.0
 12
0.0
 22
0.0
 13
0.0
 23
0.0
 14
0.5
 24
0.5
 15
0.5
 25
0.5
 16
0.0
 26
0.0
 36
1.0
 17
0.0
 27
0.0
 37
0.0
 40
1000.0
 41
1.34
 42
50.0
 43
0.0
 44
0.0
 50
0.0
 51
0.0
 71
0
 72
1000
 73
1
 74
3
 75
0
 76
0
 77
0
 78
0
281
0
 65
0
146
0.0
  0
ENDTAB
  0
TABLE
  2
LTYPE
  5
2
330
0
100
AcDbSymbolTable
 70
3
  0
LTYPE
  5
24
330
2
100
AcDbSymbolTableRecord
100
AcDbLinetypeTableRecord
  2
ByBlock
 70
0
  3

 72
65
 73
0
 40
0.0
  0
LTYPE
  5
25
330
2
100
AcDbSymbolTableRecord
100
AcDbLinetypeTableRecord
  2
ByLayer
 70
0
  3

 72
65
 73
0
 40
0.0
  0
LTYPE
  5
26
330
2
100
AcDbSymbolTableRecord
100
AcDbLinetypeTableRecord
  2
Continuous
 70
0
  3

 72
65
 73
0
 40
0.0
  0
ENDTAB
  0
TABLE
  2
LAYER
  5
1
330
0
100
AcDbSymbolTable
 70
2
  0
LAYER
  5
27
330
1
100
AcDbSymbolTableRecord
100
AcDbLayerTableRecord
  2
0
 70
0
 62
7
  6
Continuous
370
-3
390
13
347
21
  0
LAYER
  5
28
330
1
100
AcDbSymbolTableRecord
100
AcDbLayerTableRecord
  2
Defpoints
 70
0
 62
7
  6
Continuous
290
0
370
-3
390
13
347
21
  0
ENDTAB
  0
TABLE
  2
STYLE
  5
5
330
0
100
AcDbSymbolTable
 70
1
  0
STYLE
  5
29
330
5
100
AcDbSymbolTableRecord
100
AcDbTextStyleTableRecord
  2
Standard
 70
0
 40
0.0
 41
1.0
 50
0.0
 71
0
 42
2.5
  3
txt
  4

  0
ENDTAB
  0
TABLE
  2
VIEW
  5
7
330
0
100
AcDbSymbolTable
 70
0
  0
ENDTAB
  0
TABLE
  2
UCS
  5
6
330
0
100
AcDbSymbolTable
 70
0
  0
ENDTAB
  0
TABLE
  2
APPID
  5
3
330
0
100
AcDbSymbolTable
 70
3
  0
APPID
  5
2A
330
3
100
AcDbSymbolTableRecord
100
AcDbRegAppTableRecord
  2
ACAD
 70
0
  0
APPID
  5
2D3
330
3
100
AcDbSymbolTableRecord
100
AcDbRegAppTableRecord
  2
HATCHBACKGROUNDCOLOR
 70
0
  0
APPID
  5
2D4
330
3
100
AcDbSymbolTableRecord
100
AcDbRegAppTableRecord
  2
EZDXF
 70
0
  0
ENDTAB
  0
TABLE
  2
DIMSTYLE
  5
4
330
0
100
AcDbSymbolTable
 70
1
100
AcDbDimStyleTable
  0
DIMSTYLE
105
2B
330
4
100
AcDbSymbolTableRecord
100
AcDbDimStyleTableRecord
  2
Standard
 70
0
 40
1.0
 41
2.5
 42
0.625
 43
3.75
 44
1.25
 45
0.0
 46
0.0
 47
0.0
 48
0.0
 49
2.5
140
2.5
141
2.5
142
0.0
143
0.03937007874
144
1.0
145
0.0
146
1.0
147
0.625
148
0.0
 69
0
 70
0
 71
0
 72
0
 73
0
 74
0
 75
0
 76
0
 77
1
 78
8
 79
3
170
0
171
3
172
1
173
0
174
0
175
0
176
0
177
0
178
0
179
2
271
2
272
2
273
2
274
3
275
0
276
0
277
2
278
44
279
0
280
0
281
0
282
0
283
0
284
8
285
0
286
0
288
0
289
3
290
0
371
-2
372
-2
  0
ENDTAB
  0
TABLE
  2
BLOCK_RECORD
  5
9
330
0
100
AcDbSymbolTable
 70
2
  0
BLOCK_RECORD
  5
17
330
9
100
AcDbSymbolTableRecord
100
AcDbBlockTableRecord
  2
*Model_Space
340
1A
 70
0
280
1
281
0
  0
BLOCK_RECORD
  5
1B
330
9
100
AcDbSymbolTableRecord
100
AcDbBlockTableRecord
  2
*Paper_Space
340
1E
 70
0
280
1
281
0
  0
ENDTAB
  0
ENDSEC
  0
SECTION
  2
BLOCKS
  0
BLOCK
  5
18
330
17
100
AcDbEntity
  8
0
100
AcDbBlockBegin
  2
*Model_Space
 70
0
 10
0.0
 20
0.0
 30
0.0
  3
*Model_Space
  1

  0
ENDBLK
  5
19
330
17
100
AcDbEntity
  8
0
100
AcDbBlockEnd
  0
BLOCK
  5
1C
330
1B
100
AcDbEntity
  8
0
100
AcDbBlockBegin
  2
*Paper_Space
 70
0
 10
0.0
 20
0.0
 30
0.0
  3
*Paper_Space
  1

  0
ENDBLK
  5
1D
330
1B
100
AcDbEntity
  8
0
100
AcDbBlockEnd
  0
ENDSEC
  0
SECTION
  2
ENTITIES
  0
LINE
  5
2F
330
17
100
AcDbEntity
  8
0
100
AcDbLine
 10
8234.02932467943
 20
-12529.4615434792
 30
0.0
 11
17488.029324678
 21
27572.5384565112
 31
0.0
  0
LINE
  5
30
330
17
100
AcDbEntity
  8
0
100
AcDbLine
 10
17488.029324678
 20
27572.5384565112
 30
0.0
 11
-19402.9706752907
 21
23856.538456514
 31
0.0
  0
LINE
  5
31
330
17
100
AcDbEntity
  8
0
100
AcDbLine
 10
-19402.9706752907
 20
23856.538456514
 30
0.0
 11
-15381.9706753247
 21
-16347.4615434746
 31
0.0
  0
LINE
  5
32
330
17
100
AcDbEntity
  8
0
100
AcDbLine
 10
-15381.9706753247
 20
-16347.4615434746
 30
0.0
 11
8234.02932467943
 21
-12529.4615434792
 31
0.0
  0
LINE
  5
33
330
17
100
AcDbEntity
  8
0
100
AcDbLine
 10
-4717.357150420903
 20
-14623.312896877947
 30
0.0
 11
4723.110088382213
 21
26286.73867114134
 31
0.0
  0
LINE
  5
34
330
17
100
AcDbEntity
  8
0
100
AcDbLine
 10
10084.829324679144
 20
-4509.061543481121
 30
0.0
 11
-1753.0016365998617
 21
-1777.3452271955189
 31
0.0
  0
LINE
  5
35
330
17
100
AcDbEntity
  8
0
100
AcDbLine
 10
11935.629324678857
 20
3511.338456516958
 30
0.0
 11
97.79836339985195
 21
6243.0547728025595
 31
0.0
  0
LINE
  5
36
330
17
100
AcDbEntity
  8
0
100
AcDbLine
 10
13786.429324678571
 20
11531.738456515035
 30
0.0
 11
1948.5983633995656
 21
14263.454772800636
 31
0.0
  0
LINE
  5
37
330
17
100
AcDbEntity
  8
0
100
AcDbLine
 10
15637.229324678285
 20
19552.138456513116
 30
0.0
 11
3799.3983633992793
 21
22283.854772798717
 31
0.0
  0
LINE
  5
38
330
17
100
AcDbEntity
  8
0
100
AcDbLine
 10
-8636.096100387287
 20
-7263.560128427034
 30
0.0
 11
-4656.235704906179
 21
-6862.672073627513
 31
0.0
  0
LINE
  5
39
330
17
100
AcDbEntity
  8
0
100
AcDbLine
 10
-7867.5985582807
 20
25018.486974765423
 30
0.0
 11
-4656.235704906179
 21
-6862.672073627513
 31
0.0
  0
LINE
  5
3A
330
17
100
AcDbEntity
  8
0
100
AcDbLine
 10
-11847.458953761809
 20
24617.5989199659
 30
0.0
 11
-8636.096100387287
 21
-7263.560128427034
 31
0.0
  0
LINE
  5
3B
330
17
100
AcDbEntity
  8
0
100
AcDbLine
 10
-6646.165902646735
 20
-7063.1161010272735
 30
0.0
 11
-5865.929145542377
 21
-14809.002593582205
 31
0.0
  0
LINE
  5
3C
330
17
100
AcDbEntity
  8
0
100
AcDbLine
 10
2550.1908872058984
 20
16870.44238785139
 30
0.0
 11
-6950.45570363187
 21
15913.450093482665
 31
0.0
  0
LINE
  5
3D
330
17
100
AcDbEntity
  8
0
100
AcDbLine
 10
2410.6128772683332
 20
16265.584234132379
 30
0.0
 11
-6891.542802309524
 21
15328.58576552717
 31
0.0
  0
LINE
  5
3E
330
17
100
AcDbEntity
  8
0
100
AcDbLine
 10
-18065.944985873848
 20
10488.276626682018
 30
0.0
 11
-10494.590227060695
 21
11260.64505474038
 31
0.0
  0
LINE
  5
3F
330
17
100
AcDbEntity
  8
0
100
AcDbLine
 10
-16445.351324144085
 20
-5715.241795779009
 30
0.0
 11
-8868.930077310408
 21
-4952.075133090642
 31
0.0
  0
LINE
  5
40
330
17
100
AcDbEntity
  8
0
100
AcDbLine
 10
8234.02932467943
 20
67470.5384565208
 30
0.0
 11
17488.029324678
 21
107572.5384565112
 31
0.0
  0
LINE
  5
41
330
17
100
AcDbEntity
  8
0
100
AcDbLine
 10
17488.029324678
 20
107572.5384565112
 30
0.0
 11
-19402.9706752907
 21
103856.538456514
 31
0.0
  0
LINE
  5
42
330
17
100
AcDbEntity
  8
0
100
AcDbLine
 10
-19402.9706752907
 20
103856.538456514
 30
0.0
 11
-15381.9706753247
 21
63652.5384565254
 31
0.0
  0
LINE
  5
43
330
17
100
AcDbEntity
  8
0
100
AcDbLine
 10
-15381.9706753247
 20
63652.5384565254
 30
0.0
 11
8234.02932467943
 21
67470.5384565208
 31
0.0
  0
LINE
  5
44
330
17
100
AcDbEntity
  8
0
100
AcDbLine
 10
-4717.357150420903
 20
65376.68710312205
 30
0.0
 11
4723.110088382213
 21
106286.73867114134
 31
0.0
  0
LINE
  5
45
330
17
100
AcDbEntity
  8
0
100
AcDbLine
 10
10084.829324679144
 20
75490.93845651888
 30
0.0
 11
-1753.0016365998617
 21
78222.65477280448
 31
0.0
  0
LINE
  5
46
330
17
100
AcDbEntity
  8
0
100
AcDbLine
 10
11935.629324678857
 20
83511.33845651695
 30
0.0
 11
97.79836339985195
 21
86243.05477280256
 31
0.0
  0
LINE
  5
47
330
17
100
AcDbEntity
  8
0
100
AcDbLine
 10
13786.429324678571
 20
91531.73845651504
 30
0.0
 11
1948.5983633995656
 21
94263.45477280064
 31
0.0
  0
LINE
  5
48
330
17
100
AcDbEntity
  8
0
100
AcDbLine
 10
15637.229324678285
 20
99552.13845651312
 30
0.0
 11
3799.3983633992793
 21
102283.85477279872
 31
0.0
  0
LINE
  5
49
330
17
100
AcDbEntity
  8
0
100
AcDbLine
 10
-11118.802027356485
 20
67160.25647365893
 30
0.0
 11
-7138.941631875374
 21
67561.14452845845
 31
0.0
  0
LINE
  5
4A
330
17
100
AcDbEntity
  8
0
100
AcDbLine
 10
-10881.409607198773
 20
104714.90827378738
 30
0.0
 11
-7138.941631875374
 21
67561.14452845845
 31
0.0
  0
LINE
  5
4B
330
17
100
AcDbEntity
  8
0
100
AcDbLine
 10
-14861.270002679885
 20
104314.02021898786
 30
0.0
 11
-11118.802027356485
 21
67160.25647365893
 31
0.0
  0
LINE
  5
4C
330
17
100
AcDbEntity
  8
0
100
AcDbLine
 10
-9128.871829615931
 20
67360.70050105869
 30
0.0
 11
-8861.53629015916
 21
64706.69743698474
 31
0.0
  0
LINE
  5
4D
330
17
100
AcDbEntity
  8
0
100
AcDbLine
 10
2918.500304831832
 20
98466.50293092831
 30
0.0
 11
-10119.72230307968
 21
97153.17352237328
 31
0.0
  0
LINE
  5
4E
330
17
100
AcDbEntity
  8
0
100
AcDbLine
 10
145.69662684717332
 20
86450.62081567747
 30
0.0
 11
-8949.381004042454
 21
85534.48114810573
 31
0.0
  0
LINE
  5
4F
330
17
100
AcDbEntity
  8
0
100
AcDbLine
 10
-17180.85785659465
 20
81638.72603085221
 30
0.0
 11
-12608.016182267778
 21
82104.36887378225
 31
0.0
  0
LINE
  5
50
330
17
100
AcDbEntity
  8
0
100
AcDbLine
 10
-17232.160330176295
 20
82151.67421485951
 30
0.0
 11
-12675.11264753681
 21
82610.7018689944
 31
0.0
  0
LINE
  5
51
330
17
100
AcDbEntity
  8
0
100
AcDbLine
 10
8234.02932467943
 20
147470.5384565208
 30
0.0
 11
17488.029324678
 21
187572.5384565112
 31
0.0
  0
LINE
  5
52
330
17
100
AcDbEntity
  8
0
100
AcDbLine
 10
17488.029324678
 20
187572.5384565112
 30
0.0
 11
-19402.9706752907
 21
183856.538456514
 31
0.0
  0
LINE
  5
53
330
17
100
AcDbEntity
  8
0
100
AcDbLine
 10
-19402.9706752907
 20
183856.538456514
 30
0.0
 11
-15381.9706753247
 21
143652.5384565254
 31
0.0
  0
LINE
  5
54
330
17
100
AcDbEntity
  8
0
100
AcDbLine
 10
-15381.9706753247
 20
143652.5384565254
 30
0.0
 11
8234.02932467943
 21
147470.5384565208
 31
0.0
  0
LINE
  5
55
330
17
100
AcDbEntity
  8
0
100
AcDbLine
 10
-4717.357150420903
 20
145376.68710312207
 30
0.0
 11
4723.110088382213
 21
186286.73867114133
 31
0.0
  0
LINE
  5
56
330
17
100
AcDbEntity
  8
0
100
AcDbLine
 10
10084.829324679144
 20
155490.93845651887
 30
0.0
 11
-1753.0016365998617
 21
158222.65477280447
 31
0.0
  0
LINE
  5
57
330
17
100
AcDbEntity
  8
0
100
AcDbLine
 10
11935.629324678857
 20
163511.33845651697
 30
0.0
 11
97.79836339985195
 21
166243.05477280257
 31
0.0
  0
LINE
  5
58
330
17
100
AcDbEntity
  8
0
100
AcDbLine
 10
13786.429324678571
 20
171531.73845651504
 30
0.0
 11
1948.5983633995656
 21
174263.45477280064
 31
0.0
  0
LINE
  5
59
330
17
100
AcDbEntity
  8
0
100
AcDbLine
 10
15637.229324678285
 20
179552.13845651312
 30
0.0
 11
3799.3983633992793
 21
182283.85477279872
 31
0.0
  0
LINE
  5
5A
330
17
100
AcDbEntity
  8
0
100
AcDbLine
 10
-12436.867520849904
 20
159285.2786807008
 30
0.0
 11
-8457.007125368793
 21
159686.16673550033
 31
0.0
  0
LINE
  5
5B
330
17
100
AcDbEntity
  8
0
100
AcDbLine
 10
-10977.160095681917
 20
184705.26340606346
 30
0.0
 11
-8457.007125368793
 21
159686.16673550033
 31
0.0
  0
LINE
  5
5C
330
17
100
AcDbEntity
  8
0
100
AcDbLine
 10
-14957.020491163028
 20
184304.37535126394
 30
0.0
 11
-12436.867520849904
 21
159285.2786807008
 31
0.0
  0
LINE
  5
5D
330
17
100
AcDbEntity
  8
0
100
AcDbLine
 10
-10446.937323109349
 20
159485.72270810057
 30
0.0
 11
-8956.708430265164
 21
144691.31095193545
 31
0.0
  0
LINE
  5
5E
330
17
100
AcDbEntity
  8
0
100
AcDbLine
 10
2918.5003048318304
 20
178466.5029309283
 30
0.0
 11
-10215.472791562821
 21
177143.52865464936
 31
0.0
  0
LINE
  5
5F
330
17
100
AcDbEntity
  8
0
100
AcDbLine
 10
-843.2648422447432
 20
162164.9786248929
 30
0.0
 11
-8627.711947238484
 21
161380.85768910474
 31
0.0
  0
LINE
  5
60
330
17
100
AcDbEntity
  8
0
100
AcDbLine
 10
-17132.83939362383
 20
161158.61305266406
 30
0.0
 11
-12647.013792416086
 21
161617.82464233073
 31
0.0
  0
LINE
  5
61
330
17
100
AcDbEntity
  8
0
100
AcDbLine
 10
-16934.569613883275
 20
159176.2111066918
 30
0.0
 11
-12471.168538235088
 21
159625.80581535003
 31
0.0
  0
LINE
  5
62
330
17
100
AcDbEntity
  8
0
100
AcDbLine
 10
8234.02932467943
 20
227470.5384565208
 30
0.0
 11
17488.029324678
 21
267572.5384565112
 31
0.0
  0
LINE
  5
63
330
17
100
AcDbEntity
  8
0
100
AcDbLine
 10
17488.029324678
 20
267572.5384565112
 30
0.0
 11
-19402.9706752907
 21
263856.538456514
 31
0.0
  0
LINE
  5
64
330
17
100
AcDbEntity
  8
0
100
AcDbLine
 10
-19402.9706752907
 20
263856.538456514
 30
0.0
 11
-15381.9706753247
 21
223652.5384565254
 31
0.0
  0
LINE
  5
65
330
17
100
AcDbEntity
  8
0
100
AcDbLine
 10
-15381.9706753247
 20
223652.5384565254
 30
0.0
 11
8234.02932467943
 21
227470.5384565208
 31
0.0
  0
LINE
  5
66
330
17
100
AcDbEntity
  8
0
100
AcDbLine
 10
-4717.357150420903
 20
225376.68710312207
 30
0.0
 11
4723.110088382213
 21
266286.7386711413
 31
0.0
  0
LINE
  5
67
330
17
100
AcDbEntity
  8
0
100
AcDbLine
 10
10084.829324679144
 20
235490.93845651887
 30
0.0
 11
-1753.0016365998617
 21
238222.65477280447
 31
0.0
  0
LINE
  5
68
330
17
100
AcDbEntity
  8
0
100
AcDbLine
 10
11935.629324678857
 20
243511.33845651697
 30
0.0
 11
97.79836339985195
 21
246243.05477280257
 31
0.0
  0
LINE
  5
69
330
17
100
AcDbEntity
  8
0
100
AcDbLine
 10
13786.429324678571
 20
251531.73845651504
 30
0.0
 11
1948.5983633995656
 21
254263.45477280064
 31
0.0
  0
LINE
  5
6A
330
17
100
AcDbEntity
  8
0
100
AcDbLine
 10
15637.229324678285
 20
259552.13845651312
 30
0.0
 11
3799.3983633992793
 21
262283.8547727987
 31
0.0
  0
LINE
  5
6B
330
17
100
AcDbEntity
  8
0
100
AcDbLine
 10
-12091.936636610688
 20
238176.0162767204
 30
0.0
 11
-8112.076241129576
 21
238576.9043315199
 31
0.0
  0
LINE
  5
6C
330
17
100
AcDbEntity
  8
0
100
AcDbLine
 10
-10746.306622406115
 20
264728.5170860042
 30
0.0
 11
-8112.076241129576
 21
238576.9043315199
 31
0.0
  0
LINE
  5
6D
330
17
100
AcDbEntity
  8
0
100
AcDbLine
 10
-14726.167017887226
 20
264327.6290312047
 30
0.0
 11
-12091.936636610688
 21
238176.0162767204
 31
0.0
  0
LINE
  5
6E
330
17
100
AcDbEntity
  8
0
100
AcDbLine
 10
-10102.00643887013
 20
238376.46030412015
 30
0.0
 11
-8727.249349161571
 21
224728.4076140142
 31
0.0
  0
LINE
  5
6F
330
17
100
AcDbEntity
  8
0
100
AcDbLine
 10
2918.5003048318304
 20
258466.5029309283
 30
0.0
 11
-9984.619318287021
 21
257166.78233459007
 31
0.0
  0
LINE
  5
70
330
17
100
AcDbEntity
  8
0
100
AcDbLine
 10
-705.4937045136821
 20
242762.0067387129
 30
0.0
 11
-8455.00873306043
 21
241981.40448217114
 31
0.0
  0
LINE
  5
71
330
17
100
AcDbEntity
  8
0
100
AcDbLine
 10
-17244.728858148774
 20
242277.3407402536
 30
0.0
 11
-12531.66042498352
 21
242759.47505687852
 31
0.0
  0
LINE
  5
72
330
17
100
AcDbEntity
  8
0
100
AcDbLine
 10
-16882.287304194633
 20
238653.46602369272
 30
0.0
 11
-12187.66313425197
 21
239126.35164391197
 31
0.0
  0
LINE
  5
73
330
17
100
AcDbEntity
  8
0
100
AcDbLine
 10
108234.02932467943
 20
-12529.4615434792
 30
0.0
 11
117488.029324678
 21
27572.5384565112
 31
0.0
  0
LINE
  5
74
330
17
100
AcDbEntity
  8
0
100
AcDbLine
 10
117488.029324678
 20
27572.5384565112
 30
0.0
 11
80597.02932470929
 21
23856.538456514
 31
0.0
  0
LINE
  5
75
330
17
100
AcDbEntity
  8
0
100
AcDbLine
 10
80597.02932470929
 20
23856.538456514
 30
0.0
 11
84618.0293246753
 21
-16347.4615434746
 31
0.0
  0
LINE
  5
76
330
17
100
AcDbEntity
  8
0
100
AcDbLine
 10
84618.0293246753
 20
-16347.4615434746
 30
0.0
 11
108234.02932467943
 21
-12529.4615434792
 31
0.0
  0
LINE
  5
77
330
17
100
AcDbEntity
  8
0
100
AcDbLine
 10
95282.6428495791
 20
-14623.312896877947
 30
0.0
 11
104723.11008838221
 21
26286.73867114134
 31
0.0
  0
LINE
  5
78
330
17
100
AcDbEntity
  8
0
100
AcDbLine
 10
110084.82932467914
 20
-4509.061543481121
 30
0.0
 11
98246.99836340014
 21
-1777.3452271955189
 31
0.0
  0
LINE
  5
79
330
17
100
AcDbEntity
  8
0
100
AcDbLine
 10
111935.62932467886
 20
3511.338456516958
 30
0.0
 11
100097.79836339985
 21
6243.0547728025595
 31
0.0
  0
LINE
  5
7A
330
17
100
AcDbEntity
  8
0
100
AcDbLine
 10
113786.42932467857
 20
11531.738456515035
 30
0.0
 11
101948.59836339956
 21
14263.454772800636
 31
0.0
  0
LINE
  5
7B
330
17
100
AcDbEntity
  8
0
100
AcDbLine
 10
115637.22932467828
 20
19552.138456513116
 30
0.0
 11
103799.39836339928
 21
22283.854772798717
 31
0.0
  0
LINE
  5
7C
330
17
100
AcDbEntity
  8
0
100
AcDbLine
 10
88088.61324529132
 20
-1424.538279468754
 30
0.0
 11
92068.47364077243
 21
-1023.6502246692326
 31
0.0
  0
LINE
  5
7D
330
17
100
AcDbEntity
  8
0
100
AcDbLine
 10
89472.2613982715
 20
24750.533262438486
 30
0.0
 11
92068.47364077243
 21
-1023.6502246692326
 31
0.0
  0
LINE
  5
7E
330
17
100
AcDbEntity
  8
0
100
AcDbLine
 10
85492.40100279039
 20
24349.645207638965
 30
0.0
 11
88088.61324529132
 21
-1424.538279468754
 31
0.0
  0
LINE
  5
7F
330
17
100
AcDbEntity
  8
0
100
AcDbLine
 10
90078.54344303187
 20
-1224.0942520689932
 30
0.0
 11
91489.99848545688
 21
-15236.46991678812
 31
0.0
  0
LINE
  5
80
330
17
100
AcDbEntity
  8
0
100
AcDbLine
 10
102918.50030483183
 20
18466.502930928305
 30
0.0
 11
90233.9487023906
 21
17188.798511024375
 31
0.0
  0
LINE
  5
81
330
17
100
AcDbEntity
  8
0
100
AcDbLine
 10
99433.94585290158
 20
3366.2649115534787
 30
0.0
 11
91704.70482415182
 21
2587.7048382879975
 31
0.0
  0
LINE
  5
82
330
17
100
AcDbEntity
  8
0
100
AcDbLine
 10
82659.09299347732
 20
3238.978710225314
 30
0.0
 11
87588.81211926119
 21
3743.390806817006
 31
0.0
  0
LINE
  5
83
330
17
100
AcDbEntity
  8
0
100
AcDbLine
 10
83163.94091213864
 20
-1808.7471594652125
 30
0.0
 11
88077.45992306419
 21
-1313.8124424718762
 31
0.0
  0
LINE
  5
84
330
17
100
AcDbEntity
  8
0
100
AcDbLine
 10
108234.02932467943
 20
67470.5384565208
 30
0.0
 11
117488.029324678
 21
107572.5384565112
 31
0.0
  0
LINE
  5
85
330
17
100
AcDbEntity
  8
0
100
AcDbLine
 10
117488.029324678
 20
107572.5384565112
 30
0.0
 11
80597.02932470929
 21
103856.538456514
 31
0.0
  0
LINE
  5
86
330
17
100
AcDbEntity
  8
0
100
AcDbLine
 10
80597.02932470929
 20
103856.538456514
 30
0.0
 11
84618.0293246753
 21
63652.5384565254
 31
0.0
  0
LINE
  5
87
330
17
100
AcDbEntity
  8
0
100
AcDbLine
 10
84618.0293246753
 20
63652.5384565254
 30
0.0
 11
108234.02932467943
 21
67470.5384565208
 31
0.0
  0
LINE
  5
88
330
17
100
AcDbEntity
  8
0
100
AcDbLine
 10
95282.6428495791
 20
65376.68710312205
 30
0.0
 11
104723.11008838221
 21
106286.73867114134
 31
0.0
  0
LINE
  5
89
330
17
100
AcDbEntity
  8
0
100
AcDbLine
 10
110084.82932467914
 20
75490.93845651888
 30
0.0
 11
98246.99836340014
 21
78222.65477280448
 31
0.0
  0
LINE
  5
8A
330
17
100
AcDbEntity
  8
0
100
AcDbLine
 10
111935.62932467886
 20
83511.33845651695
 30
0.0
 11
100097.79836339985
 21
86243.05477280256
 31
0.0
  0
LINE
  5
8B
330
17
100
AcDbEntity
  8
0
100
AcDbLine
 10
113786.42932467857
 20
91531.73845651504
 30
0.0
 11
101948.59836339956
 21
94263.45477280064
 31
0.0
  0
LINE
  5
8C
330
17
100
AcDbEntity
  8
0
100
AcDbLine
 10
115637.22932467828
 20
99552.13845651312
 30
0.0
 11
103799.39836339928
 21
102283.85477279872
 31
0.0
  0
LINE
  5
8D
330
17
100
AcDbEntity
  8
0
100
AcDbLine
 10
92035.35286079599
 20
72586.83085167469
 30
0.0
 11
96015.21325627709
 21
72987.71890647421
 31
0.0
  0
LINE
  5
8E
330
17
100
AcDbEntity
  8
0
100
AcDbLine
 10
92782.1874426773
 20
105083.93938265787
 30
0.0
 11
96015.21325627709
 21
72987.71890647421
 31
0.0
  0
LINE
  5
8F
330
17
100
AcDbEntity
  8
0
100
AcDbLine
 10
88802.32704719619
 20
104683.05132785835
 30
0.0
 11
92035.35286079599
 21
72586.83085167469
 31
0.0
  0
LINE
  5
90
330
17
100
AcDbEntity
  8
0
100
AcDbLine
 10
94025.28305853653
 20
72787.27487907445
 30
0.0
 11
94779.93204328051
 21
65295.41381982067
 31
0.0
  0
LINE
  5
91
330
17
100
AcDbEntity
  8
0
100
AcDbLine
 10
102399.57874068373
 20
96217.76805244712
 30
0.0
 11
93762.90047238434
 21
95347.80257455268
 31
0.0
  0
LINE
  5
92
330
17
100
AcDbEntity
  8
0
100
AcDbLine
 10
81828.39485032693
 20
91544.7206021653
 30
0.0
 11
90047.32987960117
 21
92383.07840061563
 31
0.0
  0
LINE
  5
93
330
17
100
AcDbEntity
  8
0
100
AcDbLine
 10
83574.5436293687
 20
74085.83835566737
 30
0.0
 11
91800.8915288077
 21
74914.4715939726
 31
0.0
  0
LINE
  5
94
330
17
100
AcDbEntity
  8
0
100
AcDbLine
 10
108234.02932467943
 20
147470.5384565208
 30
0.0
 11
117488.029324678
 21
187572.5384565112
 31
0.0
  0
LINE
  5
95
330
17
100
AcDbEntity
  8
0
100
AcDbLine
 10
117488.029324678
 20
187572.5384565112
 30
0.0
 11
80597.02932470929
 21
183856.538456514
 31
0.0
  0
LINE
  5
96
330
17
100
AcDbEntity
  8
0
100
AcDbLine
 10
80597.02932470929
 20
183856.538456514
 30
0.0
 11
84618.0293246753
 21
143652.5384565254
 31
0.0
  0
LINE
  5
97
330
17
100
AcDbEntity
  8
0
100
AcDbLine
 10
84618.0293246753
 20
143652.5384565254
 30
0.0
 11
108234.02932467943
 21
147470.5384565208
 31
0.0
  0
LINE
  5
98
330
17
100
AcDbEntity
  8
0
100
AcDbLine
 10
95282.6428495791
 20
145376.68710312207
 30
0.0
 11
104723.11008838221
 21
186286.73867114133
 31
0.0
  0
LINE
  5
99
330
17
100
AcDbEntity
  8
0
100
AcDbLine
 10
110084.82932467914
 20
155490.93845651887
 30
0.0
 11
98246.99836340014
 21
158222.65477280447
 31
0.0
  0
LINE
  5
9A
330
17
100
AcDbEntity
  8
0
100
AcDbLine
 10
111935.62932467886
 20
163511.33845651697
 30
0.0
 11
100097.79836339985
 21
166243.05477280257
 31
0.0
  0
LINE
  5
9B
330
17
100
AcDbEntity
  8
0
100
AcDbLine
 10
113786.42932467857
 20
171531.73845651504
 30
0.0
 11
101948.59836339956
 21
174263.45477280064
 31
0.0
  0
LINE
  5
9C
330
17
100
AcDbEntity
  8
0
100
AcDbLine
 10
115637.22932467828
 20
179552.13845651312
 30
0.0
 11
103799.39836339928
 21
182283.85477279872
 31
0.0
  0
LINE
  5
9D
330
17
100
AcDbEntity
  8
0
100
AcDbLine
 10
87953.68346517233
 20
156219.86385183065
 30
0.0
 11
91933.54386065344
 21
156620.75190663018
 31
0.0
  0
LINE
  5
9E
330
17
100
AcDbEntity
  8
0
100
AcDbLine
 10
89103.79280535248
 20
184713.41772500964
 30
0.0
 11
91933.54386065344
 21
156620.75190663018
 31
0.0
  0
LINE
  5
9F
330
17
100
AcDbEntity
  8
0
100
AcDbLine
 10
85123.93240987137
 20
184312.52967021012
 30
0.0
 11
87953.68346517233
 21
156219.86385183065
 31
0.0
  0
LINE
  5
A0
330
17
100
AcDbEntity
  8
0
100
AcDbLine
 10
89943.61366291289
 20
156420.30787923041
 30
0.0
 11
91123.75550220437
 21
144704.31956025897
 31
0.0
  0
LINE
  5
A1
330
17
100
AcDbEntity
  8
0
100
AcDbLine
 10
102918.50030483183
 20
178466.5029309283
 30
0.0
 11
89865.48010947157
 21
177151.68297359554
 31
0.0
  0
LINE
  5
A2
330
17
100
AcDbEntity
  8
0
100
AcDbLine
 10
99203.99542634985
 20
162369.77993148248
 30
0.0
 11
91433.29340230534
 21
161587.04352636056
 31
0.0
  0
LINE
  5
A3
330
17
100
AcDbEntity
  8
0
100
AcDbLine
 10
82826.55635060911
 20
161564.59502204286
 30
0.0
 11
87389.8074674958
 21
162030.9018360675
 31
0.0
  0
LINE
  5
A4
330
17
100
AcDbEntity
  8
0
100
AcDbLine
 10
83084.19118844491
 20
158988.63107764215
 30
0.0
 11
87628.67779864941
 21
159446.39346531182
 31
0.0
  0
LINE
  5
A5
330
17
100
AcDbEntity
  8
0
100
AcDbLine
 10
108234.02932467943
 20
227470.5384565208
 30
0.0
 11
117488.029324678
 21
267572.5384565112
 31
0.0
  0
LINE
  5
A6
330
17
100
AcDbEntity
  8
0
100
AcDbLine
 10
117488.029324678
 20
267572.5384565112
 30
0.0
 11
80597.02932470929
 21
263856.538456514
 31
0.0
  0
LINE
  5
A7
330
17
100
AcDbEntity
  8
0
100
AcDbLine
 10
80597.02932470929
 20
263856.538456514
 30
0.0
 11
84618.0293246753
 21
223652.5384565254
 31
0.0
  0
LINE
  5
A8
330
17
100
AcDbEntity
  8
0
100
AcDbLine
 10
84618.0293246753
 20
223652.5384565254
 30
0.0
 11
108234.02932467943
 21
227470.5384565208
 31
0.0
  0
LINE
  5
A9
330
17
100
AcDbEntity
  8
0
100
AcDbLine
 10
95282.6428495791
 20
225376.68710312207
 30
0.0
 11
104723.11008838221
 21
266286.7386711413
 31
0.0
  0
LINE
  5
AA
330
17
100
AcDbEntity
  8
0
100
AcDbLine
 10
110084.82932467914
 20
235490.93845651887
 30
0.0
 11
98246.99836340014
 21
238222.65477280447
 31
0.0
  0
LINE
  5
AB
330
17
100
AcDbEntity
  8
0
100
AcDbLine
 10
111935.62932467886
 20
243511.33845651697
 30
0.0
 11
100097.79836339985
 21
246243.05477280257
 31
0.0
  0
LINE
  5
AC
330
17
100
AcDbEntity
  8
0
100
AcDbLine
 10
113786.42932467857
 20
251531.73845651504
 30
0.0
 11
101948.59836339956
 21
254263.45477280064
 31
0.0
  0
LINE
  5
AD
330
17
100
AcDbEntity
  8
0
100
AcDbLine
 10
115637.22932467828
 20
259552.13845651312
 30
0.0
 11
103799.39836339928
 21
262283.8547727987
 31
0.0
  0
LINE
  5
AE
330
17
100
AcDbEntity
  8
0
100
AcDbLine
 10
91902.83104119466
 20
230487.0815616702
 30
0.0
 11
95882.69143667577
 21
230887.96961646972
 31
0.0
  0
LINE
  5
AF
330
17
100
AcDbEntity
  8
0
100
AcDbLine
 10
92441.61518016951
 20
265049.6338195807
 30
0.0
 11
95882.69143667577
 21
230887.96961646972
 31
0.0
  0
LINE
  5
B0
330
17
100
AcDbEntity
  8
0
100
AcDbLine
 10
88461.7547846884
 20
264648.7457647812
 30
0.0
 11
91902.83104119466
 21
230487.0815616702
 31
0.0
  0
LINE
  5
B1
330
17
100
AcDbEntity
  8
0
100
AcDbLine
 10
93892.76123893521
 20
230687.52558906996
 30
0.0
 11
94441.41689210906
 21
225240.68605698316
 31
0.0
  0
LINE
  5
B2
330
17
100
AcDbEntity
  8
0
100
AcDbLine
 10
102481.03156776052
 20
256570.74203898624
 30
0.0
 11
93387.9487086489
 21
255654.80330313026
 31
0.0
  0
LINE
  5
B3
330
17
100
AcDbEntity
  8
0
100
AcDbLine
 10
81881.53286680781
 20
251013.4197281005
 30
0.0
 11
89760.64036266133
 21
251816.4998944846
 31
0.0
  0
LINE
  5
B4
330
17
100
AcDbEntity
  8
0
100
AcDbLine
 10
83531.57527008807
 20
234515.45783254673
 30
0.0
 11
91417.04713297368
 21
235309.75490886575
 31
0.0
  0
LINE
  5
B5
330
17
100
AcDbEntity
  8
0
100
AcDbLine
 10
208234.02932467943
 20
-12529.4615434792
 30
0.0
 11
217488.029324678
 21
27572.5384565112
 31
0.0
  0
LINE
  5
B6
330
17
100
AcDbEntity
  8
0
100
AcDbLine
 10
217488.029324678
 20
27572.5384565112
 30
0.0
 11
180597.0293247093
 21
23856.538456514
 31
0.0
  0
LINE
  5
B7
330
17
100
AcDbEntity
  8
0
100
AcDbLine
 10
180597.0293247093
 20
23856.538456514
 30
0.0
 11
184618.0293246753
 21
-16347.4615434746
 31
0.0
  0
LINE
  5
B8
330
17
100
AcDbEntity
  8
0
100
AcDbLine
 10
184618.0293246753
 20
-16347.4615434746
 30
0.0
 11
208234.02932467943
 21
-12529.4615434792
 31
0.0
  0
LINE
  5
B9
330
17
100
AcDbEntity
  8
0
100
AcDbLine
 10
195282.6428495791
 20
-14623.312896877947
 30
0.0
 11
204723.1100883822
 21
26286.73867114134
 31
0.0
  0
LINE
  5
BA
330
17
100
AcDbEntity
  8
0
100
AcDbLine
 10
210084.82932467916
 20
-4509.061543481121
 30
0.0
 11
198246.99836340014
 21
-1777.3452271955189
 31
0.0
  0
LINE
  5
BB
330
17
100
AcDbEntity
  8
0
100
AcDbLine
 10
211935.62932467886
 20
3511.338456516958
 30
0.0
 11
200097.79836339987
 21
6243.0547728025595
 31
0.0
  0
LINE
  5
BC
330
17
100
AcDbEntity
  8
0
100
AcDbLine
 10
213786.42932467858
 20
11531.738456515035
 30
0.0
 11
201948.59836339956
 21
14263.454772800636
 31
0.0
  0
LINE
  5
BD
330
17
100
AcDbEntity
  8
0
100
AcDbLine
 10
215637.22932467828
 20
19552.138456513116
 30
0.0
 11
203799.3983633993
 21
22283.854772798717
 31
0.0
  0
LINE
  5
BE
330
17
100
AcDbEntity
  8
0
100
AcDbLine
 10
191506.63161418345
 20
691.9013729338658
 30
0.0
 11
195486.49200966457
 21
1092.7894277333871
 31
0.0
  0
LINE
  5
BF
330
17
100
AcDbEntity
  8
0
100
AcDbLine
 10
193066.99351722555
 20
25112.627663621282
 30
0.0
 11
195486.49200966457
 21
1092.7894277333871
 31
0.0
  0
LINE
  5
C0
330
17
100
AcDbEntity
  8
0
100
AcDbLine
 10
189087.13312174444
 20
24711.73960882176
 30
0.0
 11
191506.63161418345
 21
691.9013729338658
 31
0.0
  0
LINE
  5
C1
330
17
100
AcDbEntity
  8
0
100
AcDbLine
 10
193496.561811924
 20
892.3454003336263
 30
0.0
 11
195063.01784325234
 21
-14658.819683554539
 31
0.0
  0
LINE
  5
C2
330
17
100
AcDbEntity
  8
0
100
AcDbLine
 10
202326.7768722385
 20
15902.282799757408
 30
0.0
 11
194078.43466301417
 21
15071.434092769776
 31
0.0
  0
LINE
  5
C3
330
17
100
AcDbEntity
  8
0
100
AcDbLine
 10
181787.55125861263
 20
11953.095573887545
 30
0.0
 11
190291.94320384326
 21
12824.27584789784
 31
0.0
  0
LINE
  5
C4
330
17
100
AcDbEntity
  8
0
100
AcDbLine
 10
183643.9331725795
 20
-6607.953535720484
 30
0.0
 11
194145.50790858804
 21
-5550.138574916721
 31
0.0
  0
LINE
  5
C5
330
17
100
AcDbEntity
  8
0
100
AcDbLine
 10
208234.02932467943
 20
67470.5384565208
 30
0.0
 11
217488.029324678
 21
107572.5384565112
 31
0.0
  0
LINE
  5
C6
330
17
100
AcDbEntity
  8
0
100
AcDbLine
 10
217488.029324678
 20
107572.5384565112
 30
0.0
 11
180597.0293247093
 21
103856.538456514
 31
0.0
  0
LINE
  5
C7
330
17
100
AcDbEntity
  8
0
100
AcDbLine
 10
180597.0293247093
 20
103856.538456514
 30
0.0
 11
184618.0293246753
 21
63652.5384565254
 31
0.0
  0
LINE
  5
C8
330
17
100
AcDbEntity
  8
0
100
AcDbLine
 10
184618.0293246753
 20
63652.5384565254
 30
0.0
 11
208234.02932467943
 21
67470.5384565208
 31
0.0
  0
LINE
  5
C9
330
17
100
AcDbEntity
  8
0
100
AcDbLine
 10
195282.6428495791
 20
65376.68710312205
 30
0.0
 11
204723.1100883822
 21
106286.73867114134
 31
0.0
  0
LINE
  5
CA
330
17
100
AcDbEntity
  8
0
100
AcDbLine
 10
210084.82932467916
 20
75490.93845651888
 30
0.0
 11
198246.99836340014
 21
78222.65477280448
 31
0.0
  0
LINE
  5
CB
330
17
100
AcDbEntity
  8
0
100
AcDbLine
 10
211935.62932467886
 20
83511.33845651695
 30
0.0
 11
200097.79836339987
 21
86243.05477280256
 31
0.0
  0
LINE
  5
CC
330
17
100
AcDbEntity
  8
0
100
AcDbLine
 10
213786.42932467858
 20
91531.73845651504
 30
0.0
 11
201948.59836339956
 21
94263.45477280064
 31
0.0
  0
LINE
  5
CD
330
17
100
AcDbEntity
  8
0
100
AcDbLine
 10
215637.22932467828
 20
99552.13845651312
 30
0.0
 11
203799.3983633993
 21
102283.85477279872
 31
0.0
  0
LINE
  5
CE
330
17
100
AcDbEntity
  8
0
100
AcDbLine
 10
191482.21435656026
 20
79058.81713783344
 30
0.0
 11
195462.07475204137
 21
79459.70519263296
 31
0.0
  0
LINE
  5
CF
330
17
100
AcDbEntity
  8
0
100
AcDbLine
 10
192879.97459424735
 20
105093.78940177457
 30
0.0
 11
195462.07475204137
 21
79459.70519263296
 31
0.0
  0
LINE
  5
D0
330
17
100
AcDbEntity
  8
0
100
AcDbLine
 10
188900.11419876624
 20
104692.90134697505
 30
0.0
 11
191482.21435656026
 21
79058.81713783344
 31
0.0
  0
LINE
  5
D1
330
17
100
AcDbEntity
  8
0
100
AcDbLine
 10
193472.14455430082
 20
79259.2611652332
 30
0.0
 11
194877.12854470024
 21
65311.12758347328
 31
0.0
  0
LINE
  5
D2
330
17
100
AcDbEntity
  8
0
100
AcDbLine
 10
202375.08639726674
 20
96111.63103540492
 30
0.0
 11
193871.02531978145
 21
95255.02397775026
 31
0.0
  0
LINE
  5
D3
330
17
100
AcDbEntity
  8
0
100
AcDbLine
 10
202174.47627153946
 20
95242.29158631111
 30
0.0
 11
193955.69857559388
 21
94414.4208883594
 31
0.0
  0
LINE
  5
D4
330
17
100
AcDbEntity
  8
0
100
AcDbLine
 10
181814.19530648692
 20
91686.69485248833
 30
0.0
 11
190131.83482651692
 21
92537.8346837557
 31
0.0
  0
LINE
  5
D5
330
17
100
AcDbEntity
  8
0
100
AcDbLine
 10
183627.403814525
 20
73557.31538027772
 30
0.0
 11
193941.84276970805
 21
74596.28030824021
 31
0.0
  0
LINE
  5
D6
330
17
100
AcDbEntity
  8
0
100
AcDbLine
 10
208234.02932467943
 20
147470.5384565208
 30
0.0
 11
217488.029324678
 21
187572.5384565112
 31
0.0
  0
LINE
  5
D7
330
17
100
AcDbEntity
  8
0
100
AcDbLine
 10
217488.029324678
 20
187572.5384565112
 30
0.0
 11
180597.0293247093
 21
183856.538456514
 31
0.0
  0
LINE
  5
D8
330
17
100
AcDbEntity
  8
0
100
AcDbLine
 10
180597.0293247093
 20
183856.538456514
 30
0.0
 11
184618.0293246753
 21
143652.5384565254
 31
0.0
  0
LINE
  5
D9
330
17
100
AcDbEntity
  8
0
100
AcDbLine
 10
184618.0293246753
 20
143652.5384565254
 30
0.0
 11
208234.02932467943
 21
147470.5384565208
 31
0.0
  0
LINE
  5
DA
330
17
100
AcDbEntity
  8
0
100
AcDbLine
 10
195282.6428495791
 20
145376.68710312207
 30
0.0
 11
204723.1100883822
 21
186286.73867114133
 31
0.0
  0
LINE
  5
DB
330
17
100
AcDbEntity
  8
0
100
AcDbLine
 10
210084.82932467916
 20
155490.93845651887
 30
0.0
 11
198246.99836340014
 21
158222.65477280447
 31
0.0
  0
LINE
  5
DC
330
17
100
AcDbEntity
  8
0
100
AcDbLine
 10
211935.62932467886
 20
163511.33845651697
 30
0.0
 11
200097.79836339987
 21
166243.05477280257
 31
0.0
  0
LINE
  5
DD
330
17
100
AcDbEntity
  8
0
100
AcDbLine
 10
213786.42932467858
 20
171531.73845651504
 30
0.0
 11
201948.59836339956
 21
174263.45477280064
 31
0.0
  0
LINE
  5
DE
330
17
100
AcDbEntity
  8
0
100
AcDbLine
 10
215637.22932467828
 20
179552.13845651312
 30
0.0
 11
203799.3983633993
 21
182283.85477279872
 31
0.0
  0
LINE
  5
DF
330
17
100
AcDbEntity
  8
0
100
AcDbLine
 10
191654.0549759595
 20
157241.04520370657
 30
0.0
 11
195633.9153714406
 21
157641.9332585061
 31
0.0
  0
LINE
  5
E0
330
17
100
AcDbEntity
  8
0
100
AcDbLine
 10
192868.8256672358
 20
185092.66637955303
 30
0.0
 11
195633.9153714406
 21
157641.9332585061
 31
0.0
  0
LINE
  5
E1
330
17
100
AcDbEntity
  8
0
100
AcDbLine
 10
188888.96527175469
 20
184691.7783247535
 30
0.0
 11
191654.0549759595
 21
157241.04520370657
 31
0.0
  0
LINE
  5
E2
330
17
100
AcDbEntity
  8
0
100
AcDbLine
 10
193643.98517370006
 20
157441.48923110633
 30
0.0
 11
194866.04695900407
 21
145309.33602291316
 31
0.0
  0
LINE
  5
E3
330
17
100
AcDbEntity
  8
0
100
AcDbLine
 10
202377.9048706145
 20
176123.8448260027
 30
0.0
 11
193858.6867752772
 21
175265.71101444223
 31
0.0
  0
LINE
  5
E4
330
17
100
AcDbEntity
  8
0
100
AcDbLine
 10
202156.64742167544
 20
175165.0306680869
 30
0.0
 11
193952.07482588783
 21
174338.59083815684
 31
0.0
  0
LINE
  5
E5
330
17
100
AcDbEntity
  8
0
100
AcDbLine
 10
181815.73887779287
 20
171671.26144269353
 30
0.0
 11
190121.86673277972
 21
172520.33057996156
 31
0.0
  0
LINE
  5
E6
330
17
100
AcDbEntity
  8
0
100
AcDbLine
 10
183626.3988338173
 20
153567.3636877566
 30
0.0
 11
193929.6817570618
 21
154605.2048778241
 31
0.0
  0
LINE
  5
E7
330
17
100
AcDbEntity
  8
0
100
AcDbLine
 10
208234.02932467943
 20
227470.5384565208
 30
0.0
 11
217488.029324678
 21
267572.5384565112
 31
0.0
  0
LINE
  5
E8
330
17
100
AcDbEntity
  8
0
100
AcDbLine
 10
217488.029324678
 20
267572.5384565112
 30
0.0
 11
180597.0293247093
 21
263856.538456514
 31
0.0
  0
LINE
  5
E9
330
17
100
AcDbEntity
  8
0
100
AcDbLine
 10
180597.0293247093
 20
263856.538456514
 30
0.0
 11
184618.0293246753
 21
223652.5384565254
 31
0.0
  0
LINE
  5
EA
330
17
100
AcDbEntity
  8
0
100
AcDbLine
 10
184618.0293246753
 20
223652.5384565254
 30
0.0
 11
208234.02932467943
 21
227470.5384565208
 31
0.0
  0
LINE
  5
EB
330
17
100
AcDbEntity
  8
0
100
AcDbLine
 10
195282.6428495791
 20
225376.68710312207
 30
0.0
 11
204723.1100883822
 21
266286.7386711413
 31
0.0
  0
LINE
  5
EC
330
17
100
AcDbEntity
  8
0
100
AcDbLine
 10
210084.82932467916
 20
235490.93845651887
 30
0.0
 11
198246.99836340014
 21
238222.65477280447
 31
0.0
  0
LINE
  5
ED
330
17
100
AcDbEntity
  8
0
100
AcDbLine
 10
211935.62932467886
 20
243511.33845651697
 30
0.0
 11
200097.79836339987
 21
246243.05477280257
 31
0.0
  0
LINE
  5
EE
330
17
100
AcDbEntity
  8
0
100
AcDbLine
 10
213786.42932467858
 20
251531.73845651504
 30
0.0
 11
201948.59836339956
 21
254263.45477280064
 31
0.0
  0
LINE
  5
EF
330
17
100
AcDbEntity
  8
0
100
AcDbLine
 10
215637.22932467828
 20
259552.13845651312
 30
0.0
 11
203799.3983633993
 21
262283.8547727987
 31
0.0
  0
LINE
  5
F0
330
17
100
AcDbEntity
  8
0
100
AcDbLine
 10
189255.971059957
 20
232975.77325995575
 30
0.0
 11
193235.8314554381
 21
233376.66131475527
 31
0.0
  0
LINE
  5
F1
330
17
100
AcDbEntity
  8
0
100
AcDbLine
 10
190069.50733695773
 20
264810.6933531966
 30
0.0
 11
193235.8314554381
 21
233376.66131475527
 31
0.0
  0
LINE
  5
F2
330
17
100
AcDbEntity
  8
0
100
AcDbLine
 10
186089.64694147662
 20
264409.8052983971
 30
0.0
 11
189255.971059957
 21
232975.77325995575
 31
0.0
  0
LINE
  5
F3
330
17
100
AcDbEntity
  8
0
100
AcDbLine
 10
191245.90125769755
 20
233176.2172873555
 30
0.0
 11
192083.63696244903
 21
224859.50364796259
 31
0.0
  0
LINE
  5
F4
330
17
100
AcDbEntity
  8
0
100
AcDbLine
 10
202918.50030483183
 20
258466.5029309283
 30
0.0
 11
190831.1946410768
 21
257248.9586017825
 31
0.0
  0
LINE
  5
F5
330
17
100
AcDbEntity
  8
0
100
AcDbLine
 10
199867.6175045973
 20
245245.57121977693
 30
0.0
 11
192118.9072072373
 21
244465.0500231438
 31
0.0
  0
LINE
  5
F6
330
17
100
AcDbEntity
  8
0
100
AcDbLine
 10
182435.10941102568
 20
245478.4803140451
 30
0.0
 11
187953.9260936493
 21
246041.5673920696
 31
0.0
  0
LINE
  5
F7
330
17
100
AcDbEntity
  8
0
100
AcDbLine
 10
183276.3054023559
 20
237067.77560483926
 30
0.0
 11
188787.86473686737
 21
237622.95043032643
 31
0.0
  0
LINE
  5
F8
330
17
100
AcDbEntity
  8
0
100
AcDbLine
 10
308234.0293246794
 20
-12529.4615434792
 30
0.0
 11
317488.029324678
 21
27572.5384565112
 31
0.0
  0
LINE
  5
F9
330
17
100
AcDbEntity
  8
0
100
AcDbLine
 10
317488.029324678
 20
27572.5384565112
 30
0.0
 11
280597.0293247093
 21
23856.538456514
 31
0.0
  0
LINE
  5
FA
330
17
100
AcDbEntity
  8
0
100
AcDbLine
 10
280597.0293247093
 20
23856.538456514
 30
0.0
 11
284618.0293246753
 21
-16347.4615434746
 31
0.0
  0
LINE
  5
FB
330
17
100
AcDbEntity
  8
0
100
AcDbLine
 10
284618.0293246753
 20
-16347.4615434746
 30
0.0
 11
308234.0293246794
 21
-12529.4615434792
 31
0.0
  0
LINE
  5
FC
330
17
100
AcDbEntity
  8
0
100
AcDbLine
 10
295282.6428495791
 20
-14623.312896877947
 30
0.0
 11
304723.1100883822
 21
26286.73867114134
 31
0.0
  0
LINE
  5
FD
330
17
100
AcDbEntity
  8
0
100
AcDbLine
 10
310084.82932467916
 20
-4509.061543481121
 30
0.0
 11
298246.9983634001
 21
-1777.3452271955189
 31
0.0
  0
LINE
  5
FE
330
17
100
AcDbEntity
  8
0
100
AcDbLine
 10
311935.62932467886
 20
3511.338456516958
 30
0.0
 11
300097.79836339987
 21
6243.0547728025595
 31
0.0
  0
LINE
  5
FF
330
17
100
AcDbEntity
  8
0
100
AcDbLine
 10
313786.42932467855
 20
11531.738456515035
 30
0.0
 11
301948.59836339956
 21
14263.454772800636
 31
0.0
  0
LINE
  5
100
330
17
100
AcDbEntity
  8
0
100
AcDbLine
 10
315637.2293246783
 20
19552.138456513116
 30
0.0
 11
303799.39836339926
 21
22283.854772798717
 31
0.0
  0
LINE
  5
101
330
17
100
AcDbEntity
  8
0
100
AcDbLine
 10
287015.31399193377
 20
-6849.705523851626
 30
0.0
 11
290995.1743874149
 21
-6448.817469052105
 31
0.0
  0
LINE
  5
102
330
17
100
AcDbEntity
  8
0
100
AcDbLine
 10
287868.75924430066
 20
24589.013813137673
 30
0.0
 11
290995.1743874149
 21
-6448.817469052105
 31
0.0
  0
LINE
  5
103
330
17
100
AcDbEntity
  8
0
100
AcDbLine
 10
283888.89884881955
 20
24188.125758338152
 30
0.0
 11
287015.31399193377
 21
-6849.705523851626
 31
0.0
  0
LINE
  5
104
330
17
100
AcDbEntity
  8
0
100
AcDbLine
 10
289005.2441896743
 20
-6649.261496451865
 30
0.0
 11
289896.18174284196
 21
-15494.142355952054
 31
0.0
  0
LINE
  5
105
330
17
100
AcDbEntity
  8
0
100
AcDbLine
 10
302918.50030483183
 20
18466.502930928305
 30
0.0
 11
288630.4465484197
 21
17027.279061723566
 31
0.0
  0
LINE
  5
106
330
17
100
AcDbEntity
  8
0
100
AcDbLine
 10
298585.2259043766
 20
-311.64381718513505
 30
0.0
 11
290459.42926045926
 21
-1130.148610462621
 31
0.0
  0
LINE
  5
107
330
17
100
AcDbEntity
  8
0
100
AcDbLine
 10
300751.8631046042
 20
9077.429556871592
 30
0.0
 11
289544.9379044395
 21
7948.565225630473
 31
0.0
  0
LINE
  5
108
330
17
100
AcDbEntity
  8
0
100
AcDbLine
 10
283661.1977680206
 20
-6780.573728488245
 30
0.0
 11
287004.3872682368
 21
-6439.4105059630965
 31
0.0
  0
LINE
  5
109
330
17
100
AcDbEntity
  8
0
100
AcDbLine
 10
282734.6095491018
 20
2483.925837220897
 30
0.0
 11
286041.59115576436
 21
2817.0353666551605
 31
0.0
  0
LINE
  5
10A
330
17
100
AcDbEntity
  8
0
100
AcDbLine
 10
308234.0293246794
 20
67470.5384565208
 30
0.0
 11
317488.029324678
 21
107572.5384565112
 31
0.0
  0
LINE
  5
10B
330
17
100
AcDbEntity
  8
0
100
AcDbLine
 10
317488.029324678
 20
107572.5384565112
 30
0.0
 11
280597.0293247093
 21
103856.538456514
 31
0.0
  0
LINE
  5
10C
330
17
100
AcDbEntity
  8
0
100
AcDbLine
 10
280597.0293247093
 20
103856.538456514
 30
0.0
 11
284618.0293246753
 21
63652.5384565254
 31
0.0
  0
LINE
  5
10D
330
17
100
AcDbEntity
  8
0
100
AcDbLine
 10
284618.0293246753
 20
63652.5384565254
 30
0.0
 11
308234.0293246794
 21
67470.5384565208
 31
0.0
  0
LINE
  5
10E
330
17
100
AcDbEntity
  8
0
100
AcDbLine
 10
295282.6428495791
 20
65376.68710312205
 30
0.0
 11
304723.1100883822
 21
106286.73867114134
 31
0.0
  0
LINE
  5
10F
330
17
100
AcDbEntity
  8
0
100
AcDbLine
 10
310084.82932467916
 20
75490.93845651888
 30
0.0
 11
298246.9983634001
 21
78222.65477280448
 31
0.0
  0
LINE
  5
110
330
17
100
AcDbEntity
  8
0
100
AcDbLine
 10
311935.62932467886
 20
83511.33845651695
 30
0.0
 11
300097.79836339987
 21
86243.05477280256
 31
0.0
  0
LINE
  5
111
330
17
100
AcDbEntity
  8
0
100
AcDbLine
 10
313786.42932467855
 20
91531.73845651504
 30
0.0
 11
301948.59836339956
 21
94263.45477280064
 31
0.0
  0
LINE
  5
112
330
17
100
AcDbEntity
  8
0
100
AcDbLine
 10
315637.2293246783
 20
99552.13845651312
 30
0.0
 11
303799.39836339926
 21
102283.85477279872
 31
0.0
  0
LINE
  5
113
330
17
100
AcDbEntity
  8
0
100
AcDbLine
 10
288015.23719408934
 20
81752.8323035737
 30
0.0
 11
291995.09758957045
 21
82153.72035837322
 31
0.0
  0
LINE
  5
114
330
17
100
AcDbEntity
  8
0
100
AcDbLine
 10
289716.4615210065
 20
104775.13133937008
 30
0.0
 11
291995.09758957045
 21
82153.72035837322
 31
0.0
  0
LINE
  5
115
330
17
100
AcDbEntity
  8
0
100
AcDbLine
 10
285736.60112552537
 20
104374.24328457056
 30
0.0
 11
288015.23719408934
 21
81752.8323035737
 31
0.0
  0
LINE
  5
116
330
17
100
AcDbEntity
  8
0
100
AcDbLine
 10
290005.1673918299
 20
81953.27633097346
 30
0.0
 11
291732.7236001066
 21
64802.77146565308
 31
0.0
  0
LINE
  5
117
330
17
100
AcDbEntity
  8
0
100
AcDbLine
 10
302918.50030483183
 20
98466.50293092831
 30
0.0
 11
290478.1488251256
 21
97213.39658795597
 31
0.0
  0
LINE
  5
118
330
17
100
AcDbEntity
  8
0
100
AcDbLine
 10
299601.2523206494
 20
84091.28371095064
 30
0.0
 11
291878.28845486615
 21
83313.35593113299
 31
0.0
  0
LINE
  5
119
330
17
100
AcDbEntity
  8
0
100
AcDbLine
 10
282561.4092087864
 20
84215.67079670788
 30
0.0
 11
287735.63856103935
 21
84746.269724025
 31
0.0
  0
LINE
  5
11A
330
17
100
AcDbEntity
  8
0
100
AcDbLine
 10
283212.26327048836
 20
77708.10136202001
 30
0.0
 11
290360.25422718155
 21
78428.11259497858
 31
0.0
  0
LINE
  5
11B
330
17
100
AcDbEntity
  8
0
100
AcDbLine
 10
308234.0293246794
 20
147470.5384565208
 30
0.0
 11
317488.029324678
 21
187572.5384565112
 31
0.0
  0
LINE
  5
11C
330
17
100
AcDbEntity
  8
0
100
AcDbLine
 10
317488.029324678
 20
187572.5384565112
 30
0.0
 11
280597.0293247093
 21
183856.538456514
 31
0.0
  0
LINE
  5
11D
330
17
100
AcDbEntity
  8
0
100
AcDbLine
 10
280597.0293247093
 20
183856.538456514
 30
0.0
 11
284618.0293246753
 21
143652.5384565254
 31
0.0
  0
LINE
  5
11E
330
17
100
AcDbEntity
  8
0
100
AcDbLine
 10
284618.0293246753
 20
143652.5384565254
 30
0.0
 11
308234.0293246794
 21
147470.5384565208
 31
0.0
  0
LINE
  5
11F
330
17
100
AcDbEntity
  8
0
100
AcDbLine
 10
295282.6428495791
 20
145376.68710312207
 30
0.0
 11
304723.1100883822
 21
186286.73867114133
 31
0.0
  0
LINE
  5
120
330
17
100
AcDbEntity
  8
0
100
AcDbLine
 10
310084.82932467916
 20
155490.93845651887
 30
0.0
 11
298246.9983634001
 21
158222.65477280447
 31
0.0
  0
LINE
  5
121
330
17
100
AcDbEntity
  8
0
100
AcDbLine
 10
311935.62932467886
 20
163511.33845651697
 30
0.0
 11
300097.79836339987
 21
166243.05477280257
 31
0.0
  0
LINE
  5
122
330
17
100
AcDbEntity
  8
0
100
AcDbLine
 10
313786.42932467855
 20
171531.73845651504
 30
0.0
 11
301948.59836339956
 21
174263.45477280064
 31
0.0
  0
LINE
  5
123
330
17
100
AcDbEntity
  8
0
100
AcDbLine
 10
315637.2293246783
 20
179552.13845651312
 30
0.0
 11
303799.39836339926
 21
182283.85477279872
 31
0.0
  0
LINE
  5
124
330
17
100
AcDbEntity
  8
0
100
AcDbLine
 10
288658.8444831311
 20
157913.13492195925
 30
0.0
 11
292638.7048786122
 21
158314.02297675877
 31
0.0
  0
LINE
  5
125
330
17
100
AcDbEntity
  8
0
100
AcDbLine
 10
289970.7194656712
 20
184800.74253240833
 30
0.0
 11
292638.7048786122
 21
158314.02297675877
 31
0.0
  0
LINE
  5
126
330
17
100
AcDbEntity
  8
0
100
AcDbLine
 10
285990.8590701901
 20
184399.8544776088
 30
0.0
 11
288658.8444831311
 21
157913.13492195925
 31
0.0
  0
LINE
  5
127
330
17
100
AcDbEntity
  8
0
100
AcDbLine
 10
290648.77468087163
 20
158113.578949359
 30
0.0
 11
291985.4457858212
 21
144843.62907511517
 31
0.0
  0
LINE
  5
128
330
17
100
AcDbEntity
  8
0
100
AcDbLine
 10
302918.50030483183
 20
178466.5029309283
 30
0.0
 11
290732.40676979034
 21
177239.00778099423
 31
0.0
  0
LINE
  5
129
330
17
100
AcDbEntity
  8
0
100
AcDbLine
 10
299789.92248867574
 20
164908.88162300948
 30
0.0
 11
292052.9127452298
 21
164129.53901352079
 31
0.0
  0
LINE
  5
12A
330
17
100
AcDbEntity
  8
0
100
AcDbLine
 10
282468.84727809206
 20
165141.15198588092
 30
0.0
 11
287892.14820320683
 21
165695.8319376288
 31
0.0
  0
LINE
  5
12B
330
17
100
AcDbEntity
  8
0
100
AcDbLine
 10
283259.04768737144
 20
157240.32700330782
 30
0.0
 11
290661.62734121387
 21
157985.98274572956
 31
0.0
  0
LINE
  5
12C
330
17
100
AcDbEntity
  8
0
100
AcDbLine
 10
308234.0293246794
 20
227470.5384565208
 30
0.0
 11
317488.029324678
 21
267572.5384565112
 31
0.0
  0
LINE
  5
12D
330
17
100
AcDbEntity
  8
0
100
AcDbLine
 10
317488.029324678
 20
267572.5384565112
 30
0.0
 11
280597.0293247093
 21
263856.538456514
 31
0.0
  0
LINE
  5
12E
330
17
100
AcDbEntity
  8
0
100
AcDbLine
 10
280597.0293247093
 20
263856.538456514
 30
0.0
 11
284618.0293246753
 21
223652.5384565254
 31
0.0
  0
LINE
  5
12F
330
17
100
AcDbEntity
  8
0
100
AcDbLine
 10
284618.0293246753
 20
223652.5384565254
 30
0.0
 11
308234.0293246794
 21
227470.5384565208
 31
0.0
  0
LINE
  5
130
330
17
100
AcDbEntity
  8
0
100
AcDbLine
 10
295282.6428495791
 20
225376.68710312207
 30
0.0
 11
304723.1100883822
 21
266286.7386711413
 31
0.0
  0
LINE
  5
131
330
17
100
AcDbEntity
  8
0
100
AcDbLine
 10
310084.82932467916
 20
235490.93845651887
 30
0.0
 11
298246.9983634001
 21
238222.65477280447
 31
0.0
  0
LINE
  5
132
330
17
100
AcDbEntity
  8
0
100
AcDbLine
 10
311935.62932467886
 20
243511.33845651697
 30
0.0
 11
300097.79836339987
 21
246243.05477280257
 31
0.0
  0
LINE
  5
133
330
17
100
AcDbEntity
  8
0
100
AcDbLine
 10
313786.42932467855
 20
251531.73845651504
 30
0.0
 11
301948.59836339956
 21
254263.45477280064
 31
0.0
  0
LINE
  5
134
330
17
100
AcDbEntity
  8
0
100
AcDbLine
 10
315637.2293246783
 20
259552.13845651312
 30
0.0
 11
303799.39836339926
 21
262283.8547727987
 31
0.0
  0
LINE
  5
135
330
17
100
AcDbEntity
  8
0
100
AcDbLine
 10
288859.3558459372
 20
240744.44552338397
 30
0.0
 11
292839.2162414183
 21
241145.3335781835
 31
0.0
  0
LINE
  5
136
330
17
100
AcDbEntity
  8
0
100
AcDbLine
 10
290451.54774981504
 20
264849.17596885294
 30
0.0
 11
292839.2162414183
 21
241145.3335781835
 31
0.0
  0
LINE
  5
137
330
17
100
AcDbEntity
  8
0
100
AcDbLine
 10
286471.68735433393
 20
264448.2879140534
 30
0.0
 11
288859.3558459372
 21
240744.44552338397
 31
0.0
  0
LINE
  5
138
330
17
100
AcDbEntity
  8
0
100
AcDbLine
 10
290849.28604367777
 20
240944.88955078373
 30
0.0
 11
292463.3697896608
 21
224920.89507471956
 31
0.0
  0
LINE
  5
139
330
17
100
AcDbEntity
  8
0
100
AcDbLine
 10
302862.2179265954
 20
258222.60451596876
 30
0.0
 11
291236.990645497
 21
257051.60496115685
 31
0.0
  0
LINE
  5
13A
330
17
100
AcDbEntity
  8
0
100
AcDbLine
 10
300194.32474380854
 20
246661.34966227197
 30
0.0
 11
292363.05146185623
 21
245872.51196430397
 31
0.0
  0
LINE
  5
13B
330
17
100
AcDbEntity
  8
0
100
AcDbLine
 10
282316.03149604425
 20
246669.08177983796
 30
0.0
 11
288218.3127964692
 21
247273.84162644297
 31
0.0
  0
LINE
  5
13C
330
17
100
AcDbEntity
  8
0
100
AcDbLine
 10
283339.13295841345
 20
236439.59379340985
 30
0.0
 11
291223.1070764258
 21
237233.74000312324
 31
0.0
  0
LINE
  5
13D
330
17
100
AcDbEntity
  8
0
100
AcDbLine
 10
408234.0293246794
 20
-12529.4615434792
 30
0.0
 11
417488.029324678
 21
27572.5384565112
 31
0.0
  0
LINE
  5
13E
330
17
100
AcDbEntity
  8
0
100
AcDbLine
 10
417488.029324678
 20
27572.5384565112
 30
0.0
 11
380597.0293247093
 21
23856.538456514
 31
0.0
  0
LINE
  5
13F
330
17
100
AcDbEntity
  8
0
100
AcDbLine
 10
380597.0293247093
 20
23856.538456514
 30
0.0
 11
384618.0293246753
 21
-16347.4615434746
 31
0.0
  0
LINE
  5
140
330
17
100
AcDbEntity
  8
0
100
AcDbLine
 10
384618.0293246753
 20
-16347.4615434746
 30
0.0
 11
408234.0293246794
 21
-12529.4615434792
 31
0.0
  0
LINE
  5
141
330
17
100
AcDbEntity
  8
0
100
AcDbLine
 10
395282.6428495791
 20
-14623.312896877947
 30
0.0
 11
404723.1100883822
 21
26286.73867114134
 31
0.0
  0
LINE
  5
142
330
17
100
AcDbEntity
  8
0
100
AcDbLine
 10
410084.82932467916
 20
-4509.061543481121
 30
0.0
 11
398246.9983634001
 21
-1777.3452271955189
 31
0.0
  0
LINE
  5
143
330
17
100
AcDbEntity
  8
0
100
AcDbLine
 10
411935.62932467886
 20
3511.338456516958
 30
0.0
 11
400097.79836339987
 21
6243.0547728025595
 31
0.0
  0
LINE
  5
144
330
17
100
AcDbEntity
  8
0
100
AcDbLine
 10
413786.42932467855
 20
11531.738456515035
 30
0.0
 11
401948.59836339956
 21
14263.454772800636
 31
0.0
  0
LINE
  5
145
330
17
100
AcDbEntity
  8
0
100
AcDbLine
 10
415637.2293246783
 20
19552.138456513116
 30
0.0
 11
403799.39836339926
 21
22283.854772798717
 31
0.0
  0
LINE
  5
146
330
17
100
AcDbEntity
  8
0
100
AcDbLine
 10
391587.11448455334
 20
2752.670712446459
 30
0.0
 11
395566.97488003445
 21
3153.5587672459806
 31
0.0
  0
LINE
  5
147
330
17
100
AcDbEntity
  8
0
100
AcDbLine
 10
393352.1625536911
 20
25141.352505439234
 30
0.0
 11
395566.97488003445
 21
3153.5587672459806
 31
0.0
  0
LINE
  5
148
330
17
100
AcDbEntity
  8
0
100
AcDbLine
 10
389372.30215820996
 20
24740.464450639713
 30
0.0
 11
391587.11448455334
 21
2752.670712446459
 31
0.0
  0
LINE
  5
149
330
17
100
AcDbEntity
  8
0
100
AcDbLine
 10
393577.0446822939
 20
2953.11473984622
 30
0.0
 11
395327.79464005947
 21
-14427.648632576684
 31
0.0
  0
LINE
  5
14A
330
17
100
AcDbEntity
  8
0
100
AcDbLine
 10
402249.16333852586
 20
15565.946304301973
 30
0.0
 11
394396.36271685595
 21
14774.940175161315
 31
0.0
  0
LINE
  5
14B
330
17
100
AcDbEntity
  8
0
100
AcDbLine
 10
381749.1214987248
 20
12337.335829183396
 30
0.0
 11
390538.19541109505
 21
13239.09310388329
 31
0.0
  0
LINE
  5
14C
330
17
100
AcDbEntity
  8
0
100
AcDbLine
 10
383658.72114013776
 20
-6755.811145200081
 30
0.0
 11
394445.56945932494
 21
-5669.260811674192
 31
0.0
  0
LINE
  5
14D
330
17
100
AcDbEntity
  8
0
100
AcDbLine
 10
382703.9213194313
 20
2790.762341991658
 30
0.0
 11
391494.7318304953
 21
3676.253433561882
 31
0.0
  0
LINE
  5
14E
330
17
100
AcDbEntity
  8
0
100
AcDbLine
 10
408234.0293246794
 20
67470.5384565208
 30
0.0
 11
417488.029324678
 21
107572.5384565112
 31
0.0
  0
LINE
  5
14F
330
17
100
AcDbEntity
  8
0
100
AcDbLine
 10
417488.029324678
 20
107572.5384565112
 30
0.0
 11
380597.0293247093
 21
103856.538456514
 31
0.0
  0
LINE
  5
150
330
17
100
AcDbEntity
  8
0
100
AcDbLine
 10
380597.0293247093
 20
103856.538456514
 30
0.0
 11
384618.0293246753
 21
63652.5384565254
 31
0.0
  0
LINE
  5
151
330
17
100
AcDbEntity
  8
0
100
AcDbLine
 10
384618.0293246753
 20
63652.5384565254
 30
0.0
 11
408234.0293246794
 21
67470.5384565208
 31
0.0
  0
LINE
  5
152
330
17
100
AcDbEntity
  8
0
100
AcDbLine
 10
395282.6428495791
 20
65376.68710312205
 30
0.0
 11
404723.1100883822
 21
106286.73867114134
 31
0.0
  0
LINE
  5
153
330
17
100
AcDbEntity
  8
0
100
AcDbLine
 10
410084.82932467916
 20
75490.93845651888
 30
0.0
 11
398246.9983634001
 21
78222.65477280448
 31
0.0
  0
LINE
  5
154
330
17
100
AcDbEntity
  8
0
100
AcDbLine
 10
411935.62932467886
 20
83511.33845651695
 30
0.0
 11
400097.79836339987
 21
86243.05477280256
 31
0.0
  0
LINE
  5
155
330
17
100
AcDbEntity
  8
0
100
AcDbLine
 10
413786.42932467855
 20
91531.73845651504
 30
0.0
 11
401948.59836339956
 21
94263.45477280064
 31
0.0
  0
LINE
  5
156
330
17
100
AcDbEntity
  8
0
100
AcDbLine
 10
415637.2293246783
 20
99552.13845651312
 30
0.0
 11
403799.39836339926
 21
102283.85477279872
 31
0.0
  0
LINE
  5
157
330
17
100
AcDbEntity
  8
0
100
AcDbLine
 10
392397.2990621703
 20
78184.16256097137
 30
0.0
 11
396377.15945765143
 21
78585.05061577089
 31
0.0
  0
LINE
  5
158
330
17
100
AcDbEntity
  8
0
100
AcDbLine
 10
393698.649490079
 20
105176.25384873754
 30
0.0
 11
396377.15945765143
 21
78585.05061577089
 31
0.0
  0
LINE
  5
159
330
17
100
AcDbEntity
  8
0
100
AcDbLine
 10
389718.7890945979
 20
104775.36579393802
 30
0.0
 11
392397.2990621703
 21
78184.16256097137
 31
0.0
  0
LINE
  5
15A
330
17
100
AcDbEntity
  8
0
100
AcDbLine
 10
394387.2292599109
 20
78384.60658837113
 30
0.0
 11
395571.44285923196
 21
66628.19542245391
 31
0.0
  0
LINE
  5
15B
330
17
100
AcDbEntity
  8
0
100
AcDbLine
 10
402147.8186164633
 20
95126.77124009712
 30
0.0
 11
394785.625099126
 21
94385.18355989251
 31
0.0
  0
LINE
  5
15C
330
17
100
AcDbEntity
  8
0
100
AcDbLine
 10
381705.2137975934
 20
92776.34732291635
 30
0.0
 11
390838.750936304
 21
93710.44338471645
 31
0.0
  0
LINE
  5
15D
330
17
100
AcDbEntity
  8
0
100
AcDbLine
 10
383636.1908231412
 20
73469.45840579175
 30
0.0
 11
394769.3667958008
 21
74590.89403817925
 31
0.0
  0
LINE
  5
15E
330
17
100
AcDbEntity
  8
0
100
AcDbLine
 10
382670.7023103673
 20
83122.90286435405
 30
0.0
 11
391809.1402175451
 21
84043.41017679004
 31
0.0
  0
LINE
  5
15F
330
17
100
AcDbEntity
  8
0
100
AcDbLine
 10
408234.0293246794
 20
147470.5384565208
 30
0.0
 11
417488.029324678
 21
187572.5384565112
 31
0.0
  0
LINE
  5
160
330
17
100
AcDbEntity
  8
0
100
AcDbLine
 10
417488.029324678
 20
187572.5384565112
 30
0.0
 11
380597.0293247093
 21
183856.538456514
 31
0.0
  0
LINE
  5
161
330
17
100
AcDbEntity
  8
0
100
AcDbLine
 10
380597.0293247093
 20
183856.538456514
 30
0.0
 11
384618.0293246753
 21
143652.5384565254
 31
0.0
  0
LINE
  5
162
330
17
100
AcDbEntity
  8
0
100
AcDbLine
 10
384618.0293246753
 20
143652.5384565254
 30
0.0
 11
408234.0293246794
 21
147470.5384565208
 31
0.0
  0
LINE
  5
163
330
17
100
AcDbEntity
  8
0
100
AcDbLine
 10
395282.6428495791
 20
145376.68710312207
 30
0.0
 11
404723.1100883822
 21
186286.73867114133
 31
0.0
  0
LINE
  5
164
330
17
100
AcDbEntity
  8
0
100
AcDbLine
 10
410084.82932467916
 20
155490.93845651887
 30
0.0
 11
398246.9983634001
 21
158222.65477280447
 31
0.0
  0
LINE
  5
165
330
17
100
AcDbEntity
  8
0
100
AcDbLine
 10
411935.62932467886
 20
163511.33845651697
 30
0.0
 11
400097.79836339987
 21
166243.05477280257
 31
0.0
  0
LINE
  5
166
330
17
100
AcDbEntity
  8
0
100
AcDbLine
 10
413786.42932467855
 20
171531.73845651504
 30
0.0
 11
401948.59836339956
 21
174263.45477280064
 31
0.0
  0
LINE
  5
167
330
17
100
AcDbEntity
  8
0
100
AcDbLine
 10
415637.2293246783
 20
179552.13845651312
 30
0.0
 11
403799.39836339926
 21
182283.85477279872
 31
0.0
  0
LINE
  5
168
330
17
100
AcDbEntity
  8
0
100
AcDbLine
 10
391991.731507206
 20
164098.85941538017
 30
0.0
 11
395971.5919026871
 21
164499.7474701797
 31
0.0
  0
LINE
  5
169
330
17
100
AcDbEntity
  8
0
100
AcDbLine
 10
393886.9538652024
 20
185195.2215931185
 30
0.0
 11
395971.5919026871
 21
164499.7474701797
 31
0.0
  0
LINE
  5
16A
330
17
100
AcDbEntity
  8
0
100
AcDbLine
 10
389907.09346972127
 20
184794.33353831898
 30
0.0
 11
391991.731507206
 21
164098.85941538017
 31
0.0
  0
LINE
  5
16B
330
17
100
AcDbEntity
  8
0
100
AcDbLine
 10
393981.66170494654
 20
164299.30344277993
 30
0.0
 11
395703.8577379557
 21
147202.01230883604
 31
0.0
  0
LINE
  5
16C
330
17
100
AcDbEntity
  8
0
100
AcDbLine
 10
402020.2090308515
 20
174573.7779828889
 30
0.0
 11
395027.7907589051
 21
173869.43745813883
 31
0.0
  0
LINE
  5
16D
330
17
100
AcDbEntity
  8
0
100
AcDbLine
 10
381683.2828765305
 20
172995.62380896957
 30
0.0
 11
391005.6364777056
 21
173953.20593706242
 31
0.0
  0
LINE
  5
16E
330
17
100
AcDbEntity
  8
0
100
AcDbLine
 10
383620.79890254256
 20
153623.35464447684
 30
0.0
 11
394942.1704338366
 21
154763.74706025014
 31
0.0
  0
LINE
  5
16F
330
17
100
AcDbEntity
  8
0
100
AcDbLine
 10
382652.0408895365
 20
163309.4892267232
 30
0.0
 11
391976.73164004926
 21
164248.75763443537
 31
0.0
  0
LINE
  5
170
330
17
100
AcDbEntity
  8
0
100
AcDbLine
 10
408234.0293246794
 20
227470.5384565208
 30
0.0
 11
417488.029324678
 21
267572.5384565112
 31
0.0
  0
LINE
  5
171
330
17
100
AcDbEntity
  8
0
100
AcDbLine
 10
417488.029324678
 20
267572.5384565112
 30
0.0
 11
380597.0293247093
 21
263856.538456514
 31
0.0
  0
LINE
  5
172
330
17
100
AcDbEntity
  8
0
100
AcDbLine
 10
380597.0293247093
 20
263856.538456514
 30
0.0
 11
384618.0293246753
 21
223652.5384565254
 31
0.0
  0
LINE
  5
173
330
17
100
AcDbEntity
  8
0
100
AcDbLine
 10
384618.0293246753
 20
223652.5384565254
 30
0.0
 11
408234.0293246794
 21
227470.5384565208
 31
0.0
  0
LINE
  5
174
330
17
100
AcDbEntity
  8
0
100
AcDbLine
 10
395282.6428495791
 20
225376.68710312207
 30
0.0
 11
404723.1100883822
 21
266286.7386711413
 31
0.0
  0
LINE
  5
175
330
17
100
AcDbEntity
  8
0
100
AcDbLine
 10
410084.82932467916
 20
235490.93845651887
 30
0.0
 11
398246.9983634001
 21
238222.65477280447
 31
0.0
  0
LINE
  5
176
330
17
100
AcDbEntity
  8
0
100
AcDbLine
 10
411935.62932467886
 20
243511.33845651697
 30
0.0
 11
400097.79836339987
 21
246243.05477280257
 31
0.0
  0
LINE
  5
177
330
17
100
AcDbEntity
  8
0
100
AcDbLine
 10
413786.42932467855
 20
251531.73845651504
 30
0.0
 11
401948.59836339956
 21
254263.45477280064
 31
0.0
  0
LINE
  5
178
330
17
100
AcDbEntity
  8
0
100
AcDbLine
 10
415637.2293246783
 20
259552.13845651312
 30
0.0
 11
403799.39836339926
 21
262283.8547727987
 31
0.0
  0
LINE
  5
179
330
17
100
AcDbEntity
  8
0
100
AcDbLine
 10
392422.9988372341
 20
239231.87383088813
 30
0.0
 11
396402.8592327152
 21
239632.76188568765
 31
0.0
  0
LINE
  5
17A
330
17
100
AcDbEntity
  8
0
100
AcDbLine
 10
393828.566174817
 20
265189.3402492278
 30
0.0
 11
396402.8592327152
 21
239632.76188568765
 31
0.0
  0
LINE
  5
17B
330
17
100
AcDbEntity
  8
0
100
AcDbLine
 10
389848.70577933587
 20
264788.4521944283
 30
0.0
 11
392422.9988372341
 21
239231.87383088813
 31
0.0
  0
LINE
  5
17C
330
17
100
AcDbEntity
  8
0
100
AcDbLine
 10
394412.92903497466
 20
239432.3178582879
 30
0.0
 11
395662.79974906787
 21
227024.08844127823
 31
0.0
  0
LINE
  5
17D
330
17
100
AcDbEntity
  8
0
100
AcDbLine
 10
402107.64529580413
 20
254952.68106232808
 30
0.0
 11
394932.49808576884
 21
254229.93440237053
 31
0.0
  0
LINE
  5
17E
330
17
100
AcDbEntity
  8
0
100
AcDbLine
 10
381689.75861901557
 20
252930.87604700198
 30
0.0
 11
390952.9977986688
 21
253878.82428539902
 31
0.0
  0
LINE
  5
17F
330
17
100
AcDbEntity
  8
0
100
AcDbLine
 10
383627.2904574366
 20
233558.44878201414
 30
0.0
 11
394890.320191787
 21
234692.96447670524
 31
0.0
  0
LINE
  5
180
330
17
100
AcDbEntity
  8
0
100
AcDbLine
 10
382658.5245382261
 20
243244.66241450806
 30
0.0
 11
391926.5718414038
 21
244178.2251744932
 31
0.0
  0
LINE
  5
181
330
17
100
AcDbEntity
  8
0
100
AcDbLine
 10
-191765.97067532057
 20
-12529.4615434792
 30
0.0
 11
-182511.970675322
 21
27572.5384565112
 31
0.0
  0
LINE
  5
182
330
17
100
AcDbEntity
  8
0
100
AcDbLine
 10
-182511.970675322
 20
27572.5384565112
 30
0.0
 11
-219402.9706752907
 21
23856.538456514
 31
0.0
  0
LINE
  5
183
330
17
100
AcDbEntity
  8
0
100
AcDbLine
 10
-219402.9706752907
 20
23856.538456514
 30
0.0
 11
-215381.9706753247
 21
-16347.4615434746
 31
0.0
  0
LINE
  5
184
330
17
100
AcDbEntity
  8
0
100
AcDbLine
 10
-215381.9706753247
 20
-16347.4615434746
 30
0.0
 11
-191765.97067532057
 21
-12529.4615434792
 31
0.0
  0
LINE
  5
185
330
17
100
AcDbEntity
  8
0
100
AcDbLine
 10
-204717.3571504209
 20
-14623.312896877947
 30
0.0
 11
-195276.8899116178
 21
26286.73867114134
 31
0.0
  0
LINE
  5
186
330
17
100
AcDbEntity
  8
0
100
AcDbLine
 10
-189915.17067532084
 20
-4509.061543481121
 30
0.0
 11
-201753.00163659986
 21
-1777.3452271955189
 31
0.0
  0
LINE
  5
187
330
17
100
AcDbEntity
  8
0
100
AcDbLine
 10
-188064.37067532114
 20
3511.338456516958
 30
0.0
 11
-199902.20163660013
 21
6243.0547728025595
 31
0.0
  0
LINE
  5
188
330
17
100
AcDbEntity
  8
0
100
AcDbLine
 10
-186213.57067532142
 20
11531.738456515035
 30
0.0
 11
-198051.40163660044
 21
14263.454772800636
 31
0.0
  0
LINE
  5
189
330
17
100
AcDbEntity
  8
0
100
AcDbLine
 10
-184362.77067532172
 20
19552.138456513116
 30
0.0
 11
-196200.6016366007
 21
22283.854772798717
 31
0.0
  0
LINE
  5
18A
330
17
100
AcDbEntity
  8
0
100
AcDbLine
 10
-208636.09610038728
 20
-7263.560128427034
 30
0.0
 11
-204656.23570490617
 21
-6862.672073627513
 31
0.0
  0
LINE
  5
18B
330
17
100
AcDbEntity
  8
0
100
AcDbLine
 10
-207867.5985582807
 20
25018.486974765423
 30
0.0
 11
-204656.23570490617
 21
-6862.672073627513
 31
0.0
  0
LINE
  5
18C
330
17
100
AcDbEntity
  8
0
100
AcDbLine
 10
-211847.45895376182
 20
24617.5989199659
 30
0.0
 11
-208636.09610038728
 21
-7263.560128427034
 31
0.0
  0
LINE
  5
18D
330
17
100
AcDbEntity
  8
0
100
AcDbLine
 10
-206646.16590264672
 20
-7063.1161010272735
 30
0.0
 11
-205865.92914554238
 21
-14809.002593582205
 31
0.0
  0
LINE
  5
18E
330
17
100
AcDbEntity
  8
0
100
AcDbLine
 10
-197449.80911279412
 20
16870.44238785139
 30
0.0
 11
-206950.45570363186
 21
15913.450093482665
 31
0.0
  0
LINE
  5
18F
330
17
100
AcDbEntity
  8
0
100
AcDbLine
 10
-197589.38712273166
 20
16265.584234132379
 30
0.0
 11
-206891.54280230953
 21
15328.58576552717
 31
0.0
  0
LINE
  5
190
330
17
100
AcDbEntity
  8
0
100
AcDbLine
 10
-218065.94498587385
 20
10488.276626682018
 30
0.0
 11
-210494.5902270607
 21
11260.64505474038
 31
0.0
  0
LINE
  5
191
330
17
100
AcDbEntity
  8
0
100
AcDbLine
 10
-216445.35132414408
 20
-5715.241795779009
 30
0.0
 11
-208868.93007731042
 21
-4952.075133090642
 31
0.0
  0
LINE
  5
192
330
17
100
AcDbEntity
  8
0
100
AcDbLine
 10
-191765.97067532057
 20
67470.5384565208
 30
0.0
 11
-182511.970675322
 21
107572.5384565112
 31
0.0
  0
LINE
  5
193
330
17
100
AcDbEntity
  8
0
100
AcDbLine
 10
-182511.970675322
 20
107572.5384565112
 30
0.0
 11
-219402.9706752907
 21
103856.538456514
 31
0.0
  0
LINE
  5
194
330
17
100
AcDbEntity
  8
0
100
AcDbLine
 10
-219402.9706752907
 20
103856.538456514
 30
0.0
 11
-215381.9706753247
 21
63652.5384565254
 31
0.0
  0
LINE
  5
195
330
17
100
AcDbEntity
  8
0
100
AcDbLine
 10
-215381.9706753247
 20
63652.5384565254
 30
0.0
 11
-191765.97067532057
 21
67470.5384565208
 31
0.0
  0
LINE
  5
196
330
17
100
AcDbEntity
  8
0
100
AcDbLine
 10
-204717.3571504209
 20
65376.68710312205
 30
0.0
 11
-195276.8899116178
 21
106286.73867114134
 31
0.0
  0
LINE
  5
197
330
17
100
AcDbEntity
  8
0
100
AcDbLine
 10
-189915.17067532084
 20
75490.93845651888
 30
0.0
 11
-201753.00163659986
 21
78222.65477280448
 31
0.0
  0
LINE
  5
198
330
17
100
AcDbEntity
  8
0
100
AcDbLine
 10
-188064.37067532114
 20
83511.33845651695
 30
0.0
 11
-199902.20163660013
 21
86243.05477280256
 31
0.0
  0
LINE
  5
199
330
17
100
AcDbEntity
  8
0
100
AcDbLine
 10
-186213.57067532142
 20
91531.73845651504
 30
0.0
 11
-198051.40163660044
 21
94263.45477280064
 31
0.0
  0
LINE
  5
19A
330
17
100
AcDbEntity
  8
0
100
AcDbLine
 10
-184362.77067532172
 20
99552.13845651312
 30
0.0
 11
-196200.6016366007
 21
102283.85477279872
 31
0.0
  0
LINE
  5
19B
330
17
100
AcDbEntity
  8
0
100
AcDbLine
 10
-212436.86752084992
 20
79285.27868070081
 30
0.0
 11
-208457.0071253688
 21
79686.16673550033
 31
0.0
  0
LINE
  5
19C
330
17
100
AcDbEntity
  8
0
100
AcDbLine
 10
-210977.1600956819
 20
104705.26340606346
 30
0.0
 11
-208457.0071253688
 21
79686.16673550033
 31
0.0
  0
LINE
  5
19D
330
17
100
AcDbEntity
  8
0
100
AcDbLine
 10
-214957.020491163
 20
104304.37535126394
 30
0.0
 11
-212436.86752084992
 21
79285.27868070081
 31
0.0
  0
LINE
  5
19E
330
17
100
AcDbEntity
  8
0
100
AcDbLine
 10
-210446.93732310936
 20
79485.72270810057
 30
0.0
 11
-208956.70843026516
 21
64691.31095193544
 31
0.0
  0
LINE
  5
19F
330
17
100
AcDbEntity
  8
0
100
AcDbLine
 10
-197081.49969516817
 20
98466.50293092831
 30
0.0
 11
-210215.47279156282
 21
97143.52865464936
 31
0.0
  0
LINE
  5
1A0
330
17
100
AcDbEntity
  8
0
100
AcDbLine
 10
-200843.26484224474
 20
82164.97862489287
 30
0.0
 11
-208627.71194723848
 21
81380.85768910476
 31
0.0
  0
LINE
  5
1A1
330
17
100
AcDbEntity
  8
0
100
AcDbLine
 10
-217132.83939362384
 20
81158.61305266406
 30
0.0
 11
-212647.01379241608
 21
81617.82464233073
 31
0.0
  0
LINE
  5
1A2
330
17
100
AcDbEntity
  8
0
100
AcDbLine
 10
-216934.56961388327
 20
79176.2111066918
 30
0.0
 11
-212471.1685382351
 21
79625.80581535003
 31
0.0
  0
LINE
  5
1A3
330
17
100
AcDbEntity
  8
0
100
AcDbLine
 10
-191765.97067532057
 20
147470.5384565208
 30
0.0
 11
-182511.970675322
 21
187572.5384565112
 31
0.0
  0
LINE
  5
1A4
330
17
100
AcDbEntity
  8
0
100
AcDbLine
 10
-182511.970675322
 20
187572.5384565112
 30
0.0
 11
-219402.9706752907
 21
183856.538456514
 31
0.0
  0
LINE
  5
1A5
330
17
100
AcDbEntity
  8
0
100
AcDbLine
 10
-219402.9706752907
 20
183856.538456514
 30
0.0
 11
-215381.9706753247
 21
143652.5384565254
 31
0.0
  0
LINE
  5
1A6
330
17
100
AcDbEntity
  8
0
100
AcDbLine
 10
-215381.9706753247
 20
143652.5384565254
 30
0.0
 11
-191765.97067532057
 21
147470.5384565208
 31
0.0
  0
LINE
  5
1A7
330
17
100
AcDbEntity
  8
0
100
AcDbLine
 10
-204717.3571504209
 20
145376.68710312207
 30
0.0
 11
-195276.8899116178
 21
186286.73867114133
 31
0.0
  0
LINE
  5
1A8
330
17
100
AcDbEntity
  8
0
100
AcDbLine
 10
-189915.17067532084
 20
155490.93845651887
 30
0.0
 11
-201753.00163659986
 21
158222.65477280447
 31
0.0
  0
LINE
  5
1A9
330
17
100
AcDbEntity
  8
0
100
AcDbLine
 10
-188064.37067532114
 20
163511.33845651697
 30
0.0
 11
-199902.20163660013
 21
166243.05477280257
 31
0.0
  0
LINE
  5
1AA
330
17
100
AcDbEntity
  8
0
100
AcDbLine
 10
-186213.57067532142
 20
171531.73845651504
 30
0.0
 11
-198051.40163660044
 21
174263.45477280064
 31
0.0
  0
LINE
  5
1AB
330
17
100
AcDbEntity
  8
0
100
AcDbLine
 10
-184362.77067532172
 20
179552.13845651312
 30
0.0
 11
-196200.6016366007
 21
182283.85477279872
 31
0.0
  0
LINE
  5
1AC
330
17
100
AcDbEntity
  8
0
100
AcDbLine
 10
-212091.93663661068
 20
158176.0162767204
 30
0.0
 11
-208112.07624112957
 21
158576.9043315199
 31
0.0
  0
LINE
  5
1AD
330
17
100
AcDbEntity
  8
0
100
AcDbLine
 10
-210746.30662240612
 20
184728.51708600417
 30
0.0
 11
-208112.07624112957
 21
158576.9043315199
 31
0.0
  0
LINE
  5
1AE
330
17
100
AcDbEntity
  8
0
100
AcDbLine
 10
-214726.16701788723
 20
184327.62903120465
 30
0.0
 11
-212091.93663661068
 21
158176.0162767204
 31
0.0
  0
LINE
  5
1AF
330
17
100
AcDbEntity
  8
0
100
AcDbLine
 10
-210102.00643887013
 20
158376.46030412015
 30
0.0
 11
-208727.24934916158
 21
144728.4076140142
 31
0.0
  0
LINE
  5
1B0
330
17
100
AcDbEntity
  8
0
100
AcDbLine
 10
-197081.49969516817
 20
178466.5029309283
 30
0.0
 11
-209984.61931828703
 21
177166.78233459007
 31
0.0
  0
LINE
  5
1B1
330
17
100
AcDbEntity
  8
0
100
AcDbLine
 10
-200705.49370451368
 20
162762.0067387129
 30
0.0
 11
-208455.00873306044
 21
161981.40448217114
 31
0.0
  0
LINE
  5
1B2
330
17
100
AcDbEntity
  8
0
100
AcDbLine
 10
-217244.72885814877
 20
162277.3407402536
 30
0.0
 11
-212531.6604249835
 21
162759.47505687852
 31
0.0
  0
LINE
  5
1B3
330
17
100
AcDbEntity
  8
0
100
AcDbLine
 10
-216882.28730419464
 20
158653.46602369272
 30
0.0
 11
-212187.66313425198
 21
159126.35164391197
 31
0.0
  0
LINE
  5
1B4
330
17
100
AcDbEntity
  8
0
100
AcDbLine
 10
-191765.97067532057
 20
227470.5384565208
 30
0.0
 11
-182511.970675322
 21
267572.5384565112
 31
0.0
  0
LINE
  5
1B5
330
17
100
AcDbEntity
  8
0
100
AcDbLine
 10
-182511.970675322
 20
267572.5384565112
 30
0.0
 11
-219402.9706752907
 21
263856.538456514
 31
0.0
  0
LINE
  5
1B6
330
17
100
AcDbEntity
  8
0
100
AcDbLine
 10
-219402.9706752907
 20
263856.538456514
 30
0.0
 11
-215381.9706753247
 21
223652.5384565254
 31
0.0
  0
LINE
  5
1B7
330
17
100
AcDbEntity
  8
0
100
AcDbLine
 10
-215381.9706753247
 20
223652.5384565254
 30
0.0
 11
-191765.97067532057
 21
227470.5384565208
 31
0.0
  0
LINE
  5
1B8
330
17
100
AcDbEntity
  8
0
100
AcDbLine
 10
-204717.3571504209
 20
225376.68710312207
 30
0.0
 11
-195276.8899116178
 21
266286.7386711413
 31
0.0
  0
LINE
  5
1B9
330
17
100
AcDbEntity
  8
0
100
AcDbLine
 10
-189915.17067532084
 20
235490.93845651887
 30
0.0
 11
-201753.00163659986
 21
238222.65477280447
 31
0.0
  0
LINE
  5
1BA
330
17
100
AcDbEntity
  8
0
100
AcDbLine
 10
-188064.37067532114
 20
243511.33845651697
 30
0.0
 11
-199902.20163660013
 21
246243.05477280257
 31
0.0
  0
LINE
  5
1BB
330
17
100
AcDbEntity
  8
0
100
AcDbLine
 10
-186213.57067532142
 20
251531.73845651504
 30
0.0
 11
-198051.40163660044
 21
254263.45477280064
 31
0.0
  0
LINE
  5
1BC
330
17
100
AcDbEntity
  8
0
100
AcDbLine
 10
-184362.77067532172
 20
259552.13845651312
 30
0.0
 11
-196200.6016366007
 21
262283.8547727987
 31
0.0
  0
LINE
  5
1BD
330
17
100
AcDbEntity
  8
0
100
AcDbLine
 10
-211911.38675470868
 20
238575.46172053125
 30
0.0
 11
-207931.52635922757
 21
238976.34977533077
 31
0.0
  0
LINE
  5
1BE
330
17
100
AcDbEntity
  8
0
100
AcDbLine
 10
-210527.7386017285
 20
264750.5332624385
 30
0.0
 11
-207931.52635922757
 21
238976.34977533077
 31
0.0
  0
LINE
  5
1BF
330
17
100
AcDbEntity
  8
0
100
AcDbLine
 10
-214507.5989972096
 20
264349.64520763897
 30
0.0
 11
-211911.38675470868
 21
238575.46172053125
 31
0.0
  0
LINE
  5
1C0
330
17
100
AcDbEntity
  8
0
100
AcDbLine
 10
-209921.45655696813
 20
238775.905747931
 30
0.0
 11
-208510.0015145431
 21
224763.53008321187
 31
0.0
  0
LINE
  5
1C1
330
17
100
AcDbEntity
  8
0
100
AcDbLine
 10
-197081.49969516817
 20
258466.5029309283
 30
0.0
 11
-209766.0512976094
 21
257188.7985110244
 31
0.0
  0
LINE
  5
1C2
330
17
100
AcDbEntity
  8
0
100
AcDbLine
 10
-200566.05414709842
 20
243366.26491155347
 30
0.0
 11
-208295.29517584818
 21
242587.704838288
 31
0.0
  0
LINE
  5
1C3
330
17
100
AcDbEntity
  8
0
100
AcDbLine
 10
-217340.9070065227
 20
243238.97871022532
 30
0.0
 11
-212411.1878807388
 21
243743.390806817
 31
0.0
  0
LINE
  5
1C4
330
17
100
AcDbEntity
  8
0
100
AcDbLine
 10
-216836.05908786136
 20
238191.25284053478
 30
0.0
 11
-211922.5400769358
 21
238686.18755752812
 31
0.0
  0
LINE
  5
1C5
330
17
100
AcDbEntity
  8
0
100
AcDbLine
 10
-291765.9706753206
 20
-12529.4615434792
 30
0.0
 11
-282511.970675322
 21
27572.5384565112
 31
0.0
  0
LINE
  5
1C6
330
17
100
AcDbEntity
  8
0
100
AcDbLine
 10
-282511.970675322
 20
27572.5384565112
 30
0.0
 11
-319402.9706752907
 21
23856.538456514
 31
0.0
  0
LINE
  5
1C7
330
17
100
AcDbEntity
  8
0
100
AcDbLine
 10
-319402.9706752907
 20
23856.538456514
 30
0.0
 11
-315381.9706753247
 21
-16347.4615434746
 31
0.0
  0
LINE
  5
1C8
330
17
100
AcDbEntity
  8
0
100
AcDbLine
 10
-315381.9706753247
 20
-16347.4615434746
 30
0.0
 11
-291765.9706753206
 21
-12529.4615434792
 31
0.0
  0
LINE
  5
1C9
330
17
100
AcDbEntity
  8
0
100
AcDbLine
 10
-304717.3571504209
 20
-14623.312896877947
 30
0.0
 11
-295276.8899116178
 21
26286.73867114134
 31
0.0
  0
LINE
  5
1CA
330
17
100
AcDbEntity
  8
0
100
AcDbLine
 10
-289915.17067532084
 20
-4509.061543481121
 30
0.0
 11
-301753.0016365999
 21
-1777.3452271955189
 31
0.0
  0
LINE
  5
1CB
330
17
100
AcDbEntity
  8
0
100
AcDbLine
 10
-288064.37067532114
 20
3511.338456516958
 30
0.0
 11
-299902.20163660013
 21
6243.0547728025595
 31
0.0
  0
LINE
  5
1CC
330
17
100
AcDbEntity
  8
0
100
AcDbLine
 10
-286213.57067532145
 20
11531.738456515035
 30
0.0
 11
-298051.40163660044
 21
14263.454772800636
 31
0.0
  0
LINE
  5
1CD
330
17
100
AcDbEntity
  8
0
100
AcDbLine
 10
-284362.7706753217
 20
19552.138456513116
 30
0.0
 11
-296200.60163660074
 21
22283.854772798717
 31
0.0
  0
LINE
  5
1CE
330
17
100
AcDbEntity
  8
0
100
AcDbLine
 10
-312046.3165348277
 20
-3780.136148169353
 30
0.0
 11
-308066.4561393466
 21
-3379.2480933698316
 31
0.0
  0
LINE
  5
1CF
330
17
100
AcDbEntity
  8
0
100
AcDbLine
 10
-310896.2071946475
 20
24713.41772500965
 30
0.0
 11
-308066.4561393466
 21
-3379.2480933698316
 31
0.0
  0
LINE
  5
1D0
330
17
100
AcDbEntity
  8
0
100
AcDbLine
 10
-314876.06759012863
 20
24312.52967021013
 30
0.0
 11
-312046.3165348277
 21
-3780.136148169353
 31
0.0
  0
LINE
  5
1D1
330
17
100
AcDbEntity
  8
0
100
AcDbLine
 10
-310056.38633708714
 20
-3579.6921207695923
 30
0.0
 11
-308876.24449779565
 21
-15295.68043974104
 31
0.0
  0
LINE
  5
1D2
330
17
100
AcDbEntity
  8
0
100
AcDbLine
 10
-297081.49969516817
 20
18466.502930928313
 30
0.0
 11
-310134.5198905284
 21
17151.68297359554
 31
0.0
  0
LINE
  5
1D3
330
17
100
AcDbEntity
  8
0
100
AcDbLine
 10
-300796.00457365013
 20
2369.779931482475
 30
0.0
 11
-308566.70659769466
 21
1587.0435263605714
 31
0.0
  0
LINE
  5
1D4
330
17
100
AcDbEntity
  8
0
100
AcDbLine
 10
-317173.4436493909
 20
1564.5950220428495
 30
0.0
 11
-312610.1925325042
 21
2030.9018360674945
 31
0.0
  0
LINE
  5
1D5
330
17
100
AcDbEntity
  8
0
100
AcDbLine
 10
-316915.8088115551
 20
-1011.3689223578513
 30
0.0
 11
-312371.3222013506
 21
-553.6065346881928
 31
0.0
  0
LINE
  5
1D6
330
17
100
AcDbEntity
  8
0
100
AcDbLine
 10
-291765.9706753206
 20
67470.5384565208
 30
0.0
 11
-282511.970675322
 21
107572.5384565112
 31
0.0
  0
LINE
  5
1D7
330
17
100
AcDbEntity
  8
0
100
AcDbLine
 10
-282511.970675322
 20
107572.5384565112
 30
0.0
 11
-319402.9706752907
 21
103856.538456514
 31
0.0
  0
LINE
  5
1D8
330
17
100
AcDbEntity
  8
0
100
AcDbLine
 10
-319402.9706752907
 20
103856.538456514
 30
0.0
 11
-315381.9706753247
 21
63652.5384565254
 31
0.0
  0
LINE
  5
1D9
330
17
100
AcDbEntity
  8
0
100
AcDbLine
 10
-315381.9706753247
 20
63652.5384565254
 30
0.0
 11
-291765.9706753206
 21
67470.5384565208
 31
0.0
  0
LINE
  5
1DA
330
17
100
AcDbEntity
  8
0
100
AcDbLine
 10
-304717.3571504209
 20
65376.68710312205
 30
0.0
 11
-295276.8899116178
 21
106286.73867114134
 31
0.0
  0
LINE
  5
1DB
330
17
100
AcDbEntity
  8
0
100
AcDbLine
 10
-289915.17067532084
 20
75490.93845651888
 30
0.0
 11
-301753.0016365999
 21
78222.65477280448
 31
0.0
  0
LINE
  5
1DC
330
17
100
AcDbEntity
  8
0
100
AcDbLine
 10
-288064.37067532114
 20
83511.33845651695
 30
0.0
 11
-299902.20163660013
 21
86243.05477280256
 31
0.0
  0
LINE
  5
1DD
330
17
100
AcDbEntity
  8
0
100
AcDbLine
 10
-286213.57067532145
 20
91531.73845651504
 30
0.0
 11
-298051.40163660044
 21
94263.45477280064
 31
0.0
  0
LINE
  5
1DE
330
17
100
AcDbEntity
  8
0
100
AcDbLine
 10
-284362.7706753217
 20
99552.13845651312
 30
0.0
 11
-296200.60163660074
 21
102283.85477279872
 31
0.0
  0
LINE
  5
1DF
330
17
100
AcDbEntity
  8
0
100
AcDbLine
 10
-311118.80202735646
 20
67160.25647365893
 30
0.0
 11
-307138.94163187535
 21
67561.14452845845
 31
0.0
  0
LINE
  5
1E0
330
17
100
AcDbEntity
  8
0
100
AcDbLine
 10
-310881.4096071988
 20
104714.90827378738
 30
0.0
 11
-307138.94163187535
 21
67561.14452845845
 31
0.0
  0
LINE
  5
1E1
330
17
100
AcDbEntity
  8
0
100
AcDbLine
 10
-314861.2700026799
 20
104314.02021898786
 30
0.0
 11
-311118.80202735646
 21
67160.25647365893
 31
0.0
  0
LINE
  5
1E2
330
17
100
AcDbEntity
  8
0
100
AcDbLine
 10
-309128.8718296159
 20
67360.70050105869
 30
0.0
 11
-308861.53629015916
 21
64706.69743698474
 31
0.0
  0
LINE
  5
1E3
330
17
100
AcDbEntity
  8
0
100
AcDbLine
 10
-297081.49969516817
 20
98466.50293092831
 30
0.0
 11
-310119.7223030797
 21
97153.17352237328
 31
0.0
  0
LINE
  5
1E4
330
17
100
AcDbEntity
  8
0
100
AcDbLine
 10
-299854.30337315286
 20
86450.62081567747
 30
0.0
 11
-308949.38100404246
 21
85534.48114810573
 31
0.0
  0
LINE
  5
1E5
330
17
100
AcDbEntity
  8
0
100
AcDbLine
 10
-317180.85785659467
 20
81638.72603085221
 30
0.0
 11
-312608.0161822678
 21
82104.36887378225
 31
0.0
  0
LINE
  5
1E6
330
17
100
AcDbEntity
  8
0
100
AcDbLine
 10
-317232.1603301763
 20
82151.67421485951
 30
0.0
 11
-312675.1126475368
 21
82610.7018689944
 31
0.0
  0
LINE
  5
1E7
330
17
100
AcDbEntity
  8
0
100
AcDbLine
 10
-291765.9706753206
 20
147470.5384565208
 30
0.0
 11
-282511.970675322
 21
187572.5384565112
 31
0.0
  0
LINE
  5
1E8
330
17
100
AcDbEntity
  8
0
100
AcDbLine
 10
-282511.970675322
 20
187572.5384565112
 30
0.0
 11
-319402.9706752907
 21
183856.538456514
 31
0.0
  0
LINE
  5
1E9
330
17
100
AcDbEntity
  8
0
100
AcDbLine
 10
-319402.9706752907
 20
183856.538456514
 30
0.0
 11
-315381.9706753247
 21
143652.5384565254
 31
0.0
  0
LINE
  5
1EA
330
17
100
AcDbEntity
  8
0
100
AcDbLine
 10
-315381.9706753247
 20
143652.5384565254
 30
0.0
 11
-291765.9706753206
 21
147470.5384565208
 31
0.0
  0
LINE
  5
1EB
330
17
100
AcDbEntity
  8
0
100
AcDbLine
 10
-304717.3571504209
 20
145376.68710312207
 30
0.0
 11
-295276.8899116178
 21
186286.73867114133
 31
0.0
  0
LINE
  5
1EC
330
17
100
AcDbEntity
  8
0
100
AcDbLine
 10
-289915.17067532084
 20
155490.93845651887
 30
0.0
 11
-301753.0016365999
 21
158222.65477280447
 31
0.0
  0
LINE
  5
1ED
330
17
100
AcDbEntity
  8
0
100
AcDbLine
 10
-288064.37067532114
 20
163511.33845651697
 30
0.0
 11
-299902.20163660013
 21
166243.05477280257
 31
0.0
  0
LINE
  5
1EE
330
17
100
AcDbEntity
  8
0
100
AcDbLine
 10
-286213.57067532145
 20
171531.73845651504
 30
0.0
 11
-298051.40163660044
 21
174263.45477280064
 31
0.0
  0
LINE
  5
1EF
330
17
100
AcDbEntity
  8
0
100
AcDbLine
 10
-284362.7706753217
 20
179552.13845651312
 30
0.0
 11
-296200.60163660074
 21
182283.85477279872
 31
0.0
  0
LINE
  5
1F0
330
17
100
AcDbEntity
  8
0
100
AcDbLine
 10
-310744.028940043
 20
152975.77325995575
 30
0.0
 11
-306764.1685445619
 21
153376.66131475527
 31
0.0
  0
LINE
  5
1F1
330
17
100
AcDbEntity
  8
0
100
AcDbLine
 10
-309930.49266304227
 20
184810.6933531966
 30
0.0
 11
-306764.1685445619
 21
153376.66131475527
 31
0.0
  0
LINE
  5
1F2
330
17
100
AcDbEntity
  8
0
100
AcDbLine
 10
-313910.3530585234
 20
184409.80529839708
 30
0.0
 11
-310744.028940043
 21
152975.77325995575
 31
0.0
  0
LINE
  5
1F3
330
17
100
AcDbEntity
  8
0
100
AcDbLine
 10
-308754.09874230245
 20
153176.2172873555
 30
0.0
 11
-307916.363037551
 21
144859.50364796259
 31
0.0
  0
LINE
  5
1F4
330
17
100
AcDbEntity
  8
0
100
AcDbLine
 10
-297081.49969516817
 20
178466.5029309283
 30
0.0
 11
-309168.80535892316
 21
177248.9586017825
 31
0.0
  0
LINE
  5
1F5
330
17
100
AcDbEntity
  8
0
100
AcDbLine
 10
-300132.3824954027
 20
165245.57121977693
 30
0.0
 11
-307881.0927927627
 21
164465.0500231438
 31
0.0
  0
LINE
  5
1F6
330
17
100
AcDbEntity
  8
0
100
AcDbLine
 10
-317564.89058897435
 20
165478.4803140451
 30
0.0
 11
-312046.0739063507
 21
166041.5673920696
 31
0.0
  0
LINE
  5
1F7
330
17
100
AcDbEntity
  8
0
100
AcDbLine
 10
-316723.6945976441
 20
157067.77560483926
 30
0.0
 11
-311212.13526313263
 21
157622.95043032643
 31
0.0
  0
LINE
  5
1F8
330
17
100
AcDbEntity
  8
0
100
AcDbLine
 10
-291765.9706753206
 20
227470.5384565208
 30
0.0
 11
-282511.970675322
 21
267572.5384565112
 31
0.0
  0
LINE
  5
1F9
330
17
100
AcDbEntity
  8
0
100
AcDbLine
 10
-282511.970675322
 20
267572.5384565112
 30
0.0
 11
-319402.9706752907
 21
263856.538456514
 31
0.0
  0
LINE
  5
1FA
330
17
100
AcDbEntity
  8
0
100
AcDbLine
 10
-319402.9706752907
 20
263856.538456514
 30
0.0
 11
-315381.9706753247
 21
223652.5384565254
 31
0.0
  0
LINE
  5
1FB
330
17
100
AcDbEntity
  8
0
100
AcDbLine
 10
-315381.9706753247
 20
223652.5384565254
 30
0.0
 11
-291765.9706753206
 21
227470.5384565208
 31
0.0
  0
LINE
  5
1FC
330
17
100
AcDbEntity
  8
0
100
AcDbLine
 10
-304717.3571504209
 20
225376.68710312207
 30
0.0
 11
-295276.8899116178
 21
266286.7386711413
 31
0.0
  0
LINE
  5
1FD
330
17
100
AcDbEntity
  8
0
100
AcDbLine
 10
-289915.17067532084
 20
235490.93845651887
 30
0.0
 11
-301753.0016365999
 21
238222.65477280447
 31
0.0
  0
LINE
  5
1FE
330
17
100
AcDbEntity
  8
0
100
AcDbLine
 10
-288064.37067532114
 20
243511.33845651697
 30
0.0
 11
-299902.20163660013
 21
246243.05477280257
 31
0.0
  0
LINE
  5
1FF
330
17
100
AcDbEntity
  8
0
100
AcDbLine
 10
-286213.57067532145
 20
251531.73845651504
 30
0.0
 11
-298051.40163660044
 21
254263.45477280064
 31
0.0
  0
LINE
  5
200
330
17
100
AcDbEntity
  8
0
100
AcDbLine
 10
-284362.7706753217
 20
259552.13845651312
 30
0.0
 11
-296200.60163660074
 21
262283.8547727987
 31
0.0
  0
LINE
  5
201
330
17
100
AcDbEntity
  8
0
100
AcDbLine
 10
-307964.647139204
 20
232586.8308516747
 30
0.0
 11
-303984.7867437229
 21
232987.7189064742
 31
0.0
  0
LINE
  5
202
330
17
100
AcDbEntity
  8
0
100
AcDbLine
 10
-307217.8125573227
 20
265083.9393826579
 30
0.0
 11
-303984.7867437229
 21
232987.7189064742
 31
0.0
  0
LINE
  5
203
330
17
100
AcDbEntity
  8
0
100
AcDbLine
 10
-311197.6729528038
 20
264683.05132785835
 30
0.0
 11
-307964.647139204
 21
232586.8308516747
 31
0.0
  0
LINE
  5
204
330
17
100
AcDbEntity
  8
0
100
AcDbLine
 10
-305974.71694146347
 20
232787.27487907445
 30
0.0
 11
-305220.0679567195
 21
225295.41381982068
 31
0.0
  0
LINE
  5
205
330
17
100
AcDbEntity
  8
0
100
AcDbLine
 10
-297600.42125931627
 20
256217.76805244712
 30
0.0
 11
-306237.09952761565
 21
255347.80257455268
 31
0.0
  0
LINE
  5
206
330
17
100
AcDbEntity
  8
0
100
AcDbLine
 10
-318171.60514967307
 20
251544.7206021653
 30
0.0
 11
-309952.6701203988
 21
252383.07840061563
 31
0.0
  0
LINE
  5
207
330
17
100
AcDbEntity
  8
0
100
AcDbLine
 10
-316425.4563706313
 20
234085.83835566737
 30
0.0
 11
-308199.1084711923
 21
234914.4715939726
 31
0.0
  0
LINE
  5
208
330
17
100
AcDbEntity
  8
0
100
AcDbLine
 10
-391765.9706753206
 20
-12529.4615434792
 30
0.0
 11
-382511.970675322
 21
27572.5384565112
 31
0.0
  0
LINE
  5
209
330
17
100
AcDbEntity
  8
0
100
AcDbLine
 10
-382511.970675322
 20
27572.5384565112
 30
0.0
 11
-419402.9706752907
 21
23856.538456514
 31
0.0
  0
LINE
  5
20A
330
17
100
AcDbEntity
  8
0
100
AcDbLine
 10
-419402.9706752907
 20
23856.538456514
 30
0.0
 11
-415381.9706753247
 21
-16347.4615434746
 31
0.0
  0
LINE
  5
20B
330
17
100
AcDbEntity
  8
0
100
AcDbLine
 10
-415381.9706753247
 20
-16347.4615434746
 30
0.0
 11
-391765.9706753206
 21
-12529.4615434792
 31
0.0
  0
LINE
  5
20C
330
17
100
AcDbEntity
  8
0
100
AcDbLine
 10
-404717.3571504209
 20
-14623.312896877947
 30
0.0
 11
-395276.8899116178
 21
26286.73867114134
 31
0.0
  0
LINE
  5
20D
330
17
100
AcDbEntity
  8
0
100
AcDbLine
 10
-389915.17067532084
 20
-4509.061543481121
 30
0.0
 11
-401753.0016365999
 21
-1777.3452271955189
 31
0.0
  0
LINE
  5
20E
330
17
100
AcDbEntity
  8
0
100
AcDbLine
 10
-388064.37067532114
 20
3511.338456516958
 30
0.0
 11
-399902.20163660013
 21
6243.0547728025595
 31
0.0
  0
LINE
  5
20F
330
17
100
AcDbEntity
  8
0
100
AcDbLine
 10
-386213.57067532145
 20
11531.738456515035
 30
0.0
 11
-398051.40163660044
 21
14263.454772800636
 31
0.0
  0
LINE
  5
210
330
17
100
AcDbEntity
  8
0
100
AcDbLine
 10
-384362.7706753217
 20
19552.138456513116
 30
0.0
 11
-396200.60163660074
 21
22283.854772798717
 31
0.0
  0
LINE
  5
211
330
17
100
AcDbEntity
  8
0
100
AcDbLine
 10
-408097.1689588053
 20
-9512.91843832979
 30
0.0
 11
-404117.3085633242
 21
-9112.03038353027
 31
0.0
  0
LINE
  5
212
330
17
100
AcDbEntity
  8
0
100
AcDbLine
 10
-407558.3848198305
 20
25049.63381958072
 30
0.0
 11
-404117.3085633242
 21
-9112.03038353027
 31
0.0
  0
LINE
  5
213
330
17
100
AcDbEntity
  8
0
100
AcDbLine
 10
-411538.2452153116
 20
24648.745764781197
 30
0.0
 11
-408097.1689588053
 21
-9512.91843832979
 31
0.0
  0
LINE
  5
214
330
17
100
AcDbEntity
  8
0
100
AcDbLine
 10
-406107.2387610648
 20
-9312.47441093003
 30
0.0
 11
-405558.5831078909
 21
-14759.313943016843
 31
0.0
  0
LINE
  5
215
330
17
100
AcDbEntity
  8
0
100
AcDbLine
 10
-397518.9684322395
 20
16570.74203898624
 30
0.0
 11
-406612.0512913511
 21
15654.803303130275
 31
0.0
  0
LINE
  5
216
330
17
100
AcDbEntity
  8
0
100
AcDbLine
 10
-418118.46713319217
 20
11013.419728100507
 30
0.0
 11
-410239.35963733867
 21
11816.4998944846
 31
0.0
  0
LINE
  5
217
330
17
100
AcDbEntity
  8
0
100
AcDbLine
 10
-416468.4247299119
 20
-5484.542167453281
 30
0.0
 11
-408582.9528670263
 21
-4690.24509113425
 31
0.0
  0
LINE
  5
218
330
17
100
AcDbEntity
  8
0
100
AcDbLine
 10
-391765.9706753206
 20
67470.5384565208
 30
0.0
 11
-382511.970675322
 21
107572.5384565112
 31
0.0
  0
LINE
  5
219
330
17
100
AcDbEntity
  8
0
100
AcDbLine
 10
-382511.970675322
 20
107572.5384565112
 30
0.0
 11
-419402.9706752907
 21
103856.538456514
 31
0.0
  0
LINE
  5
21A
330
17
100
AcDbEntity
  8
0
100
AcDbLine
 10
-419402.9706752907
 20
103856.538456514
 30
0.0
 11
-415381.9706753247
 21
63652.5384565254
 31
0.0
  0
LINE
  5
21B
330
17
100
AcDbEntity
  8
0
100
AcDbLine
 10
-415381.9706753247
 20
63652.5384565254
 30
0.0
 11
-391765.9706753206
 21
67470.5384565208
 31
0.0
  0
LINE
  5
21C
330
17
100
AcDbEntity
  8
0
100
AcDbLine
 10
-404717.3571504209
 20
65376.68710312205
 30
0.0
 11
-395276.8899116178
 21
106286.73867114134
 31
0.0
  0
LINE
  5
21D
330
17
100
AcDbEntity
  8
0
100
AcDbLine
 10
-389915.17067532084
 20
75490.93845651888
 30
0.0
 11
-401753.0016365999
 21
78222.65477280448
 31
0.0
  0
LINE
  5
21E
330
17
100
AcDbEntity
  8
0
100
AcDbLine
 10
-388064.37067532114
 20
83511.33845651695
 30
0.0
 11
-399902.20163660013
 21
86243.05477280256
 31
0.0
  0
LINE
  5
21F
330
17
100
AcDbEntity
  8
0
100
AcDbLine
 10
-386213.57067532145
 20
91531.73845651504
 30
0.0
 11
-398051.40163660044
 21
94263.45477280064
 31
0.0
  0
LINE
  5
220
330
17
100
AcDbEntity
  8
0
100
AcDbLine
 10
-384362.7706753217
 20
99552.13845651312
 30
0.0
 11
-396200.60163660074
 21
102283.85477279872
 31
0.0
  0
LINE
  5
221
330
17
100
AcDbEntity
  8
0
100
AcDbLine
 10
-408493.3683858166
 20
80691.90137293386
 30
0.0
 11
-404513.50799033546
 21
81092.78942773338
 31
0.0
  0
LINE
  5
222
330
17
100
AcDbEntity
  8
0
100
AcDbLine
 10
-406933.00648277445
 20
105112.62766362129
 30
0.0
 11
-404513.50799033546
 21
81092.78942773338
 31
0.0
  0
LINE
  5
223
330
17
100
AcDbEntity
  8
0
100
AcDbLine
 10
-410912.86687825556
 20
104711.73960882176
 30
0.0
 11
-408493.3683858166
 21
80691.90137293386
 31
0.0
  0
LINE
  5
224
330
17
100
AcDbEntity
  8
0
100
AcDbLine
 10
-406503.438188076
 20
80892.34540033362
 30
0.0
 11
-404936.98215674766
 21
65341.18031644546
 31
0.0
  0
LINE
  5
225
330
17
100
AcDbEntity
  8
0
100
AcDbLine
 10
-397673.2231277615
 20
95902.2827997574
 30
0.0
 11
-405921.56533698586
 21
95071.43409276978
 31
0.0
  0
LINE
  5
226
330
17
100
AcDbEntity
  8
0
100
AcDbLine
 10
-418212.44874138734
 20
91953.09557388755
 30
0.0
 11
-409708.05679615674
 21
92824.27584789784
 31
0.0
  0
LINE
  5
227
330
17
100
AcDbEntity
  8
0
100
AcDbLine
 10
-416356.0668274205
 20
73392.04646427951
 30
0.0
 11
-405854.49209141196
 21
74449.86142508328
 31
0.0
  0
LINE
  5
228
330
17
100
AcDbEntity
  8
0
100
AcDbLine
 10
-391765.9706753206
 20
147470.5384565208
 30
0.0
 11
-382511.970675322
 21
187572.5384565112
 31
0.0
  0
LINE
  5
229
330
17
100
AcDbEntity
  8
0
100
AcDbLine
 10
-382511.970675322
 20
187572.5384565112
 30
0.0
 11
-419402.9706752907
 21
183856.538456514
 31
0.0
  0
LINE
  5
22A
330
17
100
AcDbEntity
  8
0
100
AcDbLine
 10
-419402.9706752907
 20
183856.538456514
 30
0.0
 11
-415381.9706753247
 21
143652.5384565254
 31
0.0
  0
LINE
  5
22B
330
17
100
AcDbEntity
  8
0
100
AcDbLine
 10
-415381.9706753247
 20
143652.5384565254
 30
0.0
 11
-391765.9706753206
 21
147470.5384565208
 31
0.0
  0
LINE
  5
22C
330
17
100
AcDbEntity
  8
0
100
AcDbLine
 10
-404717.3571504209
 20
145376.68710312207
 30
0.0
 11
-395276.8899116178
 21
186286.73867114133
 31
0.0
  0
LINE
  5
22D
330
17
100
AcDbEntity
  8
0
100
AcDbLine
 10
-389915.17067532084
 20
155490.93845651887
 30
0.0
 11
-401753.0016365999
 21
158222.65477280447
 31
0.0
  0
LINE
  5
22E
330
17
100
AcDbEntity
  8
0
100
AcDbLine
 10
-388064.37067532114
 20
163511.33845651697
 30
0.0
 11
-399902.20163660013
 21
166243.05477280257
 31
0.0
  0
LINE
  5
22F
330
17
100
AcDbEntity
  8
0
100
AcDbLine
 10
-386213.57067532145
 20
171531.73845651504
 30
0.0
 11
-398051.40163660044
 21
174263.45477280064
 31
0.0
  0
LINE
  5
230
330
17
100
AcDbEntity
  8
0
100
AcDbLine
 10
-384362.7706753217
 20
179552.13845651312
 30
0.0
 11
-396200.60163660074
 21
182283.85477279872
 31
0.0
  0
LINE
  5
231
330
17
100
AcDbEntity
  8
0
100
AcDbLine
 10
-408517.78564343974
 20
159058.81713783345
 30
0.0
 11
-404537.9252479586
 21
159459.70519263297
 31
0.0
  0
LINE
  5
232
330
17
100
AcDbEntity
  8
0
100
AcDbLine
 10
-407120.02540575265
 20
185093.7894017746
 30
0.0
 11
-404537.9252479586
 21
159459.70519263297
 31
0.0
  0
LINE
  5
233
330
17
100
AcDbEntity
  8
0
100
AcDbLine
 10
-411099.88580123376
 20
184692.90134697506
 30
0.0
 11
-408517.78564343974
 21
159058.81713783345
 31
0.0
  0
LINE
  5
234
330
17
100
AcDbEntity
  8
0
100
AcDbLine
 10
-406527.8554456992
 20
159259.2611652332
 30
0.0
 11
-405122.8714552998
 21
145311.12758347328
 31
0.0
  0
LINE
  5
235
330
17
100
AcDbEntity
  8
0
100
AcDbLine
 10
-397624.9136027333
 20
176111.63103540492
 30
0.0
 11
-406128.97468021855
 21
175255.02397775024
 31
0.0
  0
LINE
  5
236
330
17
100
AcDbEntity
  8
0
100
AcDbLine
 10
-397825.52372846054
 20
175242.2915863111
 30
0.0
 11
-406044.3014244061
 21
174414.4208883594
 31
0.0
  0
LINE
  5
237
330
17
100
AcDbEntity
  8
0
100
AcDbLine
 10
-418185.8046935131
 20
171686.69485248835
 30
0.0
 11
-409868.1651734831
 21
172537.8346837557
 31
0.0
  0
LINE
  5
238
330
17
100
AcDbEntity
  8
0
100
AcDbLine
 10
-416372.596185475
 20
153557.31538027772
 30
0.0
 11
-406058.157230292
 21
154596.2803082402
 31
0.0
  0
LINE
  5
239
330
17
100
AcDbEntity
  8
0
100
AcDbLine
 10
-391765.9706753206
 20
227470.5384565208
 30
0.0
 11
-382511.970675322
 21
267572.5384565112
 31
0.0
  0
LINE
  5
23A
330
17
100
AcDbEntity
  8
0
100
AcDbLine
 10
-382511.970675322
 20
267572.5384565112
 30
0.0
 11
-419402.9706752907
 21
263856.538456514
 31
0.0
  0
LINE
  5
23B
330
17
100
AcDbEntity
  8
0
100
AcDbLine
 10
-419402.9706752907
 20
263856.538456514
 30
0.0
 11
-415381.9706753247
 21
223652.5384565254
 31
0.0
  0
LINE
  5
23C
330
17
100
AcDbEntity
  8
0
100
AcDbLine
 10
-415381.9706753247
 20
223652.5384565254
 30
0.0
 11
-391765.9706753206
 21
227470.5384565208
 31
0.0
  0
LINE
  5
23D
330
17
100
AcDbEntity
  8
0
100
AcDbLine
 10
-404717.3571504209
 20
225376.68710312207
 30
0.0
 11
-395276.8899116178
 21
266286.7386711413
 31
0.0
  0
LINE
  5
23E
330
17
100
AcDbEntity
  8
0
100
AcDbLine
 10
-389915.17067532084
 20
235490.93845651887
 30
0.0
 11
-401753.0016365999
 21
238222.65477280447
 31
0.0
  0
LINE
  5
23F
330
17
100
AcDbEntity
  8
0
100
AcDbLine
 10
-388064.37067532114
 20
243511.33845651697
 30
0.0
 11
-399902.20163660013
 21
246243.05477280257
 31
0.0
  0
LINE
  5
240
330
17
100
AcDbEntity
  8
0
100
AcDbLine
 10
-386213.57067532145
 20
251531.73845651504
 30
0.0
 11
-398051.40163660044
 21
254263.45477280064
 31
0.0
  0
LINE
  5
241
330
17
100
AcDbEntity
  8
0
100
AcDbLine
 10
-384362.7706753217
 20
259552.13845651312
 30
0.0
 11
-396200.60163660074
 21
262283.8547727987
 31
0.0
  0
LINE
  5
242
330
17
100
AcDbEntity
  8
0
100
AcDbLine
 10
-408345.94502404047
 20
237241.04520370657
 30
0.0
 11
-404366.0846285594
 21
237641.9332585061
 31
0.0
  0
LINE
  5
243
330
17
100
AcDbEntity
  8
0
100
AcDbLine
 10
-407131.17433276423
 20
265092.66637955303
 30
0.0
 11
-404366.0846285594
 21
237641.9332585061
 31
0.0
  0
LINE
  5
244
330
17
100
AcDbEntity
  8
0
100
AcDbLine
 10
-411111.03472824534
 20
264691.7783247535
 30
0.0
 11
-408345.94502404047
 21
237241.04520370657
 31
0.0
  0
LINE
  5
245
330
17
100
AcDbEntity
  8
0
100
AcDbLine
 10
-406356.0148263
 20
237441.48923110633
 30
0.0
 11
-405133.9530409959
 21
225309.33602291316
 31
0.0
  0
LINE
  5
246
330
17
100
AcDbEntity
  8
0
100
AcDbLine
 10
-397622.09512938553
 20
256123.8448260027
 30
0.0
 11
-406141.3132247228
 21
255265.71101444223
 31
0.0
  0
LINE
  5
247
330
17
100
AcDbEntity
  8
0
100
AcDbLine
 10
-397843.35257832456
 20
255165.0306680869
 30
0.0
 11
-406047.9251741122
 21
254338.59083815684
 31
0.0
  0
LINE
  5
248
330
17
100
AcDbEntity
  8
0
100
AcDbLine
 10
-418184.26112220716
 20
251671.26144269353
 30
0.0
 11
-409878.1332672203
 21
252520.33057996156
 31
0.0
  0
LINE
  5
249
330
17
100
AcDbEntity
  8
0
100
AcDbLine
 10
-416373.6011661827
 20
233567.3636877566
 30
0.0
 11
-406070.3182429382
 21
234605.2048778241
 31
0.0
  0
LINE
  5
24A
330
17
100
AcDbEntity
  8
0
100
AcDbLine
 10
-491765.9706753206
 20
-12529.4615434792
 30
0.0
 11
-482511.970675322
 21
27572.5384565112
 31
0.0
  0
LINE
  5
24B
330
17
100
AcDbEntity
  8
0
100
AcDbLine
 10
-482511.970675322
 20
27572.5384565112
 30
0.0
 11
-519402.9706752907
 21
23856.538456514
 31
0.0
  0
LINE
  5
24C
330
17
100
AcDbEntity
  8
0
100
AcDbLine
 10
-519402.9706752907
 20
23856.538456514
 30
0.0
 11
-515381.9706753247
 21
-16347.4615434746
 31
0.0
  0
LINE
  5
24D
330
17
100
AcDbEntity
  8
0
100
AcDbLine
 10
-515381.9706753247
 20
-16347.4615434746
 30
0.0
 11
-491765.9706753206
 21
-12529.4615434792
 31
0.0
  0
LINE
  5
24E
330
17
100
AcDbEntity
  8
0
100
AcDbLine
 10
-504717.3571504209
 20
-14623.312896877947
 30
0.0
 11
-495276.8899116178
 21
26286.73867114134
 31
0.0
  0
LINE
  5
24F
330
17
100
AcDbEntity
  8
0
100
AcDbLine
 10
-489915.17067532084
 20
-4509.061543481121
 30
0.0
 11
-501753.0016365999
 21
-1777.3452271955189
 31
0.0
  0
LINE
  5
250
330
17
100
AcDbEntity
  8
0
100
AcDbLine
 10
-488064.37067532114
 20
3511.338456516958
 30
0.0
 11
-499902.20163660013
 21
6243.0547728025595
 31
0.0
  0
LINE
  5
251
330
17
100
AcDbEntity
  8
0
100
AcDbLine
 10
-486213.57067532145
 20
11531.738456515035
 30
0.0
 11
-498051.40163660044
 21
14263.454772800636
 31
0.0
  0
LINE
  5
252
330
17
100
AcDbEntity
  8
0
100
AcDbLine
 10
-484362.7706753217
 20
19552.138456513116
 30
0.0
 11
-496200.60163660074
 21
22283.854772798717
 31
0.0
  0
LINE
  5
253
330
17
100
AcDbEntity
  8
0
100
AcDbLine
 10
-512984.68600806623
 20
-6849.705523851626
 30
0.0
 11
-509004.8256125851
 21
-6448.817469052105
 31
0.0
  0
LINE
  5
254
330
17
100
AcDbEntity
  8
0
100
AcDbLine
 10
-512131.24075569934
 20
24589.013813137673
 30
0.0
 11
-509004.8256125851
 21
-6448.817469052105
 31
0.0
  0
LINE
  5
255
330
17
100
AcDbEntity
  8
0
100
AcDbLine
 10
-516111.10115118045
 20
24188.125758338152
 30
0.0
 11
-512984.68600806623
 21
-6849.705523851626
 31
0.0
  0
LINE
  5
256
330
17
100
AcDbEntity
  8
0
100
AcDbLine
 10
-510994.7558103257
 20
-6649.261496451865
 30
0.0
 11
-510103.81825715804
 21
-15494.142355952054
 31
0.0
  0
LINE
  5
257
330
17
100
AcDbEntity
  8
0
100
AcDbLine
 10
-497081.49969516817
 20
18466.502930928305
 30
0.0
 11
-511369.5534515803
 21
17027.279061723566
 31
0.0
  0
LINE
  5
258
330
17
100
AcDbEntity
  8
0
100
AcDbLine
 10
-501414.7740956234
 20
-311.64381718513505
 30
0.0
 11
-509540.57073954074
 21
-1130.148610462621
 31
0.0
  0
LINE
  5
259
330
17
100
AcDbEntity
  8
0
100
AcDbLine
 10
-499248.1368953958
 20
9077.429556871592
 30
0.0
 11
-510455.0620955605
 21
7948.565225630473
 31
0.0
  0
LINE
  5
25A
330
17
100
AcDbEntity
  8
0
100
AcDbLine
 10
-516338.8022319794
 20
-6780.573728488245
 30
0.0
 11
-512995.6127317632
 21
-6439.4105059630965
 31
0.0
  0
LINE
  5
25B
330
17
100
AcDbEntity
  8
0
100
AcDbLine
 10
-517265.3904508982
 20
2483.925837220897
 30
0.0
 11
-513958.40884423564
 21
2817.0353666551605
 31
0.0
  0
LINE
  5
25C
330
17
100
AcDbEntity
  8
0
100
AcDbLine
 10
-491765.9706753206
 20
67470.5384565208
 30
0.0
 11
-482511.970675322
 21
107572.5384565112
 31
0.0
  0
LINE
  5
25D
330
17
100
AcDbEntity
  8
0
100
AcDbLine
 10
-482511.970675322
 20
107572.5384565112
 30
0.0
 11
-519402.9706752907
 21
103856.538456514
 31
0.0
  0
LINE
  5
25E
330
17
100
AcDbEntity
  8
0
100
AcDbLine
 10
-519402.9706752907
 20
103856.538456514
 30
0.0
 11
-515381.9706753247
 21
63652.5384565254
 31
0.0
  0
LINE
  5
25F
330
17
100
AcDbEntity
  8
0
100
AcDbLine
 10
-515381.9706753247
 20
63652.5384565254
 30
0.0
 11
-491765.9706753206
 21
67470.5384565208
 31
0.0
  0
LINE
  5
260
330
17
100
AcDbEntity
  8
0
100
AcDbLine
 10
-504717.3571504209
 20
65376.68710312205
 30
0.0
 11
-495276.8899116178
 21
106286.73867114134
 31
0.0
  0
LINE
  5
261
330
17
100
AcDbEntity
  8
0
100
AcDbLine
 10
-489915.17067532084
 20
75490.93845651888
 30
0.0
 11
-501753.0016365999
 21
78222.65477280448
 31
0.0
  0
LINE
  5
262
330
17
100
AcDbEntity
  8
0
100
AcDbLine
 10
-488064.37067532114
 20
83511.33845651695
 30
0.0
 11
-499902.20163660013
 21
86243.05477280256
 31
0.0
  0
LINE
  5
263
330
17
100
AcDbEntity
  8
0
100
AcDbLine
 10
-486213.57067532145
 20
91531.73845651504
 30
0.0
 11
-498051.40163660044
 21
94263.45477280064
 31
0.0
  0
LINE
  5
264
330
17
100
AcDbEntity
  8
0
100
AcDbLine
 10
-484362.7706753217
 20
99552.13845651312
 30
0.0
 11
-496200.60163660074
 21
102283.85477279872
 31
0.0
  0
LINE
  5
265
330
17
100
AcDbEntity
  8
0
100
AcDbLine
 10
-511984.76280591066
 20
81752.8323035737
 30
0.0
 11
-508004.90241042955
 21
82153.72035837322
 31
0.0
  0
LINE
  5
266
330
17
100
AcDbEntity
  8
0
100
AcDbLine
 10
-510283.5384789935
 20
104775.13133937008
 30
0.0
 11
-508004.90241042955
 21
82153.72035837322
 31
0.0
  0
LINE
  5
267
330
17
100
AcDbEntity
  8
0
100
AcDbLine
 10
-514263.39887447463
 20
104374.24328457056
 30
0.0
 11
-511984.76280591066
 21
81752.8323035737
 31
0.0
  0
LINE
  5
268
330
17
100
AcDbEntity
  8
0
100
AcDbLine
 10
-509994.8326081701
 20
81953.27633097346
 30
0.0
 11
-508267.2763998934
 21
64802.77146565308
 31
0.0
  0
LINE
  5
269
330
17
100
AcDbEntity
  8
0
100
AcDbLine
 10
-497081.49969516817
 20
98466.50293092831
 30
0.0
 11
-509521.8511748744
 21
97213.39658795597
 31
0.0
  0
LINE
  5
26A
330
17
100
AcDbEntity
  8
0
100
AcDbLine
 10
-500398.7476793506
 20
84091.28371095064
 30
0.0
 11
-508121.71154513385
 21
83313.35593113299
 31
0.0
  0
LINE
  5
26B
330
17
100
AcDbEntity
  8
0
100
AcDbLine
 10
-517438.5907912136
 20
84215.67079670788
 30
0.0
 11
-512264.36143896065
 21
84746.269724025
 31
0.0
  0
LINE
  5
26C
330
17
100
AcDbEntity
  8
0
100
AcDbLine
 10
-516787.73672951164
 20
77708.10136202001
 30
0.0
 11
-509639.74577281845
 21
78428.11259497858
 31
0.0
  0
LINE
  5
26D
330
17
100
AcDbEntity
  8
0
100
AcDbLine
 10
-491765.9706753206
 20
147470.5384565208
 30
0.0
 11
-482511.970675322
 21
187572.5384565112
 31
0.0
  0
LINE
  5
26E
330
17
100
AcDbEntity
  8
0
100
AcDbLine
 10
-482511.970675322
 20
187572.5384565112
 30
0.0
 11
-519402.9706752907
 21
183856.538456514
 31
0.0
  0
LINE
  5
26F
330
17
100
AcDbEntity
  8
0
100
AcDbLine
 10
-519402.9706752907
 20
183856.538456514
 30
0.0
 11
-515381.9706753247
 21
143652.5384565254
 31
0.0
  0
LINE
  5
270
330
17
100
AcDbEntity
  8
0
100
AcDbLine
 10
-515381.9706753247
 20
143652.5384565254
 30
0.0
 11
-491765.9706753206
 21
147470.5384565208
 31
0.0
  0
LINE
  5
271
330
17
100
AcDbEntity
  8
0
100
AcDbLine
 10
-504717.3571504209
 20
145376.68710312207
 30
0.0
 11
-495276.8899116178
 21
186286.73867114133
 31
0.0
  0
LINE
  5
272
330
17
100
AcDbEntity
  8
0
100
AcDbLine
 10
-489915.17067532084
 20
155490.93845651887
 30
0.0
 11
-501753.0016365999
 21
158222.65477280447
 31
0.0
  0
LINE
  5
273
330
17
100
AcDbEntity
  8
0
100
AcDbLine
 10
-488064.37067532114
 20
163511.33845651697
 30
0.0
 11
-499902.20163660013
 21
166243.05477280257
 31
0.0
  0
LINE
  5
274
330
17
100
AcDbEntity
  8
0
100
AcDbLine
 10
-486213.57067532145
 20
171531.73845651504
 30
0.0
 11
-498051.40163660044
 21
174263.45477280064
 31
0.0
  0
LINE
  5
275
330
17
100
AcDbEntity
  8
0
100
AcDbLine
 10
-484362.7706753217
 20
179552.13845651312
 30
0.0
 11
-496200.60163660074
 21
182283.85477279872
 31
0.0
  0
LINE
  5
276
330
17
100
AcDbEntity
  8
0
100
AcDbLine
 10
-511341.1555168689
 20
157913.13492195925
 30
0.0
 11
-507361.2951213878
 21
158314.02297675877
 31
0.0
  0
LINE
  5
277
330
17
100
AcDbEntity
  8
0
100
AcDbLine
 10
-510029.2805343288
 20
184800.74253240833
 30
0.0
 11
-507361.2951213878
 21
158314.02297675877
 31
0.0
  0
LINE
  5
278
330
17
100
AcDbEntity
  8
0
100
AcDbLine
 10
-514009.1409298099
 20
184399.8544776088
 30
0.0
 11
-511341.1555168689
 21
157913.13492195925
 31
0.0
  0
LINE
  5
279
330
17
100
AcDbEntity
  8
0
100
AcDbLine
 10
-509351.22531912837
 20
158113.578949359
 30
0.0
 11
-508014.5542141788
 21
144843.62907511517
 31
0.0
  0
LINE
  5
27A
330
17
100
AcDbEntity
  8
0
100
AcDbLine
 10
-497081.49969516817
 20
178466.5029309283
 30
0.0
 11
-509267.59323020966
 21
177239.00778099423
 31
0.0
  0
LINE
  5
27B
330
17
100
AcDbEntity
  8
0
100
AcDbLine
 10
-500210.07751132426
 20
164908.88162300948
 30
0.0
 11
-507947.0872547702
 21
164129.53901352079
 31
0.0
  0
LINE
  5
27C
330
17
100
AcDbEntity
  8
0
100
AcDbLine
 10
-517531.15272190794
 20
165141.15198588092
 30
0.0
 11
-512107.85179679317
 21
165695.8319376288
 31
0.0
  0
LINE
  5
27D
330
17
100
AcDbEntity
  8
0
100
AcDbLine
 10
-516740.95231262856
 20
157240.32700330782
 30
0.0
 11
-509338.37265878613
 21
157985.98274572956
 31
0.0
  0
LINE
  5
27E
330
17
100
AcDbEntity
  8
0
100
AcDbLine
 10
-491765.9706753206
 20
227470.5384565208
 30
0.0
 11
-482511.970675322
 21
267572.5384565112
 31
0.0
  0
LINE
  5
27F
330
17
100
AcDbEntity
  8
0
100
AcDbLine
 10
-482511.970675322
 20
267572.5384565112
 30
0.0
 11
-519402.9706752907
 21
263856.538456514
 31
0.0
  0
LINE
  5
280
330
17
100
AcDbEntity
  8
0
100
AcDbLine
 10
-519402.9706752907
 20
263856.538456514
 30
0.0
 11
-515381.9706753247
 21
223652.5384565254
 31
0.0
  0
LINE
  5
281
330
17
100
AcDbEntity
  8
0
100
AcDbLine
 10
-515381.9706753247
 20
223652.5384565254
 30
0.0
 11
-491765.9706753206
 21
227470.5384565208
 31
0.0
  0
LINE
  5
282
330
17
100
AcDbEntity
  8
0
100
AcDbLine
 10
-504717.3571504209
 20
225376.68710312207
 30
0.0
 11
-495276.8899116178
 21
266286.7386711413
 31
0.0
  0
LINE
  5
283
330
17
100
AcDbEntity
  8
0
100
AcDbLine
 10
-489915.17067532084
 20
235490.93845651887
 30
0.0
 11
-501753.0016365999
 21
238222.65477280447
 31
0.0
  0
LINE
  5
284
330
17
100
AcDbEntity
  8
0
100
AcDbLine
 10
-488064.37067532114
 20
243511.33845651697
 30
0.0
 11
-499902.20163660013
 21
246243.05477280257
 31
0.0
  0
LINE
  5
285
330
17
100
AcDbEntity
  8
0
100
AcDbLine
 10
-486213.57067532145
 20
251531.73845651504
 30
0.0
 11
-498051.40163660044
 21
254263.45477280064
 31
0.0
  0
LINE
  5
286
330
17
100
AcDbEntity
  8
0
100
AcDbLine
 10
-484362.7706753217
 20
259552.13845651312
 30
0.0
 11
-496200.60163660074
 21
262283.8547727987
 31
0.0
  0
LINE
  5
287
330
17
100
AcDbEntity
  8
0
100
AcDbLine
 10
-511140.6441540628
 20
240744.44552338397
 30
0.0
 11
-507160.7837585817
 21
241145.3335781835
 31
0.0
  0
LINE
  5
288
330
17
100
AcDbEntity
  8
0
100
AcDbLine
 10
-509548.45225018496
 20
264849.17596885294
 30
0.0
 11
-507160.7837585817
 21
241145.3335781835
 31
0.0
  0
LINE
  5
289
330
17
100
AcDbEntity
  8
0
100
AcDbLine
 10
-513528.31264566607
 20
264448.2879140534
 30
0.0
 11
-511140.6441540628
 21
240744.44552338397
 31
0.0
  0
LINE
  5
28A
330
17
100
AcDbEntity
  8
0
100
AcDbLine
 10
-509150.71395632223
 20
240944.88955078373
 30
0.0
 11
-507536.6302103392
 21
224920.89507471956
 31
0.0
  0
LINE
  5
28B
330
17
100
AcDbEntity
  8
0
100
AcDbLine
 10
-497137.7820734046
 20
258222.60451596876
 30
0.0
 11
-508763.009354503
 21
257051.60496115685
 31
0.0
  0
LINE
  5
28C
330
17
100
AcDbEntity
  8
0
100
AcDbLine
 10
-499805.67525619146
 20
246661.34966227197
 30
0.0
 11
-507636.94853814377
 21
245872.51196430397
 31
0.0
  0
LINE
  5
28D
330
17
100
AcDbEntity
  8
0
100
AcDbLine
 10
-517683.96850395575
 20
246669.08177983796
 30
0.0
 11
-511781.6872035308
 21
247273.84162644297
 31
0.0
  0
LINE
  5
28E
330
17
100
AcDbEntity
  8
0
100
AcDbLine
 10
-516660.86704158655
 20
236439.59379340985
 30
0.0
 11
-508776.8929235742
 21
237233.74000312324
 31
0.0
  0
LINE
  5
28F
330
17
100
AcDbEntity
  8
0
100
AcDbLine
 10
-591765.9706753206
 20
-12529.4615434792
 30
0.0
 11
-582511.970675322
 21
27572.5384565112
 31
0.0
  0
LINE
  5
290
330
17
100
AcDbEntity
  8
0
100
AcDbLine
 10
-582511.970675322
 20
27572.5384565112
 30
0.0
 11
-619402.9706752907
 21
23856.538456514
 31
0.0
  0
LINE
  5
291
330
17
100
AcDbEntity
  8
0
100
AcDbLine
 10
-619402.9706752907
 20
23856.538456514
 30
0.0
 11
-615381.9706753247
 21
-16347.4615434746
 31
0.0
  0
LINE
  5
292
330
17
100
AcDbEntity
  8
0
100
AcDbLine
 10
-615381.9706753247
 20
-16347.4615434746
 30
0.0
 11
-591765.9706753206
 21
-12529.4615434792
 31
0.0
  0
LINE
  5
293
330
17
100
AcDbEntity
  8
0
100
AcDbLine
 10
-604717.3571504209
 20
-14623.312896877947
 30
0.0
 11
-595276.8899116177
 21
26286.73867114134
 31
0.0
  0
LINE
  5
294
330
17
100
AcDbEntity
  8
0
100
AcDbLine
 10
-589915.1706753209
 20
-4509.061543481121
 30
0.0
 11
-601753.0016365999
 21
-1777.3452271955189
 31
0.0
  0
LINE
  5
295
330
17
100
AcDbEntity
  8
0
100
AcDbLine
 10
-588064.3706753211
 20
3511.338456516958
 30
0.0
 11
-599902.2016366002
 21
6243.0547728025595
 31
0.0
  0
LINE
  5
296
330
17
100
AcDbEntity
  8
0
100
AcDbLine
 10
-586213.5706753214
 20
11531.738456515035
 30
0.0
 11
-598051.4016366004
 21
14263.454772800636
 31
0.0
  0
LINE
  5
297
330
17
100
AcDbEntity
  8
0
100
AcDbLine
 10
-584362.7706753217
 20
19552.138456513116
 30
0.0
 11
-596200.6016366007
 21
22283.854772798717
 31
0.0
  0
LINE
  5
298
330
17
100
AcDbEntity
  8
0
100
AcDbLine
 10
-608412.8855154467
 20
2752.670712446459
 30
0.0
 11
-604433.0251199655
 21
3153.5587672459806
 31
0.0
  0
LINE
  5
299
330
17
100
AcDbEntity
  8
0
100
AcDbLine
 10
-606647.8374463089
 20
25141.352505439234
 30
0.0
 11
-604433.0251199655
 21
3153.5587672459806
 31
0.0
  0
LINE
  5
29A
330
17
100
AcDbEntity
  8
0
100
AcDbLine
 10
-610627.69784179
 20
24740.464450639713
 30
0.0
 11
-608412.8855154467
 21
2752.670712446459
 31
0.0
  0
LINE
  5
29B
330
17
100
AcDbEntity
  8
0
100
AcDbLine
 10
-606422.9553177061
 20
2953.11473984622
 30
0.0
 11
-604672.2053599405
 21
-14427.648632576684
 31
0.0
  0
LINE
  5
29C
330
17
100
AcDbEntity
  8
0
100
AcDbLine
 10
-597750.8366614742
 20
15565.946304301973
 30
0.0
 11
-605603.637283144
 21
14774.940175161315
 31
0.0
  0
LINE
  5
29D
330
17
100
AcDbEntity
  8
0
100
AcDbLine
 10
-618250.8785012752
 20
12337.335829183396
 30
0.0
 11
-609461.804588905
 21
13239.09310388329
 31
0.0
  0
LINE
  5
29E
330
17
100
AcDbEntity
  8
0
100
AcDbLine
 10
-616341.2788598622
 20
-6755.811145200081
 30
0.0
 11
-605554.4305406751
 21
-5669.260811674192
 31
0.0
  0
LINE
  5
29F
330
17
100
AcDbEntity
  8
0
100
AcDbLine
 10
-617296.0786805687
 20
2790.762341991658
 30
0.0
 11
-608505.2681695047
 21
3676.253433561882
 31
0.0
  0
LINE
  5
2A0
330
17
100
AcDbEntity
  8
0
100
AcDbLine
 10
-591765.9706753206
 20
67470.5384565208
 30
0.0
 11
-582511.970675322
 21
107572.5384565112
 31
0.0
  0
LINE
  5
2A1
330
17
100
AcDbEntity
  8
0
100
AcDbLine
 10
-582511.970675322
 20
107572.5384565112
 30
0.0
 11
-619402.9706752907
 21
103856.538456514
 31
0.0
  0
LINE
  5
2A2
330
17
100
AcDbEntity
  8
0
100
AcDbLine
 10
-619402.9706752907
 20
103856.538456514
 30
0.0
 11
-615381.9706753247
 21
63652.5384565254
 31
0.0
  0
LINE
  5
2A3
330
17
100
AcDbEntity
  8
0
100
AcDbLine
 10
-615381.9706753247
 20
63652.5384565254
 30
0.0
 11
-591765.9706753206
 21
67470.5384565208
 31
0.0
  0
LINE
  5
2A4
330
17
100
AcDbEntity
  8
0
100
AcDbLine
 10
-604717.3571504209
 20
65376.68710312205
 30
0.0
 11
-595276.8899116177
 21
106286.73867114134
 31
0.0
  0
LINE
  5
2A5
330
17
100
AcDbEntity
  8
0
100
AcDbLine
 10
-589915.1706753209
 20
75490.93845651888
 30
0.0
 11
-601753.0016365999
 21
78222.65477280448
 31
0.0
  0
LINE
  5
2A6
330
17
100
AcDbEntity
  8
0
100
AcDbLine
 10
-588064.3706753211
 20
83511.33845651695
 30
0.0
 11
-599902.2016366002
 21
86243.05477280256
 31
0.0
  0
LINE
  5
2A7
330
17
100
AcDbEntity
  8
0
100
AcDbLine
 10
-586213.5706753214
 20
91531.73845651504
 30
0.0
 11
-598051.4016366004
 21
94263.45477280064
 31
0.0
  0
LINE
  5
2A8
330
17
100
AcDbEntity
  8
0
100
AcDbLine
 10
-584362.7706753217
 20
99552.13845651312
 30
0.0
 11
-596200.6016366007
 21
102283.85477279872
 31
0.0
  0
LINE
  5
2A9
330
17
100
AcDbEntity
  8
0
100
AcDbLine
 10
-607602.7009378297
 20
78184.16256097137
 30
0.0
 11
-603622.8405423486
 21
78585.05061577089
 31
0.0
  0
LINE
  5
2AA
330
17
100
AcDbEntity
  8
0
100
AcDbLine
 10
-606301.350509921
 20
105176.25384873754
 30
0.0
 11
-603622.8405423486
 21
78585.05061577089
 31
0.0
  0
LINE
  5
2AB
330
17
100
AcDbEntity
  8
0
100
AcDbLine
 10
-610281.2109054021
 20
104775.36579393802
 30
0.0
 11
-607602.7009378297
 21
78184.16256097137
 31
0.0
  0
LINE
  5
2AC
330
17
100
AcDbEntity
  8
0
100
AcDbLine
 10
-605612.7707400891
 20
78384.60658837113
 30
0.0
 11
-604428.557140768
 21
66628.19542245391
 31
0.0
  0
LINE
  5
2AD
330
17
100
AcDbEntity
  8
0
100
AcDbLine
 10
-597852.1813835367
 20
95126.77124009712
 30
0.0
 11
-605214.374900874
 21
94385.18355989251
 31
0.0
  0
LINE
  5
2AE
330
17
100
AcDbEntity
  8
0
100
AcDbLine
 10
-618294.7862024066
 20
92776.34732291635
 30
0.0
 11
-609161.249063696
 21
93710.44338471645
 31
0.0
  0
LINE
  5
2AF
330
17
100
AcDbEntity
  8
0
100
AcDbLine
 10
-616363.8091768589
 20
73469.45840579175
 30
0.0
 11
-605230.6332041993
 21
74590.89403817925
 31
0.0
  0
LINE
  5
2B0
330
17
100
AcDbEntity
  8
0
100
AcDbLine
 10
-617329.2976896327
 20
83122.90286435405
 30
0.0
 11
-608190.8597824549
 21
84043.41017679004
 31
0.0
  0
LINE
  5
2B1
330
17
100
AcDbEntity
  8
0
100
AcDbLine
 10
-591765.9706753206
 20
147470.5384565208
 30
0.0
 11
-582511.970675322
 21
187572.5384565112
 31
0.0
  0
LINE
  5
2B2
330
17
100
AcDbEntity
  8
0
100
AcDbLine
 10
-582511.970675322
 20
187572.5384565112
 30
0.0
 11
-619402.9706752907
 21
183856.538456514
 31
0.0
  0
LINE
  5
2B3
330
17
100
AcDbEntity
  8
0
100
AcDbLine
 10
-619402.9706752907
 20
183856.538456514
 30
0.0
 11
-615381.9706753247
 21
143652.5384565254
 31
0.0
  0
LINE
  5
2B4
330
17
100
AcDbEntity
  8
0
100
AcDbLine
 10
-615381.9706753247
 20
143652.5384565254
 30
0.0
 11
-591765.9706753206
 21
147470.5384565208
 31
0.0
  0
LINE
  5
2B5
330
17
100
AcDbEntity
  8
0
100
AcDbLine
 10
-604717.3571504209
 20
145376.68710312207
 30
0.0
 11
-595276.8899116177
 21
186286.73867114133
 31
0.0
  0
LINE
  5
2B6
330
17
100
AcDbEntity
  8
0
100
AcDbLine
 10
-589915.1706753209
 20
155490.93845651887
 30
0.0
 11
-601753.0016365999
 21
158222.65477280447
 31
0.0
  0
LINE
  5
2B7
330
17
100
AcDbEntity
  8
0
100
AcDbLine
 10
-588064.3706753211
 20
163511.33845651697
 30
0.0
 11
-599902.2016366002
 21
166243.05477280257
 31
0.0
  0
LINE
  5
2B8
330
17
100
AcDbEntity
  8
0
100
AcDbLine
 10
-586213.5706753214
 20
171531.73845651504
 30
0.0
 11
-598051.4016366004
 21
174263.45477280064
 31
0.0
  0
LINE
  5
2B9
330
17
100
AcDbEntity
  8
0
100
AcDbLine
 10
-584362.7706753217
 20
179552.13845651312
 30
0.0
 11
-596200.6016366007
 21
182283.85477279872
 31
0.0
  0
LINE
  5
2BA
330
17
100
AcDbEntity
  8
0
100
AcDbLine
 10
-608008.268492794
 20
164098.85941538017
 30
0.0
 11
-604028.4080973129
 21
164499.7474701797
 31
0.0
  0
LINE
  5
2BB
330
17
100
AcDbEntity
  8
0
100
AcDbLine
 10
-606113.0461347976
 20
185195.2215931185
 30
0.0
 11
-604028.4080973129
 21
164499.7474701797
 31
0.0
  0
LINE
  5
2BC
330
17
100
AcDbEntity
  8
0
100
AcDbLine
 10
-610092.9065302787
 20
184794.33353831898
 30
0.0
 11
-608008.268492794
 21
164098.85941538017
 31
0.0
  0
LINE
  5
2BD
330
17
100
AcDbEntity
  8
0
100
AcDbLine
 10
-606018.3382950535
 20
164299.30344277993
 30
0.0
 11
-604296.1422620442
 21
147202.01230883604
 31
0.0
  0
LINE
  5
2BE
330
17
100
AcDbEntity
  8
0
100
AcDbLine
 10
-597979.7909691485
 20
174573.7779828889
 30
0.0
 11
-604972.2092410949
 21
173869.43745813883
 31
0.0
  0
LINE
  5
2BF
330
17
100
AcDbEntity
  8
0
100
AcDbLine
 10
-618316.7171234695
 20
172995.62380896957
 30
0.0
 11
-608994.3635222943
 21
173953.20593706242
 31
0.0
  0
LINE
  5
2C0
330
17
100
AcDbEntity
  8
0
100
AcDbLine
 10
-616379.2010974574
 20
153623.35464447684
 30
0.0
 11
-605057.8295661634
 21
154763.74706025014
 31
0.0
  0
LINE
  5
2C1
330
17
100
AcDbEntity
  8
0
100
AcDbLine
 10
-617347.9591104635
 20
163309.4892267232
 30
0.0
 11
-608023.2683599507
 21
164248.75763443537
 31
0.0
  0
LINE
  5
2C2
330
17
100
AcDbEntity
  8
0
100
AcDbLine
 10
-591765.9706753206
 20
227470.5384565208
 30
0.0
 11
-582511.970675322
 21
267572.5384565112
 31
0.0
  0
LINE
  5
2C3
330
17
100
AcDbEntity
  8
0
100
AcDbLine
 10
-582511.970675322
 20
267572.5384565112
 30
0.0
 11
-619402.9706752907
 21
263856.538456514
 31
0.0
  0
LINE
  5
2C4
330
17
100
AcDbEntity
  8
0
100
AcDbLine
 10
-619402.9706752907
 20
263856.538456514
 30
0.0
 11
-615381.9706753247
 21
223652.5384565254
 31
0.0
  0
LINE
  5
2C5
330
17
100
AcDbEntity
  8
0
100
AcDbLine
 10
-615381.9706753247
 20
223652.5384565254
 30
0.0
 11
-591765.9706753206
 21
227470.5384565208
 31
0.0
  0
LINE
  5
2C6
330
17
100
AcDbEntity
  8
0
100
AcDbLine
 10
-604717.3571504209
 20
225376.68710312207
 30
0.0
 11
-595276.8899116177
 21
266286.7386711413
 31
0.0
  0
LINE
  5
2C7
330
17
100
AcDbEntity
  8
0
100
AcDbLine
 10
-589915.1706753209
 20
235490.93845651887
 30
0.0
 11
-601753.0016365999
 21
238222.65477280447
 31
0.0
  0
LINE
  5
2C8
330
17
100
AcDbEntity
  8
0
100
AcDbLine
 10
-588064.3706753211
 20
243511.33845651697
 30
0.0
 11
-599902.2016366002
 21
246243.05477280257
 31
0.0
  0
LINE
  5
2C9
330
17
100
AcDbEntity
  8
0
100
AcDbLine
 10
-586213.5706753214
 20
251531.73845651504
 30
0.0
 11
-598051.4016366004
 21
254263.45477280064
 31
0.0
  0
LINE
  5
2CA
330
17
100
AcDbEntity
  8
0
100
AcDbLine
 10
-584362.7706753217
 20
259552.13845651312
 30
0.0
 11
-596200.6016366007
 21
262283.8547727987
 31
0.0
  0
LINE
  5
2CB
330
17
100
AcDbEntity
  8
0
100
AcDbLine
 10
-607577.0011627659
 20
239231.87383088813
 30
0.0
 11
-603597.1407672848
 21
239632.76188568765
 31
0.0
  0
LINE
  5
2CC
330
17
100
AcDbEntity
  8
0
100
AcDbLine
 10
-606171.4338251831
 20
265189.3402492278
 30
0.0
 11
-603597.1407672848
 21
239632.76188568765
 31
0.0
  0
LINE
  5
2CD
330
17
100
AcDbEntity
  8
0
100
AcDbLine
 10
-610151.2942206642
 20
264788.4521944283
 30
0.0
 11
-607577.0011627659
 21
239231.87383088813
 31
0.0
  0
LINE
  5
2CE
330
17
100
AcDbEntity
  8
0
100
AcDbLine
 10
-605587.0709650253
 20
239432.3178582879
 30
0.0
 11
-604337.2002509321
 21
227024.08844127823
 31
0.0
  0
LINE
  5
2CF
330
17
100
AcDbEntity
  8
0
100
AcDbLine
 10
-597892.3547041959
 20
254952.68106232808
 30
0.0
 11
-605067.5019142311
 21
254229.93440237053
 31
0.0
  0
LINE
  5
2D0
330
17
100
AcDbEntity
  8
0
100
AcDbLine
 10
-618310.2413809844
 20
252930.87604700198
 30
0.0
 11
-609047.0022013312
 21
253878.82428539902
 31
0.0
  0
LINE
  5
2D1
330
17
100
AcDbEntity
  8
0
100
AcDbLine
 10
-616372.7095425634
 20
233558.44878201414
 30
0.0
 11
-605109.679808213
 21
234692.96447670524
 31
0.0
  0
LINE
  5
2D2
330
17
100
AcDbEntity
  8
0
100
AcDbLine
 10
-617341.4754617739
 20
243244.66241450806
 30
0.0
 11
-608073.4281585962
 21
244178.2251744932
 31
0.0
  0
ENDSEC
  0
SECTION
  2
OBJECTS
  0
DICTIONARY
  5
A
330
0
100
AcDbDictionary
281
1
  3
ACAD_COLOR
350
B
  3
ACAD_GROUP
350
C
  3
ACAD_LAYOUT
350
D
  3
ACAD_MATERIAL
350
E
  3
ACAD_MLEADERSTYLE
350
F
  3
ACAD_MLINESTYLE
350
10
  3
ACAD_PLOTSETTINGS
350
11
  3
ACAD_PLOTSTYLENAME
350
12
  3
ACAD_SCALELIST
350
14
  3
ACAD_TABLESTYLE
350
15
  3
ACAD_VISUALSTYLE
350
16
  3
EZDXF_META
350
2D
  0
DICTIONARY
  5
B
330
A
100
AcDbDictionary
281
1
  0
DICTIONARY
  5
C
330
A
100
AcDbDictionary
281
1
  0
DICTIONARY
  5
D
330
A
100
AcDbDictionary
281
1
  3
Model
350
1A
  3
Layout1
350
1E
  0
DICTIONARY
  5
E
330
A
100
AcDbDictionary
281
1
  3
ByBlock
350
1F
  3
ByLayer
350
20
  3
Global
350
21
  0
DICTIONARY
  5
F
330
A
100
AcDbDictionary
281
1
  3
Standard
350
2C
  0
DICTIONARY
  5
10
330
A
100
AcDbDictionary
281
1
  3
Standard
350
22
  0
DICTIONARY
  5
11
330
A
100
AcDbDictionary
281
1
  0
ACDBDICTIONARYWDFLT
  5
12
330
A
100
AcDbDictionary
281
1
  3
Normal
350
13
100
AcDbDictionaryWithDefault
340
13
  0
ACDBPLACEHOLDER
  5
13
330
12
  0
DICTIONARY
  5
14
330
A
100
AcDbDictionary
281
1
  0
DICTIONARY
  5
15
330
A
100
AcDbDictionary
281
1
  0
DICTIONARY
  5
16
330
A
100
AcDbDictionary
281
1
  0
LAYOUT
  5
1A
330
D
100
AcDbPlotSettings
  1

  2
Adobe PDF
  4
A3
  6

 40
7.5
 41
20.0
 42
7.5
 43
20.0
 44
420.0
 45
297.0
 46
0.0
 47
0.0
 48
0.0
 49
0.0
140
0.0
141
0.0
142
1.0
143
1.0
 70
1024
 72
1
 73
1
 74
5
  7

 75
16
 76
0
 77
2
 78
300
147
1.0
148
0.0
149
0.0
100
AcDbLayout
  1
Model
 70
1
 71
0
 10
0.0
 20
0.0
 11
420.0
 21
297.0
 12
0.0
 22
0.0
 32
0.0
 14
1e+20
 24
1e+20
 34
1e+20
 15
-1e+20
 25
-1e+20
 35
-1e+20
146
0.0
 13
0.0
 23
0.0
 33
0.0
 16
1.0
 26
0.0
 36
0.0
 17
0.0
 27
1.0
 37
0.0
 76
1
330
17
  0
LAYOUT
  5
1E
330
D
100
AcDbPlotSettings
  1

  2
Adobe PDF
  4
A3
  6

 40
7.5
 41
20.0
 42
7.5
 43
20.0
 44
420.0
 45
297.0
 46
0.0
 47
0.0
 48
0.0
 49
0.0
140
0.0
141
0.0
142
1.0
143
1.0
 70
0
 72
1
 73
1
 74
5
  7

 75
16
 76
0
 77
2
 78
300
147
1.0
148
0.0
149
0.0
100
AcDbLayout
  1
Layout1
 70
1
 71
1
 10
0.0
 20
0.0
 11
420.0
 21
297.0
 12
0.0
 22
0.0
 32
0.0
 14
1e+20
 24
1e+20
 34
1e+20
 15
-1e+20
 25
-1e+20
 35
-1e+20
146
0.0
 13
0.0
 23
0.0
 33
0.0
 16
1.0
 26
0.0
 36
0.0
 17
0.0
 27
1.0
 37
0.0
 76
1
330
1B
  0
MATERIAL
  5
1F
102
{ACAD_REACTORS
330
E
102
}
330
E
100
AcDbMaterial
  1
ByBlock
  2

 70
0
 40
1.0
 71
1
 41
1.0
 91
-1023410177
 42
1.0
 72
1
  3

 73
1
 74
1
 75
1
 44
0.5
 73
0
 45
1.0
 46
1.0
 77
1
  4

 78
1
 79
1
170
1
 48
1.0
171
1
  6

172
1
173
1
174
1
140
1.0
141
1.0
175
1
  7

176
1
177
1
178
1
143
1.0
179
1
  8

270
1
271
1
272
1
145
1.0
146
1.0
273
1
  9

274
1
275
1
276
1
 42
1.0
 72
1
  3

 73
1
 74
1
 75
1
 94
63
  0
MATERIAL
  5
20
102
{ACAD_REACTORS
330
E
102
}
330
E
100
AcDbMaterial
  1
ByLayer
  2

 70
0
 40
1.0
 71
1
 41
1.0
 91
-1023410177
 42
1.0
 72
1
  3

 73
1
 74
1
 75
1
 44
0.5
 73
0
 45
1.0
 46
1.0
 77
1
  4

 78
1
 79
1
170
1
 48
1.0
171
1
  6

172
1
173
1
174
1
140
1.0
141
1.0
175
1
  7

176
1
177
1
178
1
143
1.0
179
1
  8

270
1
271
1
272
1
145
1.0
146
1.0
273
1
  9

274
1
275
1
276
1
 42
1.0
 72
1
  3

 73
1
 74
1
 75
1
 94
63
  0
MATERIAL
  5
21
102
{ACAD_REACTORS
330
E
102
}
330
E
100
AcDbMaterial
  1
Global
  2

 70
0
 40
1.0
 71
1
 41
1.0
 91
-1023410177
 42
1.0
 72
1
  3

 73
1
 74
1
 75
1
 44
0.5
 73
0
 45
1.0
 46
1.0
 77
1
  4

 78
1
 79
1
170
1
 48
1.0
171
1
  6

172
1
173
1
174
1
140
1.0
141
1.0
175
1
  7

176
1
177
1
178
1
143
1.0
179
1
  8

270
1
271
1
272
1
145
1.0
146
1.0
273
1
  9

274
1
275
1
276
1
 42
1.0
 72
1
  3

 73
1
 74
1
 75
1
 94
63
  0
MLINESTYLE
  5
22
102
{ACAD_REACTORS
330
10
102
}
330
10
100
AcDbMlineStyle
  2
Standard
 70
0
  3

 62
256
 51
90.0
 52
90.0
 71
2
 49
0.5
 62
256
  6
BYLAYER
 49
-0.5
 62
256
  6
BYLAYER
  0
MLEADERSTYLE
  5
2C
102
{ACAD_REACTORS
330
F
102
}
330
F
100
AcDbMLeaderStyle
179
2
170
2
171
1
172
0
 90
2
 40
0.0
 41
0.0
173
1
 91
-1056964608
 92
-2
290
1
 42
2.0
291
1
 43
8.0
  3
Standard
 44
4.0
300

342
29
174
1
175
1
176
0
178
1
 93
-1056964608
 45
4.0
292
0
297
0
 46
4.0
 94
-1056964608
 47
1.0
 49
1.0
140
1.0
294
1
141
0.0
177
0
142
1.0
295
0
296
0
143
3.75
271
0
272
9
273
9
  0
DICTIONARY
  5
2D
330
A
100
AcDbDictionary
280
1
281
1
  3
CREATED_BY_EZDXF
350
2E
  3
WRITTEN_BY_EZDXF
350
2D5
  0
DICTIONARYVAR
  5
2E
330
2D
100
DictionaryVariables
280
0
  1
0.17.2 @ 2023-04-25T00:29:08.060201+00:00
  0
DICTIONARYVAR
  5
2D5
330
2D
100
DictionaryVariables
280
0
  1
0.17.2 @ 2023-04-25T00:29:08.752103+00:00
  0
ENDSEC
  0
EOF
