  0
SECTION
  2
HEADER
  9
$ACADVER
  1
AC1024
  9
$ACADMAINTVER
 70
6
  9
$DWGCODEPAGE
  3
ANSI_1252
  9
$LASTSAVEDBY
  1
ezdxf
  9
$INSBASE
 10
0.0
 20
0.0
 30
0.0
  9
$EXTMIN
 10
1e+20
 20
1e+20
 30
1e+20
  9
$EXTMAX
 10
-1e+20
 20
-1e+20
 30
-1e+20
  9
$LIMMIN
 10
0.0
 20
0.0
  9
$LIMMAX
 10
420.0
 20
297.0
  9
$ORTHOMODE
 70
0
  9
$REGENMODE
 70
1
  9
$FILLMODE
 70
1
  9
$QTEXTMODE
 70
0
  9
$MIRRTEXT
 70
1
  9
$LTSCALE
 40
1.0
  9
$ATTMODE
 70
1
  9
$TEXTSIZE
 40
2.5
  9
$TRACEWID
 40
1.0
  9
$TEXTSTYLE
  7
Standard
  9
$CLAYER
  8
0
  9
$CELTYPE
  6
ByLayer
  9
$CECOLOR
 62
256
  9
$CELTSCALE
 40
1.0
  9
$DISPSILH
 70
0
  9
$DIMSCALE
 40
1.0
  9
$DIMASZ
 40
2.5
  9
$DIMEXO
 40
0.625
  9
$DIMDLI
 40
3.75
  9
$DIMRND
 40
0.0
  9
$DIMDLE
 40
0.0
  9
$DIMEXE
 40
1.25
  9
$DIMTP
 40
0.0
  9
$DIMTM
 40
0.0
  9
$DIMTXT
 40
2.5
  9
$DIMCEN
 40
2.5
  9
$DIMTSZ
 40
0.0
  9
$DIMTOL
 70
0
  9
$DIMLIM
 70
0
  9
$DIMTIH
 70
0
  9
$DIMTOH
 70
0
  9
$DIMSE1
 70
0
  9
$DIMSE2
 70
0
  9
$DIMTAD
 70
1
  9
$DIMZIN
 70
8
  9
$DIMBLK
  1

  9
$DIMASO
 70
1
  9
$DIMSHO
 70
1
  9
$DIMPOST
  1

  9
$DIMAPOST
  1

  9
$DIMALT
 70
0
  9
$DIMALTD
 70
3
  9
$DIMALTF
 40
0.03937007874
  9
$DIMLFAC
 40
1.0
  9
$DIMTOFL
 70
1
  9
$DIMTVP
 40
0.0
  9
$DIMTIX
 70
0
  9
$DIMSOXD
 70
0
  9
$DIMSAH
 70
0
  9
$DIMBLK1
  1

  9
$DIMBLK2
  1

  9
$DIMSTYLE
  2
ISO-25
  9
$DIMCLRD
 70
0
  9
$DIMCLRE
 70
0
  9
$DIMCLRT
 70
0
  9
$DIMTFAC
 40
1.0
  9
$DIMGAP
 40
0.625
  9
$DIMJUST
 70
0
  9
$DIMSD1
 70
0
  9
$DIMSD2
 70
0
  9
$DIMTOLJ
 70
0
  9
$DIMTZIN
 70
8
  9
$DIMALTZ
 70
0
  9
$DIMALTTZ
 70
0
  9
$DIMUPT
 70
0
  9
$DIMDEC
 70
2
  9
$DIMTDEC
 70
2
  9
$DIMALTU
 70
2
  9
$DIMALTTD
 70
3
  9
$DIMTXSTY
  7
Standard
  9
$DIMAUNIT
 70
0
  9
$DIMADEC
 70
0
  9
$DIMALTRND
 40
0.0
  9
$DIMAZIN
 70
0
  9
$DIMDSEP
 70
44
  9
$DIMATFIT
 70
3
  9
$DIMFRAC
 70
0
  9
$DIMLDRBLK
  1

  9
$DIMLUNIT
 70
2
  9
$DIMLWD
 70
-2
  9
$DIMLWE
 70
-2
  9
$DIMTMOVE
 70
0
  9
$DIMFXL
 40
1.0
  9
$DIMFXLON
 70
0
  9
$DIMJOGANG
 40
0.785398163397
  9
$DIMTFILL
 70
0
  9
$DIMTFILLCLR
 70
0
  9
$DIMARCSYM
 70
0
  9
$DIMLTYPE
  6

  9
$DIMLTEX1
  6

  9
$DIMLTEX2
  6

  9
$DIMTXTDIRECTION
 70
0
  9
$LUNITS
 70
2
  9
$LUPREC
 70
4
  9
$SKETCHINC
 40
1.0
  9
$FILLETRAD
 40
10.0
  9
$AUNITS
 70
0
  9
$AUPREC
 70
2
  9
$MENU
  1
.
  9
$ELEVATION
 40
0.0
  9
$PELEVATION
 40
0.0
  9
$THICKNESS
 40
0.0
  9
$LIMCHECK
 70
0
  9
$CHAMFERA
 40
0.0
  9
$CHAMFERB
 40
0.0
  9
$CHAMFERC
 40
0.0
  9
$CHAMFERD
 40
0.0
  9
$SKPOLY
 70
0
  9
$TDCREATE
 40
2460033.427395833
  9
$TDUCREATE
 40
2458532.153996898
  9
$TDUPDATE
 40
2460033.427395833
  9
$TDUUPDATE
 40
2458532.1544311
  9
$TDINDWG
 40
0.0
  9
$TDUSRTIMER
 40
0.0
  9
$USRTIMER
 70
1
  9
$ANGBASE
 50
0.0
  9
$ANGDIR
 70
0
  9
$PDMODE
 70
0
  9
$PDSIZE
 40
0.0
  9
$PLINEWID
 40
0.0
  9
$SPLFRAME
 70
0
  9
$SPLINETYPE
 70
6
  9
$SPLINESEGS
 70
8
  9
$HANDSEED
  5
174
  9
$SURFTAB1
 70
6
  9
$SURFTAB2
 70
6
  9
$SURFTYPE
 70
6
  9
$SURFU
 70
6
  9
$SURFV
 70
6
  9
$UCSBASE
  2

  9
$UCSNAME
  2

  9
$UCSORG
 10
0.0
 20
0.0
 30
0.0
  9
$UCSXDIR
 10
1.0
 20
0.0
 30
0.0
  9
$UCSYDIR
 10
0.0
 20
1.0
 30
0.0
  9
$UCSORTHOREF
  2

  9
$UCSORTHOVIEW
 70
0
  9
$UCSORGTOP
 10
0.0
 20
0.0
 30
0.0
  9
$UCSORGBOTTOM
 10
0.0
 20
0.0
 30
0.0
  9
$UCSORGLEFT
 10
0.0
 20
0.0
 30
0.0
  9
$UCSORGRIGHT
 10
0.0
 20
0.0
 30
0.0
  9
$UCSORGFRONT
 10
0.0
 20
0.0
 30
0.0
  9
$UCSORGBACK
 10
0.0
 20
0.0
 30
0.0
  9
$PUCSBASE
  2

  9
$PUCSNAME
  2

  9
$PUCSORG
 10
0.0
 20
0.0
 30
0.0
  9
$PUCSXDIR
 10
1.0
 20
0.0
 30
0.0
  9
$PUCSYDIR
 10
0.0
 20
1.0
 30
0.0
  9
$PUCSORTHOREF
  2

  9
$PUCSORTHOVIEW
 70
0
  9
$PUCSORGTOP
 10
0.0
 20
0.0
 30
0.0
  9
$PUCSORGBOTTOM
 10
0.0
 20
0.0
 30
0.0
  9
$PUCSORGLEFT
 10
0.0
 20
0.0
 30
0.0
  9
$PUCSORGRIGHT
 10
0.0
 20
0.0
 30
0.0
  9
$PUCSORGFRONT
 10
0.0
 20
0.0
 30
0.0
  9
$PUCSORGBACK
 10
0.0
 20
0.0
 30
0.0
  9
$USERI1
 70
0
  9
$USERI2
 70
0
  9
$USERI3
 70
0
  9
$USERI4
 70
0
  9
$USERI5
 70
0
  9
$USERR1
 40
0.0
  9
$USERR2
 40
0.0
  9
$USERR3
 40
0.0
  9
$USERR4
 40
0.0
  9
$USERR5
 40
0.0
  9
$WORLDVIEW
 70
1
  9
$SHADEDGE
 70
3
  9
$SHADEDIF
 70
70
  9
$TILEMODE
 70
1
  9
$MAXACTVP
 70
64
  9
$PINSBASE
 10
0.0
 20
0.0
 30
0.0
  9
$PLIMCHECK
 70
0
  9
$PEXTMIN
 10
1e+20
 20
1e+20
 30
1e+20
  9
$PEXTMAX
 10
-1e+20
 20
-1e+20
 30
-1e+20
  9
$PLIMMIN
 10
0.0
 20
0.0
  9
$PLIMMAX
 10
420.0
 20
297.0
  9
$UNITMODE
 70
0
  9
$VISRETAIN
 70
1
  9
$PLINEGEN
 70
0
  9
$PSLTSCALE
 70
1
  9
$TREEDEPTH
 70
3020
  9
$CMLSTYLE
  2
Standard
  9
$CMLJUST
 70
0
  9
$CMLSCALE
 40
20.0
  9
$PROXYGRAPHICS
 70
1
  9
$MEASUREMENT
 70
1
  9
$CELWEIGHT
370
-1
  9
$ENDCAPS
280
0
  9
$JOINSTYLE
280
0
  9
$LWDISPLAY
290
0
  9
$INSUNITS
 70
6
  9
$HYPERLINKBASE
  1

  9
$STYLESHEET
  1

  9
$XEDIT
290
1
  9
$CEPSNTYPE
380
0
  9
$PSTYLEMODE
290
1
  9
$FINGERPRINTGUID
  2
{A6393992-ED18-41D4-A915-BC3647C5261F}
  9
$VERSIONGUID
  2
{84D7FB5B-A545-4471-83C5-4C13C9FE4C6B}
  9
$EXTNAMES
290
1
  9
$PSVPSCALE
 40
0.0
  9
$OLESTARTUP
290
0
  9
$SORTENTS
280
127
  9
$INDEXCTL
280
0
  9
$HIDETEXT
280
1
  9
$XCLIPFRAME
280
0
  9
$HALOGAP
280
0
  9
$OBSCOLOR
 70
257
  9
$OBSLTYPE
280
0
  9
$INTERSECTIONDISPLAY
280
0
  9
$INTERSECTIONCOLOR
 70
257
  9
$DIMASSOC
280
2
  9
$PROJECTNAME
  1

  9
$CAMERADISPLAY
290
0
  9
$LENSLENGTH
 40
50.0
  9
$CAMERAHEIGHT
 40
0.0
  9
$STEPSPERSEC
 40
24.0
  9
$STEPSIZE
 40
100.0
  9
$3DDWFPREC
 40
2.0
  9
$PSOLWIDTH
 40
0.005
  9
$PSOLHEIGHT
 40
0.08
  9
$LOFTANG1
 40
1.570796326795
  9
$LOFTANG2
 40
1.570796326795
  9
$LOFTMAG1
 40
0.0
  9
$LOFTMAG2
 40
0.0
  9
$LOFTPARAM
 70
7
  9
$LOFTNORMALS
280
1
  9
$LATITUDE
 40
37.795
  9
$LONGITUDE
 40
-122.394
  9
$NORTHDIRECTION
 40
0.0
  9
$TIMEZONE
 70
-8000
  9
$LIGHTGLYPHDISPLAY
280
1
  9
$TILEMODELIGHTSYNCH
280
1
  9
$CMATERIAL
347
20
  9
$SOLIDHIST
280
0
  9
$SHOWHIST
280
1
  9
$DWFFRAME
280
2
  9
$DGNFRAME
280
2
  9
$REALWORLDSCALE
290
1
  9
$INTERFERECOLOR
 62
256
  9
$CSHADOW
280
0
  9
$SHADOWPLANELOCATION
 40
0.0
  0
ENDSEC
  0
SECTION
  2
CLASSES
  0
CLASS
  1
ACDBDICTIONARYWDFLT
  2
AcDbDictionaryWithDefault
  3
ObjectDBX Classes
 90
0
 91
0
280
0
281
0
  0
CLASS
  1
SUN
  2
AcDbSun
  3
SCENEOE
 90
1153
 91
0
280
0
281
0
  0
CLASS
  1
VISUALSTYLE
  2
AcDbVisualStyle
  3
ObjectDBX Classes
 90
4095
 91
0
280
0
281
0
  0
CLASS
  1
MATERIAL
  2
AcDbMaterial
  3
ObjectDBX Classes
 90
1153
 91
0
280
0
281
0
  0
CLASS
  1
SCALE
  2
AcDbScale
  3
ObjectDBX Classes
 90
1153
 91
0
280
0
281
0
  0
CLASS
  1
TABLESTYLE
  2
AcDbTableStyle
  3
ObjectDBX Classes
 90
4095
 91
0
280
0
281
0
  0
CLASS
  1
MLEADERSTYLE
  2
AcDbMLeaderStyle
  3
ACDB_MLEADERSTYLE_CLASS
 90
4095
 91
0
280
0
281
0
  0
CLASS
  1
DICTIONARYVAR
  2
AcDbDictionaryVar
  3
ObjectDBX Classes
 90
0
 91
0
280
0
281
0
  0
CLASS
  1
CELLSTYLEMAP
  2
AcDbCellStyleMap
  3
ObjectDBX Classes
 90
1152
 91
0
280
0
281
0
  0
CLASS
  1
MENTALRAYRENDERSETTINGS
  2
AcDbMentalRayRenderSettings
  3
SCENEOE
 90
1024
 91
0
280
0
281
0
  0
CLASS
  1
ACDBDETAILVIEWSTYLE
  2
AcDbDetailViewStyle
  3
ObjectDBX Classes
 90
1025
 91
0
280
0
281
0
  0
CLASS
  1
ACDBSECTIONVIEWSTYLE
  2
AcDbSectionViewStyle
  3
ObjectDBX Classes
 90
1025
 91
0
280
0
281
0
  0
CLASS
  1
RASTERVARIABLES
  2
AcDbRasterVariables
  3
ISM
 90
0
 91
0
280
0
281
0
  0
CLASS
  1
ACDBPLACEHOLDER
  2
AcDbPlaceHolder
  3
ObjectDBX Classes
 90
0
 91
0
280
0
281
0
  0
CLASS
  1
LAYOUT
  2
AcDbLayout
  3
ObjectDBX Classes
 90
0
 91
0
280
0
281
0
  0
ENDSEC
  0
SECTION
  2
TABLES
  0
TABLE
  2
VPORT
  5
8
330
0
100
AcDbSymbolTable
 70
1
  0
VPORT
  5
23
330
8
100
AcDbSymbolTableRecord
100
AcDbViewportTableRecord
  2
*Active
 70
0
 10
0.0
 20
0.0
 11
1.0
 21
1.0
 12
0.0
 22
0.0
 13
0.0
 23
0.0
 14
0.5
 24
0.5
 15
0.5
 25
0.5
 16
0.0
 26
0.0
 36
1.0
 17
0.0
 27
0.0
 37
0.0
 40
1000.0
 41
1.34
 42
50.0
 43
0.0
 44
0.0
 50
0.0
 51
0.0
 71
0
 72
1000
 73
1
 74
3
 75
0
 76
0
 77
0
 78
0
281
0
 65
0
146
0.0
  0
ENDTAB
  0
TABLE
  2
LTYPE
  5
2
330
0
100
AcDbSymbolTable
 70
3
  0
LTYPE
  5
24
330
2
100
AcDbSymbolTableRecord
100
AcDbLinetypeTableRecord
  2
ByBlock
 70
0
  3

 72
65
 73
0
 40
0.0
  0
LTYPE
  5
25
330
2
100
AcDbSymbolTableRecord
100
AcDbLinetypeTableRecord
  2
ByLayer
 70
0
  3

 72
65
 73
0
 40
0.0
  0
LTYPE
  5
26
330
2
100
AcDbSymbolTableRecord
100
AcDbLinetypeTableRecord
  2
Continuous
 70
0
  3

 72
65
 73
0
 40
0.0
  0
ENDTAB
  0
TABLE
  2
LAYER
  5
1
330
0
100
AcDbSymbolTable
 70
2
  0
LAYER
  5
27
330
1
100
AcDbSymbolTableRecord
100
AcDbLayerTableRecord
  2
0
 70
0
 62
7
  6
Continuous
370
-3
390
13
347
21
  0
LAYER
  5
28
330
1
100
AcDbSymbolTableRecord
100
AcDbLayerTableRecord
  2
Defpoints
 70
0
 62
7
  6
Continuous
290
0
370
-3
390
13
347
21
  0
ENDTAB
  0
TABLE
  2
STYLE
  5
5
330
0
100
AcDbSymbolTable
 70
1
  0
STYLE
  5
29
330
5
100
AcDbSymbolTableRecord
100
AcDbTextStyleTableRecord
  2
Standard
 70
0
 40
0.0
 41
1.0
 50
0.0
 71
0
 42
2.5
  3
txt
  4

  0
ENDTAB
  0
TABLE
  2
VIEW
  5
7
330
0
100
AcDbSymbolTable
 70
0
  0
ENDTAB
  0
TABLE
  2
UCS
  5
6
330
0
100
AcDbSymbolTable
 70
0
  0
ENDTAB
  0
TABLE
  2
APPID
  5
3
330
0
100
AcDbSymbolTable
 70
3
  0
APPID
  5
2A
330
3
100
AcDbSymbolTableRecord
100
AcDbRegAppTableRecord
  2
ACAD
 70
0
  0
APPID
  5
171
330
3
100
AcDbSymbolTableRecord
100
AcDbRegAppTableRecord
  2
HATCHBACKGROUNDCOLOR
 70
0
  0
APPID
  5
172
330
3
100
AcDbSymbolTableRecord
100
AcDbRegAppTableRecord
  2
EZDXF
 70
0
  0
ENDTAB
  0
TABLE
  2
DIMSTYLE
  5
4
330
0
100
AcDbSymbolTable
 70
1
100
AcDbDimStyleTable
  0
DIMSTYLE
105
2B
330
4
100
AcDbSymbolTableRecord
100
AcDbDimStyleTableRecord
  2
Standard
 70
0
 40
1.0
 41
2.5
 42
0.625
 43
3.75
 44
1.25
 45
0.0
 46
0.0
 47
0.0
 48
0.0
 49
2.5
140
2.5
141
2.5
142
0.0
143
0.03937007874
144
1.0
145
0.0
146
1.0
147
0.625
148
0.0
 69
0
 70
0
 71
0
 72
0
 73
0
 74
0
 75
0
 76
0
 77
1
 78
8
 79
3
170
0
171
3
172
1
173
0
174
0
175
0
176
0
177
0
178
0
179
2
271
2
272
2
273
2
274
3
275
0
276
0
277
2
278
44
279
0
280
0
281
0
282
0
283
0
284
8
285
0
286
0
288
0
289
3
290
0
371
-2
372
-2
  0
ENDTAB
  0
TABLE
  2
BLOCK_RECORD
  5
9
330
0
100
AcDbSymbolTable
 70
2
  0
BLOCK_RECORD
  5
17
330
9
100
AcDbSymbolTableRecord
100
AcDbBlockTableRecord
  2
*Model_Space
340
1A
 70
0
280
1
281
0
  0
BLOCK_RECORD
  5
1B
330
9
100
AcDbSymbolTableRecord
100
AcDbBlockTableRecord
  2
*Paper_Space
340
1E
 70
0
280
1
281
0
  0
ENDTAB
  0
ENDSEC
  0
SECTION
  2
BLOCKS
  0
BLOCK
  5
18
330
17
100
AcDbEntity
  8
0
100
AcDbBlockBegin
  2
*Model_Space
 70
0
 10
0.0
 20
0.0
 30
0.0
  3
*Model_Space
  1

  0
ENDBLK
  5
19
330
17
100
AcDbEntity
  8
0
100
AcDbBlockEnd
  0
BLOCK
  5
1C
330
1B
100
AcDbEntity
  8
0
100
AcDbBlockBegin
  2
*Paper_Space
 70
0
 10
0.0
 20
0.0
 30
0.0
  3
*Paper_Space
  1

  0
ENDBLK
  5
1D
330
1B
100
AcDbEntity
  8
0
100
AcDbBlockEnd
  0
ENDSEC
  0
SECTION
  2
ENTITIES
  0
LINE
  5
2F
330
17
100
AcDbEntity
  8
0
100
AcDbLine
 10
34262.8515141222
 20
19199.8914568925
 30
0.0
 11
-40496.8595011236
 21
19256.2733412202
 31
0.0
  0
LINE
  5
30
330
17
100
AcDbEntity
  8
0
100
AcDbLine
 10
-40496.8595011236
 20
19256.2733412202
 30
0.0
 11
-40505.6560883018
 21
-2442.79416456709
 31
0.0
  0
LINE
  5
31
330
17
100
AcDbEntity
  8
0
100
AcDbLine
 10
-40505.6560883018
 20
-2442.79416456709
 30
0.0
 11
26933.4249170163
 21
-2392.40406161637
 31
0.0
  0
LINE
  5
32
330
17
100
AcDbEntity
  8
0
100
AcDbLine
 10
26933.4249170163
 20
-2392.40406161637
 30
0.0
 11
34262.8515141222
 21
19199.8914568925
 31
0.0
  0
LINE
  5
33
330
17
100
AcDbEntity
  8
0
100
AcDbLine
 10
30521.702775984504
 20
8178.566928659623
 30
0.0
 11
-40501.32857942619
 21
8232.130703626937
 31
0.0
  0
LINE
  5
34
330
17
100
AcDbEntity
  8
0
100
AcDbLine
 10
25762.853931434096
 20
19206.301940212787
 30
0.0
 11
25754.53980390384
 21
8182.1622024731205
 31
0.0
  0
LINE
  5
35
330
17
100
AcDbEntity
  8
0
100
AcDbLine
 10
17262.856348745994
 20
19212.712423533078
 30
0.0
 11
17254.54222121574
 21
8188.572685793411
 31
0.0
  0
LINE
  5
36
330
17
100
AcDbEntity
  8
0
100
AcDbLine
 10
8762.858766057892
 20
19219.122906853365
 30
0.0
 11
8754.54463852764
 21
8194.983169113699
 31
0.0
  0
LINE
  5
37
330
17
100
AcDbEntity
  8
0
100
AcDbLine
 10
262.8611833697869
 20
19225.533390173656
 30
0.0
 11
254.5470558395335
 21
8201.39365243399
 31
0.0
  0
LINE
  5
38
330
17
100
AcDbEntity
  8
0
100
AcDbLine
 10
-8237.136399318311
 20
19231.943873493943
 30
0.0
 11
-8245.450526848565
 21
8207.804135754277
 31
0.0
  0
LINE
  5
39
330
17
100
AcDbEntity
  8
0
100
AcDbLine
 10
-16737.133982006417
 20
19238.354356814234
 30
0.0
 11
-16745.448109536672
 21
8214.214619074568
 31
0.0
  0
LINE
  5
3A
330
17
100
AcDbEntity
  8
0
100
AcDbLine
 10
-25237.131564694522
 20
19244.76484013452
 30
0.0
 11
-25245.445692224777
 21
8220.625102394855
 31
0.0
  0
LINE
  5
3B
330
17
100
AcDbEntity
  8
0
100
AcDbLine
 10
-40501.372136727885
 20
8124.685303414253
 30
0.0
 11
30521.426538402928
 21
8177.753140102542
 31
0.0
  0
LINE
  5
3C
330
17
100
AcDbEntity
  8
0
100
AcDbLine
 10
-32005.658461073494
 20
-2436.4430140304576
 30
0.0
 11
-32013.554415641604
 21
8131.027353193353
 31
0.0
  0
LINE
  5
3D
330
17
100
AcDbEntity
  8
0
100
AcDbLine
 10
-23505.660833845184
 20
-2430.0918634938257
 30
0.0
 11
-23513.556788413294
 21
8137.378503729984
 31
0.0
  0
LINE
  5
3E
330
17
100
AcDbEntity
  8
0
100
AcDbLine
 10
-15005.663206616875
 20
-2423.7407129571934
 30
0.0
 11
-15013.559161184985
 21
8143.729654266617
 31
0.0
  0
LINE
  5
3F
330
17
100
AcDbEntity
  8
0
100
AcDbLine
 10
-6505.665579388566
 20
-2417.389562420561
 30
0.0
 11
-6513.561533956676
 21
8150.080804803249
 31
0.0
  0
LINE
  5
40
330
17
100
AcDbEntity
  8
0
100
AcDbLine
 10
1994.3320478397363
 20
-2411.038411883929
 30
0.0
 11
1986.4360932716263
 21
8156.431955339882
 31
0.0
  0
LINE
  5
41
330
17
100
AcDbEntity
  8
0
100
AcDbLine
 10
10494.329675068053
 20
-2404.687261347297
 30
0.0
 11
10486.433720499943
 21
8162.783105876513
 31
0.0
  0
LINE
  5
42
330
17
100
AcDbEntity
  8
0
100
AcDbLine
 10
34262.8515141222
 20
99199.8914568925
 30
0.0
 11
-40496.8595011236
 21
99256.27334122019
 31
0.0
  0
LINE
  5
43
330
17
100
AcDbEntity
  8
0
100
AcDbLine
 10
-40496.8595011236
 20
99256.27334122019
 30
0.0
 11
-40505.6560883018
 21
77557.2058354329
 31
0.0
  0
LINE
  5
44
330
17
100
AcDbEntity
  8
0
100
AcDbLine
 10
-40505.6560883018
 20
77557.2058354329
 30
0.0
 11
26933.4249170163
 21
77607.59593838363
 31
0.0
  0
LINE
  5
45
330
17
100
AcDbEntity
  8
0
100
AcDbLine
 10
26933.4249170163
 20
77607.59593838363
 30
0.0
 11
34262.8515141222
 21
99199.8914568925
 31
0.0
  0
LINE
  5
46
330
17
100
AcDbEntity
  8
0
100
AcDbLine
 10
30623.216142646805
 20
88477.6226027988
 30
0.0
 11
-40501.20731421697
 21
88531.2628451908
 31
0.0
  0
LINE
  5
47
330
17
100
AcDbEntity
  8
0
100
AcDbLine
 10
25762.853931434096
 20
99206.30194021278
 30
0.0
 11
25754.76540174438
 21
88481.29426528394
 31
0.0
  0
LINE
  5
48
330
17
100
AcDbEntity
  8
0
100
AcDbLine
 10
17262.856348745994
 20
99212.71242353308
 30
0.0
 11
17254.767819056276
 21
88487.70474860424
 31
0.0
  0
LINE
  5
49
330
17
100
AcDbEntity
  8
0
100
AcDbLine
 10
8762.858766057892
 20
99219.12290685336
 30
0.0
 11
8754.770236368175
 21
88494.11523192453
 31
0.0
  0
LINE
  5
4A
330
17
100
AcDbEntity
  8
0
100
AcDbLine
 10
262.8611833697869
 20
99225.53339017366
 30
0.0
 11
254.7726536800691
 21
88500.52571524482
 31
0.0
  0
LINE
  5
4B
330
17
100
AcDbEntity
  8
0
100
AcDbLine
 10
-8237.136399318311
 20
99231.94387349395
 30
0.0
 11
-8245.224929008029
 21
88506.9361985651
 31
0.0
  0
LINE
  5
4C
330
17
100
AcDbEntity
  8
0
100
AcDbLine
 10
-16737.133982006417
 20
99238.35435681423
 30
0.0
 11
-16745.222511696134
 21
88513.34668188539
 31
0.0
  0
LINE
  5
4D
330
17
100
AcDbEntity
  8
0
100
AcDbLine
 10
-25237.131564694522
 20
99244.76484013452
 30
0.0
 11
-25245.22009438424
 21
88519.75716520568
 31
0.0
  0
LINE
  5
4E
330
17
100
AcDbEntity
  8
0
100
AcDbLine
 10
-40501.33192470245
 20
88223.87871068704
 30
0.0
 11
30555.10591362234
 21
88276.97168236933
 31
0.0
  0
LINE
  5
4F
330
17
100
AcDbEntity
  8
0
100
AcDbLine
 10
-32005.658461073494
 20
77563.55698596954
 30
0.0
 11
-32013.62853233515
 21
88230.22067504036
 31
0.0
  0
LINE
  5
50
330
17
100
AcDbEntity
  8
0
100
AcDbLine
 10
-23505.660833845184
 20
77569.90813650617
 30
0.0
 11
-23513.630905106842
 21
88236.57182557699
 31
0.0
  0
LINE
  5
51
330
17
100
AcDbEntity
  8
0
100
AcDbLine
 10
-15005.663206616875
 20
77576.2592870428
 30
0.0
 11
-15013.63327787853
 21
88242.92297611362
 31
0.0
  0
LINE
  5
52
330
17
100
AcDbEntity
  8
0
100
AcDbLine
 10
-6505.665579388566
 20
77582.61043757944
 30
0.0
 11
-6513.635650650222
 21
88249.27412665026
 31
0.0
  0
LINE
  5
53
330
17
100
AcDbEntity
  8
0
100
AcDbLine
 10
1994.3320478397363
 20
77588.96158811607
 30
0.0
 11
1986.3619765780802
 21
88255.62527718689
 31
0.0
  0
LINE
  5
54
330
17
100
AcDbEntity
  8
0
100
AcDbLine
 10
10494.329675068053
 20
77595.3127386527
 30
0.0
 11
10486.359603806397
 21
88261.97642772352
 31
0.0
  0
LINE
  5
55
330
17
100
AcDbEntity
  8
0
100
AcDbLine
 10
34262.8515141222
 20
179199.8914568925
 30
0.0
 11
-40496.8595011236
 21
179256.2733412202
 31
0.0
  0
LINE
  5
56
330
17
100
AcDbEntity
  8
0
100
AcDbLine
 10
-40496.8595011236
 20
179256.2733412202
 30
0.0
 11
-40505.6560883018
 21
157557.20583543292
 31
0.0
  0
LINE
  5
57
330
17
100
AcDbEntity
  8
0
100
AcDbLine
 10
-40505.6560883018
 20
157557.20583543292
 30
0.0
 11
26933.4249170163
 21
157607.59593838363
 31
0.0
  0
LINE
  5
58
330
17
100
AcDbEntity
  8
0
100
AcDbLine
 10
26933.4249170163
 20
157607.59593838363
 30
0.0
 11
34262.8515141222
 21
179199.8914568925
 31
0.0
  0
LINE
  5
59
330
17
100
AcDbEntity
  8
0
100
AcDbLine
 10
30562.496023593732
 20
168298.74274949203
 30
0.0
 11
-40501.279848880935
 21
168352.33725300885
 31
0.0
  0
LINE
  5
5A
330
17
100
AcDbEntity
  8
0
100
AcDbLine
 10
25762.853931434096
 20
179206.30194021278
 30
0.0
 11
25754.630460620996
 21
168302.36872016737
 31
0.0
  0
LINE
  5
5B
330
17
100
AcDbEntity
  8
0
100
AcDbLine
 10
17262.856348745994
 20
179212.71242353308
 30
0.0
 11
17254.632877932894
 21
168308.77920348768
 31
0.0
  0
LINE
  5
5C
330
17
100
AcDbEntity
  8
0
100
AcDbLine
 10
8762.858766057892
 20
179219.12290685336
 30
0.0
 11
8754.635295244794
 21
168315.18968680795
 31
0.0
  0
LINE
  5
5D
330
17
100
AcDbEntity
  8
0
100
AcDbLine
 10
262.8611833697869
 20
179225.53339017366
 30
0.0
 11
254.63771255668814
 21
168321.60017012825
 31
0.0
  0
LINE
  5
5E
330
17
100
AcDbEntity
  8
0
100
AcDbLine
 10
-8237.136399318311
 20
179231.94387349393
 30
0.0
 11
-8245.35987013141
 21
168328.01065344852
 31
0.0
  0
LINE
  5
5F
330
17
100
AcDbEntity
  8
0
100
AcDbLine
 10
-16737.133982006417
 20
179238.35435681423
 30
0.0
 11
-16745.357452819517
 21
168334.42113676883
 31
0.0
  0
LINE
  5
60
330
17
100
AcDbEntity
  8
0
100
AcDbLine
 10
-25237.131564694522
 20
179244.76484013454
 30
0.0
 11
-25245.355035507622
 21
168340.8316200891
 31
0.0
  0
LINE
  5
61
330
17
100
AcDbEntity
  8
0
100
AcDbLine
 10
-30765.966822655093
 20
168344.99512599947
 30
0.0
 11
-40501.28577418537
 21
168337.72095030005
 31
0.0
  0
LINE
  5
62
330
17
100
AcDbEntity
  8
0
100
AcDbLine
 10
-32005.658461073494
 20
157563.55698596954
 30
0.0
 11
-32013.713594544606
 21
168344.06281661196
 31
0.0
  0
LINE
  5
63
330
17
100
AcDbEntity
  8
0
100
AcDbLine
 10
-23505.660833845184
 20
157569.9081365062
 30
0.0
 11
-23513.715967316297
 21
168350.41396714858
 31
0.0
  0
LINE
  5
64
330
17
100
AcDbEntity
  8
0
100
AcDbLine
 10
-15005.663206616875
 20
157576.2592870428
 30
0.0
 11
-15013.718340087986
 21
168356.7651176852
 31
0.0
  0
LINE
  5
65
330
17
100
AcDbEntity
  8
0
100
AcDbLine
 10
-6505.665579388566
 20
157582.61043757945
 30
0.0
 11
-6513.7207128596765
 21
168363.11626822184
 31
0.0
  0
LINE
  5
66
330
17
100
AcDbEntity
  8
0
100
AcDbLine
 10
1994.3320478397363
 20
157588.96158811607
 30
0.0
 11
1986.2769143686253
 21
168369.46741875846
 31
0.0
  0
LINE
  5
67
330
17
100
AcDbEntity
  8
0
100
AcDbLine
 10
10494.329675068053
 20
157595.3127386527
 30
0.0
 11
10486.274541596942
 21
168375.8185692951
 31
0.0
  0
LINE
  5
68
330
17
100
AcDbEntity
  8
0
100
AcDbLine
 10
34262.8515141222
 20
259199.8914568925
 30
0.0
 11
-40496.8595011236
 21
259256.2733412202
 31
0.0
  0
LINE
  5
69
330
17
100
AcDbEntity
  8
0
100
AcDbLine
 10
-40496.8595011236
 20
259256.2733412202
 30
0.0
 11
-40505.6560883018
 21
237557.20583543292
 31
0.0
  0
LINE
  5
6A
330
17
100
AcDbEntity
  8
0
100
AcDbLine
 10
-40505.6560883018
 20
237557.20583543292
 30
0.0
 11
26933.4249170163
 21
237607.59593838363
 31
0.0
  0
LINE
  5
6B
330
17
100
AcDbEntity
  8
0
100
AcDbLine
 10
26933.4249170163
 20
237607.59593838363
 30
0.0
 11
34262.8515141222
 21
259199.8914568925
 31
0.0
  0
LINE
  5
6C
330
17
100
AcDbEntity
  8
0
100
AcDbLine
 10
30591.320603851014
 20
248383.6591951193
 30
0.0
 11
-40501.24541579228
 21
248437.27541143738
 31
0.0
  0
LINE
  5
6D
330
17
100
AcDbEntity
  8
0
100
AcDbLine
 10
25762.853931434096
 20
259206.30194021278
 30
0.0
 11
25754.69451881623
 21
248387.30685625342
 31
0.0
  0
LINE
  5
6E
330
17
100
AcDbEntity
  8
0
100
AcDbLine
 10
17262.856348745994
 20
259212.71242353308
 30
0.0
 11
17254.69693612813
 21
248393.7173395737
 31
0.0
  0
LINE
  5
6F
330
17
100
AcDbEntity
  8
0
100
AcDbLine
 10
8762.858766057892
 20
259219.12290685336
 30
0.0
 11
8754.699353440026
 21
248400.127822894
 31
0.0
  0
LINE
  5
70
330
17
100
AcDbEntity
  8
0
100
AcDbLine
 10
262.8611833697869
 20
259225.53339017366
 30
0.0
 11
254.70177075192163
 21
248406.5383062143
 31
0.0
  0
LINE
  5
71
330
17
100
AcDbEntity
  8
0
100
AcDbLine
 10
-8237.136399318311
 20
259231.94387349393
 30
0.0
 11
-8245.295811936177
 21
248412.94878953457
 31
0.0
  0
LINE
  5
72
330
17
100
AcDbEntity
  8
0
100
AcDbLine
 10
-16737.133982006417
 20
259238.35435681423
 30
0.0
 11
-16745.29339462428
 21
248419.35927285487
 31
0.0
  0
LINE
  5
73
330
17
100
AcDbEntity
  8
0
100
AcDbLine
 10
-25237.131564694522
 20
259244.76484013454
 30
0.0
 11
-25245.290977312387
 21
248425.76975617514
 31
0.0
  0
LINE
  5
74
330
17
100
AcDbEntity
  8
0
100
AcDbLine
 10
-24078.063603628663
 20
248424.88946283582
 30
0.0
 11
-40501.25541160359
 21
248412.61814606117
 31
0.0
  0
LINE
  5
75
330
17
100
AcDbEntity
  8
0
100
AcDbLine
 10
-32005.658461073494
 20
237563.55698596954
 30
0.0
 11
-32013.76955726086
 21
248418.95994787128
 31
0.0
  0
LINE
  5
76
330
17
100
AcDbEntity
  8
0
100
AcDbLine
 10
-23505.660833845184
 20
237569.9081365062
 30
0.0
 11
-23513.77193003255
 21
248425.31109840792
 31
0.0
  0
LINE
  5
77
330
17
100
AcDbEntity
  8
0
100
AcDbLine
 10
-15005.663206616875
 20
237576.2592870428
 30
0.0
 11
-15013.774302804242
 21
248431.66224894454
 31
0.0
  0
LINE
  5
78
330
17
100
AcDbEntity
  8
0
100
AcDbLine
 10
-6505.665579388566
 20
237582.61043757945
 30
0.0
 11
-6513.776675575933
 21
248438.0133994812
 31
0.0
  0
LINE
  5
79
330
17
100
AcDbEntity
  8
0
100
AcDbLine
 10
1994.3320478397363
 20
237588.96158811607
 30
0.0
 11
1986.2209516523692
 21
248444.3645500178
 31
0.0
  0
LINE
  5
7A
330
17
100
AcDbEntity
  8
0
100
AcDbLine
 10
10494.329675068053
 20
237595.3127386527
 30
0.0
 11
10486.218578880686
 21
248450.71570055446
 31
0.0
  0
LINE
  5
7B
330
17
100
AcDbEntity
  8
0
100
AcDbLine
 10
134262.85151412222
 20
19199.8914568925
 30
0.0
 11
59503.1404988764
 21
19256.2733412202
 31
0.0
  0
LINE
  5
7C
330
17
100
AcDbEntity
  8
0
100
AcDbLine
 10
59503.1404988764
 20
19256.2733412202
 30
0.0
 11
59494.3439116982
 21
-2442.79416456709
 31
0.0
  0
LINE
  5
7D
330
17
100
AcDbEntity
  8
0
100
AcDbLine
 10
59494.3439116982
 20
-2442.79416456709
 30
0.0
 11
126933.4249170163
 21
-2392.40406161637
 31
0.0
  0
LINE
  5
7E
330
17
100
AcDbEntity
  8
0
100
AcDbLine
 10
126933.4249170163
 20
-2392.40406161637
 30
0.0
 11
134262.85151412222
 21
19199.8914568925
 31
0.0
  0
LINE
  5
7F
330
17
100
AcDbEntity
  8
0
100
AcDbLine
 10
130632.56052100746
 20
8505.150892539736
 30
0.0
 11
59498.803848332696
 21
8558.798173807174
 31
0.0
  0
LINE
  5
80
330
17
100
AcDbEntity
  8
0
100
AcDbLine
 10
125762.8539314341
 20
19206.301940212787
 30
0.0
 11
125754.78616818774
 21
8508.829586657319
 31
0.0
  0
LINE
  5
81
330
17
100
AcDbEntity
  8
0
100
AcDbLine
 10
117262.85634874599
 20
19212.712423533078
 30
0.0
 11
117254.78858549964
 21
8515.24006997761
 31
0.0
  0
LINE
  5
82
330
17
100
AcDbEntity
  8
0
100
AcDbLine
 10
108762.85876605789
 20
19219.122906853365
 30
0.0
 11
108754.79100281154
 21
8521.650553297897
 31
0.0
  0
LINE
  5
83
330
17
100
AcDbEntity
  8
0
100
AcDbLine
 10
100262.8611833698
 20
19225.533390173656
 30
0.0
 11
100254.79342012343
 21
8528.061036618188
 31
0.0
  0
LINE
  5
84
330
17
100
AcDbEntity
  8
0
100
AcDbLine
 10
91762.86360068168
 20
19231.943873493943
 30
0.0
 11
91754.79583743533
 21
8534.471519938475
 31
0.0
  0
LINE
  5
85
330
17
100
AcDbEntity
  8
0
100
AcDbLine
 10
83262.86601799358
 20
19238.354356814234
 30
0.0
 11
83254.79825474723
 21
8540.882003258766
 31
0.0
  0
LINE
  5
86
330
17
100
AcDbEntity
  8
0
100
AcDbLine
 10
59498.65978881349
 20
8203.4379450366
 30
0.0
 11
130548.16561148895
 21
8256.52573715569
 31
0.0
  0
LINE
  5
87
330
17
100
AcDbEntity
  8
0
100
AcDbLine
 10
67994.3415389265
 20
-2436.4430140304576
 30
0.0
 11
67986.3867408771
 21
8209.779926993595
 31
0.0
  0
LINE
  5
88
330
17
100
AcDbEntity
  8
0
100
AcDbLine
 10
76494.33916615482
 20
-2430.0918634938257
 30
0.0
 11
76486.38436810541
 21
8216.131077530226
 31
0.0
  0
LINE
  5
89
330
17
100
AcDbEntity
  8
0
100
AcDbLine
 10
84994.33679338312
 20
-2423.7407129571934
 30
0.0
 11
84986.38199533372
 21
8222.48222806686
 31
0.0
  0
LINE
  5
8A
330
17
100
AcDbEntity
  8
0
100
AcDbLine
 10
93494.33442061144
 20
-2417.389562420561
 30
0.0
 11
93486.37962256203
 21
8228.833378603491
 31
0.0
  0
LINE
  5
8B
330
17
100
AcDbEntity
  8
0
100
AcDbLine
 10
101994.33204783974
 20
-2411.038411883929
 30
0.0
 11
101986.37724979034
 21
8235.184529140124
 31
0.0
  0
LINE
  5
8C
330
17
100
AcDbEntity
  8
0
100
AcDbLine
 10
110494.32967506806
 20
-2404.687261347297
 30
0.0
 11
110486.37487701865
 21
8241.535679676756
 31
0.0
  0
LINE
  5
8D
330
17
100
AcDbEntity
  8
0
100
AcDbLine
 10
134262.85151412222
 20
99199.8914568925
 30
0.0
 11
59503.1404988764
 21
99256.27334122019
 31
0.0
  0
LINE
  5
8E
330
17
100
AcDbEntity
  8
0
100
AcDbLine
 10
59503.1404988764
 20
99256.27334122019
 30
0.0
 11
59494.3439116982
 21
77557.2058354329
 31
0.0
  0
LINE
  5
8F
330
17
100
AcDbEntity
  8
0
100
AcDbLine
 10
59494.3439116982
 20
77557.2058354329
 30
0.0
 11
126933.4249170163
 21
77607.59593838363
 31
0.0
  0
LINE
  5
90
330
17
100
AcDbEntity
  8
0
100
AcDbLine
 10
126933.4249170163
 20
77607.59593838363
 30
0.0
 11
134262.85151412222
 21
99199.8914568925
 31
0.0
  0
LINE
  5
91
330
17
100
AcDbEntity
  8
0
100
AcDbLine
 10
130680.84178184053
 20
88647.38620086868
 30
0.0
 11
59498.86152386241
 21
88701.06985114524
 31
0.0
  0
LINE
  5
92
330
17
100
AcDbEntity
  8
0
100
AcDbLine
 10
125762.8539314341
 20
99206.30194021278
 30
0.0
 11
125754.89346586233
 21
88651.10122657161
 31
0.0
  0
LINE
  5
93
330
17
100
AcDbEntity
  8
0
100
AcDbLine
 10
117262.85634874599
 20
99212.71242353308
 30
0.0
 11
117254.89588317423
 21
88657.5117098919
 31
0.0
  0
LINE
  5
94
330
17
100
AcDbEntity
  8
0
100
AcDbLine
 10
108762.85876605789
 20
99219.12290685336
 30
0.0
 11
108754.89830048612
 21
88663.92219321219
 31
0.0
  0
LINE
  5
95
330
17
100
AcDbEntity
  8
0
100
AcDbLine
 10
100262.8611833698
 20
99225.53339017366
 30
0.0
 11
100254.90071779802
 21
88670.33267653247
 31
0.0
  0
LINE
  5
96
330
17
100
AcDbEntity
  8
0
100
AcDbLine
 10
91762.86360068168
 20
99231.94387349395
 30
0.0
 11
91754.90313510993
 21
88676.74315985276
 31
0.0
  0
LINE
  5
97
330
17
100
AcDbEntity
  8
0
100
AcDbLine
 10
83262.86601799358
 20
99238.35435681423
 30
0.0
 11
83254.90555242181
 21
88683.15364317306
 31
0.0
  0
LINE
  5
98
330
17
100
AcDbEntity
  8
0
100
AcDbLine
 10
59498.70951946731
 20
88326.1115220049
 30
0.0
 11
130589.81726497899
 21
88379.23039884731
 31
0.0
  0
LINE
  5
99
330
17
100
AcDbEntity
  8
0
100
AcDbLine
 10
67994.3415389265
 20
77563.55698596954
 30
0.0
 11
67986.29507994761
 21
88332.45339831489
 31
0.0
  0
LINE
  5
9A
330
17
100
AcDbEntity
  8
0
100
AcDbLine
 10
76494.33916615482
 20
77569.90813650617
 30
0.0
 11
76486.29270717592
 21
88338.80454885152
 31
0.0
  0
LINE
  5
9B
330
17
100
AcDbEntity
  8
0
100
AcDbLine
 10
84994.33679338312
 20
77576.2592870428
 30
0.0
 11
84986.29033440423
 21
88345.15569938815
 31
0.0
  0
LINE
  5
9C
330
17
100
AcDbEntity
  8
0
100
AcDbLine
 10
93494.33442061144
 20
77582.61043757944
 30
0.0
 11
93486.28796163254
 21
88351.50684992479
 31
0.0
  0
LINE
  5
9D
330
17
100
AcDbEntity
  8
0
100
AcDbLine
 10
101994.33204783974
 20
77588.96158811607
 30
0.0
 11
101986.28558886085
 21
88357.85800046142
 31
0.0
  0
LINE
  5
9E
330
17
100
AcDbEntity
  8
0
100
AcDbLine
 10
110494.32967506806
 20
77595.3127386527
 30
0.0
 11
110486.28321608916
 21
88364.20915099805
 31
0.0
  0
LINE
  5
9F
330
17
100
AcDbEntity
  8
0
100
AcDbLine
 10
134262.85151412222
 20
179199.8914568925
 30
0.0
 11
59503.1404988764
 21
179256.2733412202
 31
0.0
  0
LINE
  5
A0
330
17
100
AcDbEntity
  8
0
100
AcDbLine
 10
59503.1404988764
 20
179256.2733412202
 30
0.0
 11
59494.3439116982
 21
157557.20583543292
 31
0.0
  0
LINE
  5
A1
330
17
100
AcDbEntity
  8
0
100
AcDbLine
 10
59494.3439116982
 20
157557.20583543292
 30
0.0
 11
126933.4249170163
 21
157607.59593838363
 31
0.0
  0
LINE
  5
A2
330
17
100
AcDbEntity
  8
0
100
AcDbLine
 10
126933.4249170163
 20
157607.59593838363
 30
0.0
 11
134262.85151412222
 21
179199.8914568925
 31
0.0
  0
LINE
  5
A3
330
17
100
AcDbEntity
  8
0
100
AcDbLine
 10
130646.48746855138
 20
168546.17930902704
 30
0.0
 11
59498.82048509949
 21
168599.83708109925
 31
0.0
  0
LINE
  5
A4
330
17
100
AcDbEntity
  8
0
100
AcDbLine
 10
125762.8539314341
 20
179206.30194021278
 30
0.0
 11
125754.81711868613
 21
168549.86848315434
 31
0.0
  0
LINE
  5
A5
330
17
100
AcDbEntity
  8
0
100
AcDbLine
 10
117262.85634874599
 20
179212.71242353308
 30
0.0
 11
117254.81953599803
 21
168556.27896647464
 31
0.0
  0
LINE
  5
A6
330
17
100
AcDbEntity
  8
0
100
AcDbLine
 10
108762.85876605789
 20
179219.12290685336
 30
0.0
 11
108754.82195330993
 21
168562.6894497949
 31
0.0
  0
LINE
  5
A7
330
17
100
AcDbEntity
  8
0
100
AcDbLine
 10
100262.8611833698
 20
179225.53339017366
 30
0.0
 11
100254.82437062182
 21
168569.0999331152
 31
0.0
  0
LINE
  5
A8
330
17
100
AcDbEntity
  8
0
100
AcDbLine
 10
91762.86360068168
 20
179231.94387349393
 30
0.0
 11
91754.82678793372
 21
168575.51041643549
 31
0.0
  0
LINE
  5
A9
330
17
100
AcDbEntity
  8
0
100
AcDbLine
 10
83262.86601799358
 20
179238.35435681423
 30
0.0
 11
83254.82920524562
 21
168581.9208997558
 31
0.0
  0
LINE
  5
AA
330
17
100
AcDbEntity
  8
0
100
AcDbLine
 10
59498.64970391742
 20
168178.56092895468
 30
0.0
 11
130539.71905861818
 21
168231.64241739223
 31
0.0
  0
LINE
  5
AB
330
17
100
AcDbEntity
  8
0
100
AcDbLine
 10
67994.3415389265
 20
157563.55698596954
 30
0.0
 11
67986.40532882794
 21
168184.90293233586
 31
0.0
  0
LINE
  5
AC
330
17
100
AcDbEntity
  8
0
100
AcDbLine
 10
76494.33916615482
 20
157569.9081365062
 30
0.0
 11
76486.40295605625
 21
168191.2540828725
 31
0.0
  0
LINE
  5
AD
330
17
100
AcDbEntity
  8
0
100
AcDbLine
 10
84994.33679338312
 20
157576.2592870428
 30
0.0
 11
84986.40058328456
 21
168197.60523340912
 31
0.0
  0
LINE
  5
AE
330
17
100
AcDbEntity
  8
0
100
AcDbLine
 10
93494.33442061144
 20
157582.61043757945
 30
0.0
 11
93486.39821051287
 21
168203.95638394577
 31
0.0
  0
LINE
  5
AF
330
17
100
AcDbEntity
  8
0
100
AcDbLine
 10
101994.33204783974
 20
157588.96158811607
 30
0.0
 11
101986.39583774116
 21
168210.3075344824
 31
0.0
  0
LINE
  5
B0
330
17
100
AcDbEntity
  8
0
100
AcDbLine
 10
110494.32967506806
 20
157595.3127386527
 30
0.0
 11
110486.39346496949
 21
168216.65868501904
 31
0.0
  0
LINE
  5
B1
330
17
100
AcDbEntity
  8
0
100
AcDbLine
 10
134262.85151412222
 20
259199.8914568925
 30
0.0
 11
59503.1404988764
 21
259256.2733412202
 31
0.0
  0
LINE
  5
B2
330
17
100
AcDbEntity
  8
0
100
AcDbLine
 10
59503.1404988764
 20
259256.2733412202
 30
0.0
 11
59494.3439116982
 21
237557.20583543292
 31
0.0
  0
LINE
  5
B3
330
17
100
AcDbEntity
  8
0
100
AcDbLine
 10
59494.3439116982
 20
237557.20583543292
 30
0.0
 11
126933.4249170163
 21
237607.59593838363
 31
0.0
  0
LINE
  5
B4
330
17
100
AcDbEntity
  8
0
100
AcDbLine
 10
126933.4249170163
 20
237607.59593838363
 30
0.0
 11
134262.85151412222
 21
259199.8914568925
 31
0.0
  0
LINE
  5
B5
330
17
100
AcDbEntity
  8
0
100
AcDbLine
 10
130634.88912331221
 20
248512.01089290174
 30
0.0
 11
59498.80663002002
 21
248565.6599282443
 31
0.0
  0
LINE
  5
B6
330
17
100
AcDbEntity
  8
0
100
AcDbLine
 10
125762.8539314341
 20
259206.30194021278
 30
0.0
 11
125754.79134314813
 21
248515.69133928948
 31
0.0
  0
LINE
  5
B7
330
17
100
AcDbEntity
  8
0
100
AcDbLine
 10
117262.85634874599
 20
259212.71242353308
 30
0.0
 11
117254.79376046003
 21
248522.10182260978
 31
0.0
  0
LINE
  5
B8
330
17
100
AcDbEntity
  8
0
100
AcDbLine
 10
108762.85876605789
 20
259219.12290685336
 30
0.0
 11
108754.79617777193
 21
248528.51230593008
 31
0.0
  0
LINE
  5
B9
330
17
100
AcDbEntity
  8
0
100
AcDbLine
 10
100262.8611833698
 20
259225.53339017366
 30
0.0
 11
100254.79859508382
 21
248534.92278925035
 31
0.0
  0
LINE
  5
BA
330
17
100
AcDbEntity
  8
0
100
AcDbLine
 10
91762.86360068168
 20
259231.94387349393
 30
0.0
 11
91754.80101239572
 21
248541.33327257066
 31
0.0
  0
LINE
  5
BB
330
17
100
AcDbEntity
  8
0
100
AcDbLine
 10
83262.86601799358
 20
259238.35435681423
 30
0.0
 11
83254.80342970762
 21
248547.74375589093
 31
0.0
  0
LINE
  5
BC
330
17
100
AcDbEntity
  8
0
100
AcDbLine
 10
59498.625148760606
 20
248117.98925559424
 30
0.0
 11
130519.15301324417
 21
248171.05539554553
 31
0.0
  0
LINE
  5
BD
330
17
100
AcDbEntity
  8
0
100
AcDbLine
 10
67994.3415389265
 20
237563.55698596954
 30
0.0
 11
67986.45058760345
 21
248124.33131113998
 31
0.0
  0
LINE
  5
BE
330
17
100
AcDbEntity
  8
0
100
AcDbLine
 10
76494.33916615482
 20
237569.9081365062
 30
0.0
 11
76486.44821483176
 21
248130.68246167662
 31
0.0
  0
LINE
  5
BF
330
17
100
AcDbEntity
  8
0
100
AcDbLine
 10
84994.33679338312
 20
237576.2592870428
 30
0.0
 11
84986.44584206007
 21
248137.03361221324
 31
0.0
  0
LINE
  5
C0
330
17
100
AcDbEntity
  8
0
100
AcDbLine
 10
93494.33442061144
 20
237582.61043757945
 30
0.0
 11
93486.44346928838
 21
248143.3847627499
 31
0.0
  0
LINE
  5
C1
330
17
100
AcDbEntity
  8
0
100
AcDbLine
 10
101994.33204783974
 20
237588.96158811607
 30
0.0
 11
101986.44109651668
 21
248149.7359132865
 31
0.0
  0
LINE
  5
C2
330
17
100
AcDbEntity
  8
0
100
AcDbLine
 10
110494.32967506806
 20
237595.3127386527
 30
0.0
 11
110486.438723745
 21
248156.08706382316
 31
0.0
  0
LINE
  5
C3
330
17
100
AcDbEntity
  8
0
100
AcDbLine
 10
234262.85151412222
 20
19199.8914568925
 30
0.0
 11
159503.1404988764
 21
19256.2733412202
 31
0.0
  0
LINE
  5
C4
330
17
100
AcDbEntity
  8
0
100
AcDbLine
 10
159503.1404988764
 20
19256.2733412202
 30
0.0
 11
159494.3439116982
 21
-2442.79416456709
 31
0.0
  0
LINE
  5
C5
330
17
100
AcDbEntity
  8
0
100
AcDbLine
 10
159494.3439116982
 20
-2442.79416456709
 30
0.0
 11
226933.4249170163
 21
-2392.40406161637
 31
0.0
  0
LINE
  5
C6
330
17
100
AcDbEntity
  8
0
100
AcDbLine
 10
226933.4249170163
 20
-2392.40406161637
 30
0.0
 11
234262.85151412222
 21
19199.8914568925
 31
0.0
  0
LINE
  5
C7
330
17
100
AcDbEntity
  8
0
100
AcDbLine
 10
230683.1088766078
 20
8654.065001663635
 30
0.0
 11
159498.86423207444
 21
8707.75035968329
 31
0.0
  0
LINE
  5
C8
330
17
100
AcDbEntity
  8
0
100
AcDbLine
 10
225762.8539314341
 20
19206.301940212787
 30
0.0
 11
225754.89850413168
 21
8657.781733352396
 31
0.0
  0
LINE
  5
C9
330
17
100
AcDbEntity
  8
0
100
AcDbLine
 10
217262.856348746
 20
19212.712423533078
 30
0.0
 11
217254.90092144356
 21
8664.192216672687
 31
0.0
  0
LINE
  5
CA
330
17
100
AcDbEntity
  8
0
100
AcDbLine
 10
208762.85876605788
 20
19219.122906853365
 30
0.0
 11
208754.90333875548
 21
8670.602699992975
 31
0.0
  0
LINE
  5
CB
330
17
100
AcDbEntity
  8
0
100
AcDbLine
 10
200262.8611833698
 20
19225.533390173656
 30
0.0
 11
200254.90575606737
 21
8677.013183313265
 31
0.0
  0
LINE
  5
CC
330
17
100
AcDbEntity
  8
0
100
AcDbLine
 10
191762.86360068168
 20
19231.943873493943
 30
0.0
 11
191754.90817337926
 21
8683.423666633553
 31
0.0
  0
LINE
  5
CD
330
17
100
AcDbEntity
  8
0
100
AcDbLine
 10
183262.8660179936
 20
19238.354356814234
 30
0.0
 11
183254.91059069117
 21
8689.834149953844
 31
0.0
  0
LINE
  5
CE
330
17
100
AcDbEntity
  8
0
100
AcDbLine
 10
159498.62922181914
 20
8128.036512547863
 30
0.0
 11
230522.5643824689
 21
8181.105198411756
 31
0.0
  0
LINE
  5
CF
330
17
100
AcDbEntity
  8
0
100
AcDbLine
 10
167994.3415389265
 20
-2436.4430140304576
 30
0.0
 11
167986.44308035588
 21
8134.378559440887
 31
0.0
  0
LINE
  5
D0
330
17
100
AcDbEntity
  8
0
100
AcDbLine
 10
176494.33916615482
 20
-2430.0918634938257
 30
0.0
 11
176486.4407075842
 21
8140.729709977519
 31
0.0
  0
LINE
  5
D1
330
17
100
AcDbEntity
  8
0
100
AcDbLine
 10
184994.33679338312
 20
-2423.7407129571934
 30
0.0
 11
184986.4383348125
 21
8147.080860514152
 31
0.0
  0
LINE
  5
D2
330
17
100
AcDbEntity
  8
0
100
AcDbLine
 10
193494.33442061144
 20
-2417.389562420561
 30
0.0
 11
193486.43596204082
 21
8153.432011050783
 31
0.0
  0
LINE
  5
D3
330
17
100
AcDbEntity
  8
0
100
AcDbLine
 10
201994.33204783974
 20
-2411.038411883929
 30
0.0
 11
201986.43358926912
 21
8159.7831615874165
 31
0.0
  0
LINE
  5
D4
330
17
100
AcDbEntity
  8
0
100
AcDbLine
 10
210494.32967506806
 20
-2404.687261347297
 30
0.0
 11
210486.43121649744
 21
8166.134312124048
 31
0.0
  0
LINE
  5
D5
330
17
100
AcDbEntity
  8
0
100
AcDbLine
 10
234262.85151412222
 20
99199.8914568925
 30
0.0
 11
159503.1404988764
 21
99256.27334122019
 31
0.0
  0
LINE
  5
D6
330
17
100
AcDbEntity
  8
0
100
AcDbLine
 10
159503.1404988764
 20
99256.27334122019
 30
0.0
 11
159494.3439116982
 21
77557.2058354329
 31
0.0
  0
LINE
  5
D7
330
17
100
AcDbEntity
  8
0
100
AcDbLine
 10
159494.3439116982
 20
77557.2058354329
 30
0.0
 11
226933.4249170163
 21
77607.59593838363
 31
0.0
  0
LINE
  5
D8
330
17
100
AcDbEntity
  8
0
100
AcDbLine
 10
226933.4249170163
 20
77607.59593838363
 30
0.0
 11
234262.85151412222
 21
99199.8914568925
 31
0.0
  0
LINE
  5
D9
330
17
100
AcDbEntity
  8
0
100
AcDbLine
 10
230640.69758055016
 20
88529.12245320271
 30
0.0
 11
159498.81356865092
 21
88582.77586390395
 31
0.0
  0
LINE
  5
DA
330
17
100
AcDbEntity
  8
0
100
AcDbLine
 10
225762.8539314341
 20
99206.30194021278
 30
0.0
 11
225754.80425155075
 21
88532.80727044691
 31
0.0
  0
LINE
  5
DB
330
17
100
AcDbEntity
  8
0
100
AcDbLine
 10
217262.856348746
 20
99212.71242353308
 30
0.0
 11
217254.80666886267
 21
88539.2177537672
 31
0.0
  0
LINE
  5
DC
330
17
100
AcDbEntity
  8
0
100
AcDbLine
 10
208762.85876605788
 20
99219.12290685336
 30
0.0
 11
208754.80908617456
 21
88545.62823708748
 31
0.0
  0
LINE
  5
DD
330
17
100
AcDbEntity
  8
0
100
AcDbLine
 10
200262.8611833698
 20
99225.53339017366
 30
0.0
 11
200254.81150348645
 21
88552.03872040779
 31
0.0
  0
LINE
  5
DE
330
17
100
AcDbEntity
  8
0
100
AcDbLine
 10
191762.86360068168
 20
99231.94387349395
 30
0.0
 11
191754.81392079836
 21
88558.44920372806
 31
0.0
  0
LINE
  5
DF
330
17
100
AcDbEntity
  8
0
100
AcDbLine
 10
183262.8660179936
 20
99238.35435681423
 30
0.0
 11
183254.81633811025
 21
88564.85968704836
 31
0.0
  0
LINE
  5
E0
330
17
100
AcDbEntity
  8
0
100
AcDbLine
 10
184649.24668381872
 20
88563.80804296437
 30
0.0
 11
159498.7982610822
 21
88545.01576901246
 31
0.0
  0
LINE
  5
E1
330
17
100
AcDbEntity
  8
0
100
AcDbLine
 10
167994.3415389265
 20
77563.55698596954
 30
0.0
 11
167986.1315160633
 21
88551.3574568012
 31
0.0
  0
LINE
  5
E2
330
17
100
AcDbEntity
  8
0
100
AcDbLine
 10
176494.33916615482
 20
77569.90813650617
 30
0.0
 11
176486.12914329162
 21
88557.70860733783
 31
0.0
  0
LINE
  5
E3
330
17
100
AcDbEntity
  8
0
100
AcDbLine
 10
184994.33679338312
 20
77576.2592870428
 30
0.0
 11
184986.1267705199
 21
88564.05975787446
 31
0.0
  0
LINE
  5
E4
330
17
100
AcDbEntity
  8
0
100
AcDbLine
 10
193494.33442061144
 20
77582.61043757944
 30
0.0
 11
193486.12439774824
 21
88570.4109084111
 31
0.0
  0
LINE
  5
E5
330
17
100
AcDbEntity
  8
0
100
AcDbLine
 10
201994.33204783974
 20
77588.96158811607
 30
0.0
 11
201986.12202497653
 21
88576.76205894773
 31
0.0
  0
LINE
  5
E6
330
17
100
AcDbEntity
  8
0
100
AcDbLine
 10
210494.32967506806
 20
77595.3127386527
 30
0.0
 11
210486.11965220486
 21
88583.11320948436
 31
0.0
  0
LINE
  5
E7
330
17
100
AcDbEntity
  8
0
100
AcDbLine
 10
234262.85151412222
 20
179199.8914568925
 30
0.0
 11
159503.1404988764
 21
179256.2733412202
 31
0.0
  0
LINE
  5
E8
330
17
100
AcDbEntity
  8
0
100
AcDbLine
 10
159503.1404988764
 20
179256.2733412202
 30
0.0
 11
159494.3439116982
 21
157557.20583543292
 31
0.0
  0
LINE
  5
E9
330
17
100
AcDbEntity
  8
0
100
AcDbLine
 10
159494.3439116982
 20
157557.20583543292
 30
0.0
 11
226933.4249170163
 21
157607.59593838363
 31
0.0
  0
LINE
  5
EA
330
17
100
AcDbEntity
  8
0
100
AcDbLine
 10
226933.4249170163
 20
157607.59593838363
 30
0.0
 11
234262.85151412222
 21
179199.8914568925
 31
0.0
  0
LINE
  5
EB
330
17
100
AcDbEntity
  8
0
100
AcDbLine
 10
230658.01189189608
 20
168580.12995322034
 30
0.0
 11
159498.83425187378
 21
168633.7964063388
 31
0.0
  0
LINE
  5
EC
330
17
100
AcDbEntity
  8
0
100
AcDbLine
 10
225762.8539314341
 20
179206.30194021278
 30
0.0
 11
225754.8427299441
 21
168583.82779946108
 31
0.0
  0
LINE
  5
ED
330
17
100
AcDbEntity
  8
0
100
AcDbLine
 10
217262.856348746
 20
179212.71242353308
 30
0.0
 11
217254.84514725598
 21
168590.23828278139
 31
0.0
  0
LINE
  5
EE
330
17
100
AcDbEntity
  8
0
100
AcDbLine
 10
208762.85876605788
 20
179219.12290685336
 30
0.0
 11
208754.84756456787
 21
168596.64876610166
 31
0.0
  0
LINE
  5
EF
330
17
100
AcDbEntity
  8
0
100
AcDbLine
 10
200262.8611833698
 20
179225.53339017366
 30
0.0
 11
200254.8499818798
 21
168603.05924942196
 31
0.0
  0
LINE
  5
F0
330
17
100
AcDbEntity
  8
0
100
AcDbLine
 10
191762.86360068168
 20
179231.94387349393
 30
0.0
 11
191754.85239919167
 21
168609.46973274223
 31
0.0
  0
LINE
  5
F1
330
17
100
AcDbEntity
  8
0
100
AcDbLine
 10
183262.8660179936
 20
179238.35435681423
 30
0.0
 11
183254.8548165036
 21
168615.88021606253
 31
0.0
  0
LINE
  5
F2
330
17
100
AcDbEntity
  8
0
100
AcDbLine
 10
204935.8848417932
 20
168599.5289312752
 30
0.0
 11
159498.8065970509
 21
168565.57860134082
 31
0.0
  0
LINE
  5
F3
330
17
100
AcDbEntity
  8
0
100
AcDbLine
 10
167994.3415389265
 20
157563.55698596954
 30
0.0
 11
167986.1161516436
 21
168571.92027142076
 31
0.0
  0
LINE
  5
F4
330
17
100
AcDbEntity
  8
0
100
AcDbLine
 10
176494.33916615482
 20
157569.9081365062
 30
0.0
 11
176486.1137788719
 21
168578.2714219574
 31
0.0
  0
LINE
  5
F5
330
17
100
AcDbEntity
  8
0
100
AcDbLine
 10
184994.33679338312
 20
157576.2592870428
 30
0.0
 11
184986.11140610022
 21
168584.62257249403
 31
0.0
  0
LINE
  5
F6
330
17
100
AcDbEntity
  8
0
100
AcDbLine
 10
193494.33442061144
 20
157582.61043757945
 30
0.0
 11
193486.1090333285
 21
168590.97372303065
 31
0.0
  0
LINE
  5
F7
330
17
100
AcDbEntity
  8
0
100
AcDbLine
 10
201994.33204783974
 20
157588.96158811607
 30
0.0
 11
201986.1066605568
 21
168597.3248735673
 31
0.0
  0
LINE
  5
F8
330
17
100
AcDbEntity
  8
0
100
AcDbLine
 10
210494.32967506806
 20
157595.3127386527
 30
0.0
 11
210486.10428778513
 21
168603.67602410392
 31
0.0
  0
LINE
  5
F9
330
17
100
AcDbEntity
  8
0
100
AcDbLine
 10
234262.85151412222
 20
259199.8914568925
 30
0.0
 11
159503.1404988764
 21
259256.2733412202
 31
0.0
  0
LINE
  5
FA
330
17
100
AcDbEntity
  8
0
100
AcDbLine
 10
159503.1404988764
 20
259256.2733412202
 30
0.0
 11
159494.3439116982
 21
237557.20583543292
 31
0.0
  0
LINE
  5
FB
330
17
100
AcDbEntity
  8
0
100
AcDbLine
 10
159494.3439116982
 20
237557.20583543292
 30
0.0
 11
226933.4249170163
 21
237607.59593838363
 31
0.0
  0
LINE
  5
FC
330
17
100
AcDbEntity
  8
0
100
AcDbLine
 10
226933.4249170163
 20
237607.59593838363
 30
0.0
 11
234262.85151412222
 21
259199.8914568925
 31
0.0
  0
LINE
  5
FD
330
17
100
AcDbEntity
  8
0
100
AcDbLine
 10
230668.3212521122
 20
248610.50105380281
 30
0.0
 11
159498.8465671655
 21
248664.1752726923
 31
0.0
  0
LINE
  5
FE
330
17
100
AcDbEntity
  8
0
100
AcDbLine
 10
225762.8539314341
 20
259206.30194021278
 30
0.0
 11
225754.86564091116
 21
248614.20665782358
 31
0.0
  0
LINE
  5
FF
330
17
100
AcDbEntity
  8
0
100
AcDbLine
 10
217262.856348746
 20
259212.71242353308
 30
0.0
 11
217254.86805822307
 21
248620.61714114388
 31
0.0
  0
LINE
  5
100
330
17
100
AcDbEntity
  8
0
100
AcDbLine
 10
208762.85876605788
 20
259219.12290685336
 30
0.0
 11
208754.87047553496
 21
248627.02762446416
 31
0.0
  0
LINE
  5
101
330
17
100
AcDbEntity
  8
0
100
AcDbLine
 10
200262.8611833698
 20
259225.53339017366
 30
0.0
 11
200254.87289284685
 21
248633.43810778446
 31
0.0
  0
LINE
  5
102
330
17
100
AcDbEntity
  8
0
100
AcDbLine
 10
191762.86360068168
 20
259231.94387349393
 30
0.0
 11
191754.87531015876
 21
248639.84859110473
 31
0.0
  0
LINE
  5
103
330
17
100
AcDbEntity
  8
0
100
AcDbLine
 10
183262.8660179936
 20
259238.35435681423
 30
0.0
 11
183254.87772747065
 21
248646.25907442503
 31
0.0
  0
LINE
  5
104
330
17
100
AcDbEntity
  8
0
100
AcDbLine
 10
213042.6091924358
 20
248623.79392032124
 30
0.0
 11
159498.81397827048
 21
248583.786296951
 31
0.0
  0
LINE
  5
105
330
17
100
AcDbEntity
  8
0
100
AcDbLine
 10
167994.3415389265
 20
237563.55698596954
 30
0.0
 11
167986.1025469673
 21
248590.12795135038
 31
0.0
  0
LINE
  5
106
330
17
100
AcDbEntity
  8
0
100
AcDbLine
 10
176494.33916615482
 20
237569.9081365062
 30
0.0
 11
176486.1001741956
 21
248596.47910188703
 31
0.0
  0
LINE
  5
107
330
17
100
AcDbEntity
  8
0
100
AcDbLine
 10
184994.33679338312
 20
237576.2592870428
 30
0.0
 11
184986.09780142392
 21
248602.83025242365
 31
0.0
  0
LINE
  5
108
330
17
100
AcDbEntity
  8
0
100
AcDbLine
 10
193494.33442061144
 20
237582.61043757945
 30
0.0
 11
193486.09542865222
 21
248609.1814029603
 31
0.0
  0
LINE
  5
109
330
17
100
AcDbEntity
  8
0
100
AcDbLine
 10
201994.33204783974
 20
237588.96158811607
 30
0.0
 11
201986.09305588054
 21
248615.53255349692
 31
0.0
  0
LINE
  5
10A
330
17
100
AcDbEntity
  8
0
100
AcDbLine
 10
210494.32967506806
 20
237595.3127386527
 30
0.0
 11
210486.09068310884
 21
248621.88370403356
 31
0.0
  0
LINE
  5
10B
330
17
100
AcDbEntity
  8
0
100
AcDbLine
 10
334262.8515141222
 20
19199.8914568925
 30
0.0
 11
259503.1404988764
 21
19256.2733412202
 31
0.0
  0
LINE
  5
10C
330
17
100
AcDbEntity
  8
0
100
AcDbLine
 10
259503.1404988764
 20
19256.2733412202
 30
0.0
 11
259494.3439116982
 21
-2442.79416456709
 31
0.0
  0
LINE
  5
10D
330
17
100
AcDbEntity
  8
0
100
AcDbLine
 10
259494.3439116982
 20
-2442.79416456709
 30
0.0
 11
326933.4249170163
 21
-2392.40406161637
 31
0.0
  0
LINE
  5
10E
330
17
100
AcDbEntity
  8
0
100
AcDbLine
 10
326933.4249170163
 20
-2392.40406161637
 30
0.0
 11
334262.8515141222
 21
19199.8914568925
 31
0.0
  0
LINE
  5
10F
330
17
100
AcDbEntity
  8
0
100
AcDbLine
 10
330676.6779746911
 20
8635.119735919277
 30
0.0
 11
259498.85654988745
 21
8688.800249708964
 31
0.0
  0
LINE
  5
110
330
17
100
AcDbEntity
  8
0
100
AcDbLine
 10
325762.8539314341
 20
19206.301940212787
 30
0.0
 11
325754.8842124415
 21
8638.831628362792
 31
0.0
  0
LINE
  5
111
330
17
100
AcDbEntity
  8
0
100
AcDbLine
 10
317262.856348746
 20
19212.712423533078
 30
0.0
 11
317254.8866297534
 21
8645.242111683083
 31
0.0
  0
LINE
  5
112
330
17
100
AcDbEntity
  8
0
100
AcDbLine
 10
308762.8587660579
 20
19219.122906853365
 30
0.0
 11
308754.8890470653
 21
8651.65259500337
 31
0.0
  0
LINE
  5
113
330
17
100
AcDbEntity
  8
0
100
AcDbLine
 10
300262.86118336977
 20
19225.533390173656
 30
0.0
 11
300254.8914643772
 21
8658.063078323661
 31
0.0
  0
LINE
  5
114
330
17
100
AcDbEntity
  8
0
100
AcDbLine
 10
291762.8636006817
 20
19231.943873493943
 30
0.0
 11
291754.8938816891
 21
8664.473561643948
 31
0.0
  0
LINE
  5
115
330
17
100
AcDbEntity
  8
0
100
AcDbLine
 10
283262.8660179936
 20
19238.354356814234
 30
0.0
 11
283254.896299001
 21
8670.88404496424
 31
0.0
  0
LINE
  5
116
330
17
100
AcDbEntity
  8
0
100
AcDbLine
 10
322959.9353368673
 20
8640.939508164187
 30
0.0
 11
259498.8179249135
 21
8593.52171729004
 31
0.0
  0
LINE
  5
117
330
17
100
AcDbEntity
  8
0
100
AcDbLine
 10
267994.3415389265
 20
-2436.4430140304576
 30
0.0
 11
267986.09527272213
 21
8599.86336330526
 31
0.0
  0
LINE
  5
118
330
17
100
AcDbEntity
  8
0
100
AcDbLine
 10
276494.3391661548
 20
-2430.0918634938257
 30
0.0
 11
276486.0928999504
 21
8606.214513841891
 31
0.0
  0
LINE
  5
119
330
17
100
AcDbEntity
  8
0
100
AcDbLine
 10
284994.3367933831
 20
-2423.7407129571934
 30
0.0
 11
284986.0905271787
 21
8612.565664378524
 31
0.0
  0
LINE
  5
11A
330
17
100
AcDbEntity
  8
0
100
AcDbLine
 10
293494.33442061144
 20
-2417.389562420561
 30
0.0
 11
293486.08815440704
 21
8618.916814915156
 31
0.0
  0
LINE
  5
11B
330
17
100
AcDbEntity
  8
0
100
AcDbLine
 10
301994.33204783977
 20
-2411.038411883929
 30
0.0
 11
301986.08578163537
 21
8625.267965451789
 31
0.0
  0
LINE
  5
11C
330
17
100
AcDbEntity
  8
0
100
AcDbLine
 10
310494.32967506803
 20
-2404.687261347297
 30
0.0
 11
310486.08340886363
 21
8631.61911598842
 31
0.0
  0
LINE
  5
11D
330
17
100
AcDbEntity
  8
0
100
AcDbLine
 10
334262.8515141222
 20
99199.8914568925
 30
0.0
 11
259503.1404988764
 21
99256.27334122019
 31
0.0
  0
LINE
  5
11E
330
17
100
AcDbEntity
  8
0
100
AcDbLine
 10
259503.1404988764
 20
99256.27334122019
 30
0.0
 11
259494.3439116982
 21
77557.2058354329
 31
0.0
  0
LINE
  5
11F
330
17
100
AcDbEntity
  8
0
100
AcDbLine
 10
259494.3439116982
 20
77557.2058354329
 30
0.0
 11
326933.4249170163
 21
77607.59593838363
 31
0.0
  0
LINE
  5
120
330
17
100
AcDbEntity
  8
0
100
AcDbLine
 10
326933.4249170163
 20
77607.59593838363
 30
0.0
 11
334262.8515141222
 21
99199.8914568925
 31
0.0
  0
LINE
  5
121
330
17
100
AcDbEntity
  8
0
100
AcDbLine
 10
330273.20183111646
 20
87446.48976448708
 30
0.0
 11
259498.37456785326
 21
87499.86635020206
 31
0.0
  0
LINE
  5
122
330
17
100
AcDbEntity
  8
0
100
AcDbLine
 10
325762.8539314341
 20
99206.30194021278
 30
0.0
 11
325753.98754878336
 21
87449.89804166628
 31
0.0
  0
LINE
  5
123
330
17
100
AcDbEntity
  8
0
100
AcDbLine
 10
317262.856348746
 20
99212.71242353308
 30
0.0
 11
317253.9899660953
 21
87456.30852498658
 31
0.0
  0
LINE
  5
124
330
17
100
AcDbEntity
  8
0
100
AcDbLine
 10
308762.8587660579
 20
99219.12290685336
 30
0.0
 11
308753.9923834072
 21
87462.71900830687
 31
0.0
  0
LINE
  5
125
330
17
100
AcDbEntity
  8
0
100
AcDbLine
 10
300262.86118336977
 20
99225.53339017366
 30
0.0
 11
300253.9948007191
 21
87469.12949162716
 31
0.0
  0
LINE
  5
126
330
17
100
AcDbEntity
  8
0
100
AcDbLine
 10
291762.8636006817
 20
99231.94387349395
 30
0.0
 11
291753.99721803097
 21
87475.53997494745
 31
0.0
  0
LINE
  5
127
330
17
100
AcDbEntity
  8
0
100
AcDbLine
 10
283262.8660179936
 20
99238.35435681423
 30
0.0
 11
283253.99963534286
 21
87481.95045826773
 31
0.0
  0
LINE
  5
128
330
17
100
AcDbEntity
  8
0
100
AcDbLine
 10
274762.8684353055
 20
99244.76484013452
 30
0.0
 11
274754.00205265475
 21
87488.36094158802
 31
0.0
  0
LINE
  5
129
330
17
100
AcDbEntity
  8
0
100
AcDbLine
 10
334262.8515141222
 20
179199.8914568925
 30
0.0
 11
259503.1404988764
 21
179256.2733412202
 31
0.0
  0
LINE
  5
12A
330
17
100
AcDbEntity
  8
0
100
AcDbLine
 10
259503.1404988764
 20
179256.2733412202
 30
0.0
 11
259494.3439116982
 21
157557.20583543292
 31
0.0
  0
LINE
  5
12B
330
17
100
AcDbEntity
  8
0
100
AcDbLine
 10
259494.3439116982
 20
157557.20583543292
 30
0.0
 11
326933.4249170163
 21
157607.59593838363
 31
0.0
  0
LINE
  5
12C
330
17
100
AcDbEntity
  8
0
100
AcDbLine
 10
326933.4249170163
 20
157607.59593838363
 30
0.0
 11
334262.8515141222
 21
179199.8914568925
 31
0.0
  0
LINE
  5
12D
330
17
100
AcDbEntity
  8
0
100
AcDbLine
 10
330276.01408418245
 20
167454.7745871086
 30
0.0
 11
259498.37792729712
 21
167508.15329122017
 31
0.0
  0
LINE
  5
12E
330
17
100
AcDbEntity
  8
0
100
AcDbLine
 10
325762.8539314341
 20
179206.30194021278
 30
0.0
 11
325753.99379858316
 21
167458.18498050456
 31
0.0
  0
LINE
  5
12F
330
17
100
AcDbEntity
  8
0
100
AcDbLine
 10
317262.856348746
 20
179212.71242353308
 30
0.0
 11
317253.9962158951
 21
167464.59546382484
 31
0.0
  0
LINE
  5
130
330
17
100
AcDbEntity
  8
0
100
AcDbLine
 10
308762.8587660579
 20
179219.12290685336
 30
0.0
 11
308753.998633207
 21
167471.00594714514
 31
0.0
  0
LINE
  5
131
330
17
100
AcDbEntity
  8
0
100
AcDbLine
 10
300262.86118336977
 20
179225.53339017366
 30
0.0
 11
300254.0010505189
 21
167477.4164304654
 31
0.0
  0
LINE
  5
132
330
17
100
AcDbEntity
  8
0
100
AcDbLine
 10
291762.8636006817
 20
179231.94387349393
 30
0.0
 11
291754.0034678308
 21
167483.8269137857
 31
0.0
  0
LINE
  5
133
330
17
100
AcDbEntity
  8
0
100
AcDbLine
 10
283262.8660179936
 20
179238.35435681423
 30
0.0
 11
283254.00588514266
 21
167490.237397106
 31
0.0
  0
LINE
  5
134
330
17
100
AcDbEntity
  8
0
100
AcDbLine
 10
274762.8684353055
 20
179244.76484013454
 30
0.0
 11
274754.00830245455
 21
167496.6478804263
 31
0.0
  0
LINE
  5
135
330
17
100
AcDbEntity
  8
0
100
AcDbLine
 10
334262.8515141222
 20
259199.8914568925
 30
0.0
 11
259503.1404988764
 21
259256.2733412202
 31
0.0
  0
LINE
  5
136
330
17
100
AcDbEntity
  8
0
100
AcDbLine
 10
259503.1404988764
 20
259256.2733412202
 30
0.0
 11
259494.3439116982
 21
237557.20583543292
 31
0.0
  0
LINE
  5
137
330
17
100
AcDbEntity
  8
0
100
AcDbLine
 10
259494.3439116982
 20
237557.20583543292
 30
0.0
 11
326933.4249170163
 21
237607.59593838363
 31
0.0
  0
LINE
  5
138
330
17
100
AcDbEntity
  8
0
100
AcDbLine
 10
326933.4249170163
 20
237607.59593838363
 30
0.0
 11
334262.8515141222
 21
259199.8914568925
 31
0.0
  0
LINE
  5
139
330
17
100
AcDbEntity
  8
0
100
AcDbLine
 10
330276.4824076207
 20
247456.15425548283
 30
0.0
 11
259498.37848674404
 21
247509.53331237016
 31
0.0
  0
LINE
  5
13A
330
17
100
AcDbEntity
  8
0
100
AcDbLine
 10
325762.8539314341
 20
259206.30194021278
 30
0.0
 11
325753.99483936
 21
247459.56500129154
 31
0.0
  0
LINE
  5
13B
330
17
100
AcDbEntity
  8
0
100
AcDbLine
 10
317262.856348746
 20
259212.71242353308
 30
0.0
 11
317253.9972566719
 21
247465.97548461184
 31
0.0
  0
LINE
  5
13C
330
17
100
AcDbEntity
  8
0
100
AcDbLine
 10
308762.8587660579
 20
259219.12290685336
 30
0.0
 11
308753.9996739838
 21
247472.38596793212
 31
0.0
  0
LINE
  5
13D
330
17
100
AcDbEntity
  8
0
100
AcDbLine
 10
300262.86118336977
 20
259225.53339017366
 30
0.0
 11
300254.00209129567
 21
247478.79645125242
 31
0.0
  0
LINE
  5
13E
330
17
100
AcDbEntity
  8
0
100
AcDbLine
 10
291762.8636006817
 20
259231.94387349393
 30
0.0
 11
291754.00450860756
 21
247485.2069345727
 31
0.0
  0
LINE
  5
13F
330
17
100
AcDbEntity
  8
0
100
AcDbLine
 10
283262.8660179936
 20
259238.35435681423
 30
0.0
 11
283254.00692591944
 21
247491.617417893
 31
0.0
  0
LINE
  5
140
330
17
100
AcDbEntity
  8
0
100
AcDbLine
 10
274762.8684353055
 20
259244.76484013454
 30
0.0
 11
274754.0093432314
 21
247498.02790121327
 31
0.0
  0
LINE
  5
141
330
17
100
AcDbEntity
  8
0
100
AcDbLine
 10
434262.8515141222
 20
19199.8914568925
 30
0.0
 11
359503.1404988764
 21
19256.2733412202
 31
0.0
  0
LINE
  5
142
330
17
100
AcDbEntity
  8
0
100
AcDbLine
 10
359503.1404988764
 20
19256.2733412202
 30
0.0
 11
359494.3439116982
 21
-2442.79416456709
 31
0.0
  0
LINE
  5
143
330
17
100
AcDbEntity
  8
0
100
AcDbLine
 10
359494.3439116982
 20
-2442.79416456709
 30
0.0
 11
426933.4249170163
 21
-2392.40406161637
 31
0.0
  0
LINE
  5
144
330
17
100
AcDbEntity
  8
0
100
AcDbLine
 10
426933.4249170163
 20
-2392.40406161637
 30
0.0
 11
434262.8515141222
 21
19199.8914568925
 31
0.0
  0
LINE
  5
145
330
17
100
AcDbEntity
  8
0
100
AcDbLine
 10
430281.15959770227
 20
7469.933132875086
 30
0.0
 11
359498.38407399284
 21
7523.315712967185
 31
0.0
  0
LINE
  5
146
330
17
100
AcDbEntity
  8
0
100
AcDbLine
 10
425762.8539314341
 20
19206.301940212787
 30
0.0
 11
425754.0052336954
 21
7473.347398263179
 31
0.0
  0
LINE
  5
147
330
17
100
AcDbEntity
  8
0
100
AcDbLine
 10
417262.856348746
 20
19212.712423533078
 30
0.0
 11
417254.00765100727
 21
7479.7578815834695
 31
0.0
  0
LINE
  5
148
330
17
100
AcDbEntity
  8
0
100
AcDbLine
 10
408762.8587660579
 20
19219.122906853365
 30
0.0
 11
408754.0100683192
 21
7486.168364903757
 31
0.0
  0
LINE
  5
149
330
17
100
AcDbEntity
  8
0
100
AcDbLine
 10
400262.86118336977
 20
19225.533390173656
 30
0.0
 11
400254.0124856311
 21
7492.578848224048
 31
0.0
  0
LINE
  5
14A
330
17
100
AcDbEntity
  8
0
100
AcDbLine
 10
391762.8636006817
 20
19231.943873493943
 30
0.0
 11
391754.014902943
 21
7498.989331544335
 31
0.0
  0
LINE
  5
14B
330
17
100
AcDbEntity
  8
0
100
AcDbLine
 10
383262.8660179936
 20
19238.354356814234
 30
0.0
 11
383254.0173202549
 21
7505.399814864626
 31
0.0
  0
LINE
  5
14C
330
17
100
AcDbEntity
  8
0
100
AcDbLine
 10
374762.8684353055
 20
19244.76484013452
 30
0.0
 11
374754.01973756676
 21
7511.810298184913
 31
0.0
  0
LINE
  5
14D
330
17
100
AcDbEntity
  8
0
100
AcDbLine
 10
434262.8515141222
 20
99199.8914568925
 30
0.0
 11
359503.1404988764
 21
99256.27334122019
 31
0.0
  0
LINE
  5
14E
330
17
100
AcDbEntity
  8
0
100
AcDbLine
 10
359503.1404988764
 20
99256.27334122019
 30
0.0
 11
359494.3439116982
 21
77557.2058354329
 31
0.0
  0
LINE
  5
14F
330
17
100
AcDbEntity
  8
0
100
AcDbLine
 10
359494.3439116982
 20
77557.2058354329
 30
0.0
 11
426933.4249170163
 21
77607.59593838363
 31
0.0
  0
LINE
  5
150
330
17
100
AcDbEntity
  8
0
100
AcDbLine
 10
426933.4249170163
 20
77607.59593838363
 30
0.0
 11
434262.8515141222
 21
99199.8914568925
 31
0.0
  0
LINE
  5
151
330
17
100
AcDbEntity
  8
0
100
AcDbLine
 10
430287.2235614925
 20
87487.79740867314
 30
0.0
 11
359498.39131784515
 21
87541.18455659032
 31
0.0
  0
LINE
  5
152
330
17
100
AcDbEntity
  8
0
100
AcDbLine
 10
425762.8539314341
 20
99206.30194021278
 30
0.0
 11
425754.01870992203
 21
87491.21623718602
 31
0.0
  0
LINE
  5
153
330
17
100
AcDbEntity
  8
0
100
AcDbLine
 10
417262.856348746
 20
99212.71242353308
 30
0.0
 11
417254.0211272339
 21
87497.6267205063
 31
0.0
  0
LINE
  5
154
330
17
100
AcDbEntity
  8
0
100
AcDbLine
 10
408762.8587660579
 20
99219.12290685336
 30
0.0
 11
408754.0235445458
 21
87504.03720382659
 31
0.0
  0
LINE
  5
155
330
17
100
AcDbEntity
  8
0
100
AcDbLine
 10
400262.86118336977
 20
99225.53339017366
 30
0.0
 11
400254.02596185775
 21
87510.4476871469
 31
0.0
  0
LINE
  5
156
330
17
100
AcDbEntity
  8
0
100
AcDbLine
 10
391762.8636006817
 20
99231.94387349395
 30
0.0
 11
391754.02837916964
 21
87516.85817046717
 31
0.0
  0
LINE
  5
157
330
17
100
AcDbEntity
  8
0
100
AcDbLine
 10
383262.8660179936
 20
99238.35435681423
 30
0.0
 11
383254.03079648153
 21
87523.26865378747
 31
0.0
  0
LINE
  5
158
330
17
100
AcDbEntity
  8
0
100
AcDbLine
 10
374762.8684353055
 20
99244.76484013452
 30
0.0
 11
374754.0332137934
 21
87529.67913710776
 31
0.0
  0
LINE
  5
159
330
17
100
AcDbEntity
  8
0
100
AcDbLine
 10
434262.8515141222
 20
179199.8914568925
 30
0.0
 11
359503.1404988764
 21
179256.2733412202
 31
0.0
  0
LINE
  5
15A
330
17
100
AcDbEntity
  8
0
100
AcDbLine
 10
359503.1404988764
 20
179256.2733412202
 30
0.0
 11
359494.3439116982
 21
157557.20583543292
 31
0.0
  0
LINE
  5
15B
330
17
100
AcDbEntity
  8
0
100
AcDbLine
 10
359494.3439116982
 20
157557.20583543292
 30
0.0
 11
426933.4249170163
 21
157607.59593838363
 31
0.0
  0
LINE
  5
15C
330
17
100
AcDbEntity
  8
0
100
AcDbLine
 10
426933.4249170163
 20
157607.59593838363
 30
0.0
 11
434262.8515141222
 21
179199.8914568925
 31
0.0
  0
LINE
  5
15D
330
17
100
AcDbEntity
  8
0
100
AcDbLine
 10
430292.80469572643
 20
167504.2392814596
 30
0.0
 11
359498.39798492193
 21
167557.630633499
 31
0.0
  0
LINE
  5
15E
330
17
100
AcDbEntity
  8
0
100
AcDbLine
 10
425762.8539314341
 20
179206.30194021278
 30
0.0
 11
425754.0311131343
 21
167507.66230976864
 31
0.0
  0
LINE
  5
15F
330
17
100
AcDbEntity
  8
0
100
AcDbLine
 10
417262.856348746
 20
179212.71242353308
 30
0.0
 11
417254.0335304462
 21
167514.07279308894
 31
0.0
  0
LINE
  5
160
330
17
100
AcDbEntity
  8
0
100
AcDbLine
 10
408762.8587660579
 20
179219.12290685336
 30
0.0
 11
408754.03594775806
 21
167520.4832764092
 31
0.0
  0
LINE
  5
161
330
17
100
AcDbEntity
  8
0
100
AcDbLine
 10
400262.86118336977
 20
179225.53339017366
 30
0.0
 11
400254.03836506995
 21
167526.89375972952
 31
0.0
  0
LINE
  5
162
330
17
100
AcDbEntity
  8
0
100
AcDbLine
 10
391762.8636006817
 20
179231.94387349393
 30
0.0
 11
391754.04078238184
 21
167533.30424304982
 31
0.0
  0
LINE
  5
163
330
17
100
AcDbEntity
  8
0
100
AcDbLine
 10
383262.8660179936
 20
179238.35435681423
 30
0.0
 11
383254.0431996938
 21
167539.7147263701
 31
0.0
  0
LINE
  5
164
330
17
100
AcDbEntity
  8
0
100
AcDbLine
 10
374762.8684353055
 20
179244.76484013454
 30
0.0
 11
374754.0456170057
 21
167546.1252096904
 31
0.0
  0
LINE
  5
165
330
17
100
AcDbEntity
  8
0
100
AcDbLine
 10
434262.8515141222
 20
259199.8914568925
 30
0.0
 11
359503.1404988764
 21
259256.2733412202
 31
0.0
  0
LINE
  5
166
330
17
100
AcDbEntity
  8
0
100
AcDbLine
 10
359503.1404988764
 20
259256.2733412202
 30
0.0
 11
359494.3439116982
 21
237557.20583543292
 31
0.0
  0
LINE
  5
167
330
17
100
AcDbEntity
  8
0
100
AcDbLine
 10
359494.3439116982
 20
237557.20583543292
 30
0.0
 11
426933.4249170163
 21
237607.59593838363
 31
0.0
  0
LINE
  5
168
330
17
100
AcDbEntity
  8
0
100
AcDbLine
 10
426933.4249170163
 20
237607.59593838363
 30
0.0
 11
434262.8515141222
 21
259199.8914568925
 31
0.0
  0
LINE
  5
169
330
17
100
AcDbEntity
  8
0
100
AcDbLine
 10
430294.19753170526
 20
247508.34253915184
 30
0.0
 11
359498.3996487673
 21
247561.73494037808
 31
0.0
  0
LINE
  5
16A
330
17
100
AcDbEntity
  8
0
100
AcDbLine
 10
425762.8539314341
 20
259206.30194021278
 30
0.0
 11
425754.03420849796
 21
247511.76661556814
 31
0.0
  0
LINE
  5
16B
330
17
100
AcDbEntity
  8
0
100
AcDbLine
 10
417262.856348746
 20
259212.71242353308
 30
0.0
 11
417254.03662580985
 21
247518.1770988884
 31
0.0
  0
LINE
  5
16C
330
17
100
AcDbEntity
  8
0
100
AcDbLine
 10
408762.8587660579
 20
259219.12290685336
 30
0.0
 11
408754.03904312174
 21
247524.5875822087
 31
0.0
  0
LINE
  5
16D
330
17
100
AcDbEntity
  8
0
100
AcDbLine
 10
400262.86118336977
 20
259225.53339017366
 30
0.0
 11
400254.0414604336
 21
247530.99806552898
 31
0.0
  0
LINE
  5
16E
330
17
100
AcDbEntity
  8
0
100
AcDbLine
 10
391762.8636006817
 20
259231.94387349393
 30
0.0
 11
391754.0438777456
 21
247537.4085488493
 31
0.0
  0
LINE
  5
16F
330
17
100
AcDbEntity
  8
0
100
AcDbLine
 10
383262.8660179936
 20
259238.35435681423
 30
0.0
 11
383254.04629505746
 21
247543.81903216956
 31
0.0
  0
LINE
  5
170
330
17
100
AcDbEntity
  8
0
100
AcDbLine
 10
374762.8684353055
 20
259244.76484013454
 30
0.0
 11
374754.04871236935
 21
247550.22951548986
 31
0.0
  0
ENDSEC
  0
SECTION
  2
OBJECTS
  0
DICTIONARY
  5
A
330
0
100
AcDbDictionary
281
1
  3
ACAD_COLOR
350
B
  3
ACAD_GROUP
350
C
  3
ACAD_LAYOUT
350
D
  3
ACAD_MATERIAL
350
E
  3
ACAD_MLEADERSTYLE
350
F
  3
ACAD_MLINESTYLE
350
10
  3
ACAD_PLOTSETTINGS
350
11
  3
ACAD_PLOTSTYLENAME
350
12
  3
ACAD_SCALELIST
350
14
  3
ACAD_TABLESTYLE
350
15
  3
ACAD_VISUALSTYLE
350
16
  3
EZDXF_META
350
2D
  0
DICTIONARY
  5
B
330
A
100
AcDbDictionary
281
1
  0
DICTIONARY
  5
C
330
A
100
AcDbDictionary
281
1
  0
DICTIONARY
  5
D
330
A
100
AcDbDictionary
281
1
  3
Model
350
1A
  3
Layout1
350
1E
  0
DICTIONARY
  5
E
330
A
100
AcDbDictionary
281
1
  3
ByBlock
350
1F
  3
ByLayer
350
20
  3
Global
350
21
  0
DICTIONARY
  5
F
330
A
100
AcDbDictionary
281
1
  3
Standard
350
2C
  0
DICTIONARY
  5
10
330
A
100
AcDbDictionary
281
1
  3
Standard
350
22
  0
DICTIONARY
  5
11
330
A
100
AcDbDictionary
281
1
  0
ACDBDICTIONARYWDFLT
  5
12
330
A
100
AcDbDictionary
281
1
  3
Normal
350
13
100
AcDbDictionaryWithDefault
340
13
  0
ACDBPLACEHOLDER
  5
13
330
12
  0
DICTIONARY
  5
14
330
A
100
AcDbDictionary
281
1
  0
DICTIONARY
  5
15
330
A
100
AcDbDictionary
281
1
  0
DICTIONARY
  5
16
330
A
100
AcDbDictionary
281
1
  0
LAYOUT
  5
1A
330
D
100
AcDbPlotSettings
  1

  2
Adobe PDF
  4
A3
  6

 40
7.5
 41
20.0
 42
7.5
 43
20.0
 44
420.0
 45
297.0
 46
0.0
 47
0.0
 48
0.0
 49
0.0
140
0.0
141
0.0
142
1.0
143
1.0
 70
1024
 72
1
 73
1
 74
5
  7

 75
16
 76
0
 77
2
 78
300
147
1.0
148
0.0
149
0.0
100
AcDbLayout
  1
Model
 70
1
 71
0
 10
0.0
 20
0.0
 11
420.0
 21
297.0
 12
0.0
 22
0.0
 32
0.0
 14
1e+20
 24
1e+20
 34
1e+20
 15
-1e+20
 25
-1e+20
 35
-1e+20
146
0.0
 13
0.0
 23
0.0
 33
0.0
 16
1.0
 26
0.0
 36
0.0
 17
0.0
 27
1.0
 37
0.0
 76
1
330
17
  0
LAYOUT
  5
1E
330
D
100
AcDbPlotSettings
  1

  2
Adobe PDF
  4
A3
  6

 40
7.5
 41
20.0
 42
7.5
 43
20.0
 44
420.0
 45
297.0
 46
0.0
 47
0.0
 48
0.0
 49
0.0
140
0.0
141
0.0
142
1.0
143
1.0
 70
0
 72
1
 73
1
 74
5
  7

 75
16
 76
0
 77
2
 78
300
147
1.0
148
0.0
149
0.0
100
AcDbLayout
  1
Layout1
 70
1
 71
1
 10
0.0
 20
0.0
 11
420.0
 21
297.0
 12
0.0
 22
0.0
 32
0.0
 14
1e+20
 24
1e+20
 34
1e+20
 15
-1e+20
 25
-1e+20
 35
-1e+20
146
0.0
 13
0.0
 23
0.0
 33
0.0
 16
1.0
 26
0.0
 36
0.0
 17
0.0
 27
1.0
 37
0.0
 76
1
330
1B
  0
MATERIAL
  5
1F
102
{ACAD_REACTORS
330
E
102
}
330
E
100
AcDbMaterial
  1
ByBlock
  2

 70
0
 40
1.0
 71
1
 41
1.0
 91
-1023410177
 42
1.0
 72
1
  3

 73
1
 74
1
 75
1
 44
0.5
 73
0
 45
1.0
 46
1.0
 77
1
  4

 78
1
 79
1
170
1
 48
1.0
171
1
  6

172
1
173
1
174
1
140
1.0
141
1.0
175
1
  7

176
1
177
1
178
1
143
1.0
179
1
  8

270
1
271
1
272
1
145
1.0
146
1.0
273
1
  9

274
1
275
1
276
1
 42
1.0
 72
1
  3

 73
1
 74
1
 75
1
 94
63
  0
MATERIAL
  5
20
102
{ACAD_REACTORS
330
E
102
}
330
E
100
AcDbMaterial
  1
ByLayer
  2

 70
0
 40
1.0
 71
1
 41
1.0
 91
-1023410177
 42
1.0
 72
1
  3

 73
1
 74
1
 75
1
 44
0.5
 73
0
 45
1.0
 46
1.0
 77
1
  4

 78
1
 79
1
170
1
 48
1.0
171
1
  6

172
1
173
1
174
1
140
1.0
141
1.0
175
1
  7

176
1
177
1
178
1
143
1.0
179
1
  8

270
1
271
1
272
1
145
1.0
146
1.0
273
1
  9

274
1
275
1
276
1
 42
1.0
 72
1
  3

 73
1
 74
1
 75
1
 94
63
  0
MATERIAL
  5
21
102
{ACAD_REACTORS
330
E
102
}
330
E
100
AcDbMaterial
  1
Global
  2

 70
0
 40
1.0
 71
1
 41
1.0
 91
-1023410177
 42
1.0
 72
1
  3

 73
1
 74
1
 75
1
 44
0.5
 73
0
 45
1.0
 46
1.0
 77
1
  4

 78
1
 79
1
170
1
 48
1.0
171
1
  6

172
1
173
1
174
1
140
1.0
141
1.0
175
1
  7

176
1
177
1
178
1
143
1.0
179
1
  8

270
1
271
1
272
1
145
1.0
146
1.0
273
1
  9

274
1
275
1
276
1
 42
1.0
 72
1
  3

 73
1
 74
1
 75
1
 94
63
  0
MLINESTYLE
  5
22
102
{ACAD_REACTORS
330
10
102
}
330
10
100
AcDbMlineStyle
  2
Standard
 70
0
  3

 62
256
 51
90.0
 52
90.0
 71
2
 49
0.5
 62
256
  6
BYLAYER
 49
-0.5
 62
256
  6
BYLAYER
  0
MLEADERSTYLE
  5
2C
102
{ACAD_REACTORS
330
F
102
}
330
F
100
AcDbMLeaderStyle
179
2
170
2
171
1
172
0
 90
2
 40
0.0
 41
0.0
173
1
 91
-1056964608
 92
-2
290
1
 42
2.0
291
1
 43
8.0
  3
Standard
 44
4.0
300

342
29
174
1
175
1
176
0
178
1
 93
-1056964608
 45
4.0
292
0
297
0
 46
4.0
 94
-1056964608
 47
1.0
 49
1.0
140
1.0
294
1
141
0.0
177
0
142
1.0
295
0
296
0
143
3.75
271
0
272
9
273
9
  0
DICTIONARY
  5
2D
330
A
100
AcDbDictionary
280
1
281
1
  3
CREATED_BY_EZDXF
350
2E
  3
WRITTEN_BY_EZDXF
350
173
  0
DICTIONARYVAR
  5
2E
330
2D
100
DictionaryVariables
280
0
  1
0.17.2 @ 2023-03-29T01:15:27.361895+00:00
  0
DICTIONARYVAR
  5
173
330
2D
100
DictionaryVariables
280
0
  1
0.17.2 @ 2023-03-29T01:15:27.740976+00:00
  0
ENDSEC
  0
EOF
